<svg xmlns="http://www.w3.org/2000/svg" width="159" height="124" viewBox="0 0 159 124">
    <g fill="none" fill-rule="evenodd">
        <path fill="#FFF" fill-rule="nonzero" stroke="#4A4A4A" stroke-linecap="round" stroke-linejoin="round" stroke-width="3" d="M23.938 117.464c-.835-.484-.84-1.266 0-1.759a3.323 3.323 0 0 1 3.02 0c.835.484.84 1.266 0 1.759a3.314 3.314 0 0 1-2.233.29M13.886 94.237c-6.48-9.6-6.787-20.268-.906-29.951M111.125 118.453c-26.756 6.32-58.65 3.182-80.44-9.407-6.131-3.538-10.988-7.543-14.505-11.815M135.495 109.046a86.686 86.686 0 0 1-20.102 8.308M154.813 68.374c5.574 12.918.66 27.028-14.765 37.802"/>
        <path fill="#EBEBEB" fill-rule="nonzero" d="M132.857 107.52c-27.402 15.926-71.982 15.926-99.57 0-27.586-15.924-27.727-41.757-.32-57.67a82.598 82.598 0 0 1 19.662-8.048 106.132 106.132 0 0 1 12.716-2.637c23.235-3.411 48.932.154 67.187 10.694 27.582 15.917 27.732 41.737.325 57.662z"/>
        <path fill="#FFF" fill-rule="nonzero" d="M148.571 51.23c.246.291.418.636.502 1.007l-.066 22.668v.941c0 .27-.018.538-.053.805v.118a24.4 24.4 0 0 1-.084.796v.123c-.03.264-.07.527-.114.791 0 .044 0 .084-.022.123-.04.224-.08.44-.123.668l-.026.128c0 .04 0 .079-.022.114a26.23 26.23 0 0 1-.185.8c0 .035 0 .07-.03.11a17.97 17.97 0 0 1-.216.8c0 .035 0 .066-.03.101-.08.268-.164.536-.256.809a23.304 23.304 0 0 1-.303.862.185.185 0 0 1 0 .043l-.027.07c-.105.282-.22.563-.338.84-.119.282-.242.563-.374.84v.053c-.127.272-.259.54-.395.813 0 .026-.031.057-.049.088-.131.263-.272.523-.417.782 0 .04-.04.075-.062.114l-.057.101c-.123.22-.255.44-.387.66l-.083.14c-.154.255-.312.51-.475.76a28.61 28.61 0 0 1-.585.862l-.026.049c-.18.255-.37.51-.558.765l-.097.127c-.145.198-.294.396-.44.59-.035.047-.07.087-.105.131l-.145.185-.66.663-.1.119-.625.73c-.052.061-.11.118-.162.176-.194.21-.387.44-.59.632l-.127.102c-.228.237-.466.479-.707.716l-.172.171c-.21.207-.44.41-.646.611l-.127.124-.058.052-.351.317-.501.44a6.214 6.214 0 0 1-.44.36l-.51.44-.44.36c-.17.145-.347.285-.527.44l-.466.36-.545.413-.488.356-.562.404-.51.356-.576.396-.532.347-.593.387c-.18.119-.37.233-.55.347l-.615.378-.194.137-.804.474c-.36.211-.72.414-1.086.616-.096.057-.193.105-.29.158-.325.18-.655.356-.984.532l-.132.07c-.37.194-.739.383-1.117.572l-.29.145c-.316.158-.637.312-.962.466l-.207.1-1.152.533-.277.123-.971.44-.264.114-1.182.492-.255.1c-.334.133-.664.265-1.002.392l-.3.119-1.217.44-.198.07-1.068.378-.325.11c-.404.14-.813.277-1.222.408h-.026c-.488.163-.976.317-1.473.466l-.334.101-1.152.339-.558.154-.95.263-.624.163-.879.229-.663.162-.88.207-.685.158-.88.19-.698.149-.857.175-.712.141-.88.158-.312.062-.69.119-.246.044-1.354.22-.325.048c-.378.061-.756.118-1.139.171l-.29.044-1.362.18-.304.04-1.147.136-.325.04-1.257.132h-.088c-.567.057-1.139.105-1.71.153l-.281.022-1.438.11-.593.035-1.13.066-.668.035-1.077.044h-.708l-.905.027H80l-.88-.027-.738-.026-.879-.04-.725-.035-.905-.057-.7-.044c-.311 0-.62-.044-.931-.07l-.611-.044h-.062l-.962-.088-.633-.057-1.086-.114c-.167 0-.334-.031-.501-.053a92.035 92.035 0 0 1-1.587-.19h-.176l-1.402-.188-.36-.057-1.222-.18-.59-.097-1.006-.158-.65-.12c-.314-.052-.626-.109-.937-.17l-.677-.128-.879-.18-.224-.044-.413-.088-1.029-.224-.646-.15a41.67 41.67 0 0 1-1.007-.237l-.633-.15-1.046-.268-.567-.15-1.288-.35-.272-.076h-.044l-.154-.043-1.152-.339-.36-.114-1.095-.339-.202-.066-1.257-.417-.325-.11-.99-.352-.32-.11-1.23-.44-.199-.078-.707-.273-.268-.11-.576-.233-.734-.303-.572-.242-.72-.316-.563-.25-.717-.33-.545-.255-.738-.418-.528-.255-.738-.378-.484-.25-.8-.44-.4-.215c-.4-.22-.791-.44-1.182-.669-13.046-7.498-19.56-17.389-19.534-27.244l.061-26.558v-7.556c.013 2.176.336 4.338.959 6.422a25.178 25.178 0 0 0 1.367 3.63c.293.605.597 1.202.914 1.794 3.138 5.636 8.584 10.937 16.33 15.411.39.225.782.44 1.182.664l.396.215.804.44.483.246c.247.128.493.255.743.378l.519.255.72.352.55.255.717.33.558.246.725.316.572.242c.242.1.488.206.734.303l.576.233c.32.128.646.26.975.382l.198.08 1.231.44.32.113.99.348.325.11c.44.145.835.28 1.257.44.25.083.497.162.748.237l.55.17.122.036.237.075.365.11.211.061.572.167.158.044.255.07.193.058.796.22.356.092c.189.053.378.105.567.15l1.011.259h.062l.61.149 1.007.237.646.145 1.029.225.32.066.383.079.83.167.682.132.932.171.484.084.233.043.94.154.59.097.61.092.611.088.25.04.256.04.58.074.699.092.176.027c.54.066 1.081.132 1.622.189.54.057.962.105 1.446.154l.44.044.285.022.958.087.682.053.373.027c.12 0 .24.008.356.026h.44c.155 0 .309.009.461.026l.44.031.44.027h.36l.976.048h.483l.58.022h4.888c.54 0 1.08-.009 1.622-.027.55 0 1.1-.026 1.649-.048l1.042-.044h.03l.695-.035c.369 0 .734-.04 1.099-.066h.303a89.27 89.27 0 0 0 1.895-.14h.118l.405-.036c.25 0 .505-.04.756-.066h.175l.374-.035.268-.026.756-.08c.405-.043.813-.087 1.218-.14l.523-.062h.053l.303-.035.299-.04c.642-.083 1.283-.175 1.925-.267l.572-.088.255-.04.14-.022.44-.07.84-.14.245-.045 1.003-.18.879-.158.712-.14.857-.177.699-.15.879-.188.686-.158c.404-.088.8-.185 1.2-.286l.387-.097.835-.215.51-.132.22-.057.843-.233c.19-.049.374-.106.563-.158l1.138-.335.598-.18.809-.255.418-.132.378-.127c.44-.145.879-.295 1.318-.44l.849-.299.079-.03.198-.07.233-.084.087-.035.66-.246a78.15 78.15 0 0 0 1.864-.73l.716-.295c.229-.096.44-.189.677-.29.32-.136.637-.277.95-.44l.28-.122.11-.049.598-.277.44-.206.207-.097.215-.105.58-.282a69.644 69.644 0 0 0 4.066-2.171l.497-.295.492-.299.308-.184.303-.194.554-.342.558-.365c.19-.123.383-.246.567-.374l.04-.026c.268-.18.532-.36.791-.545l.26-.18.492-.357.175-.127.378-.277.374-.286c.088-.061.172-.127.255-.193.084-.066.26-.194.382-.295l.159-.127.79-.633.067-.057.879-.739.075-.066c.29-.255.58-.514.857-.778l.07-.057.387-.369.316-.308.18-.171.357-.356c.096-.101.193-.198.285-.3l.093-.091c.026-.027.053-.062.083-.088l.3-.317.263-.281c.308-.339.602-.673.879-1.015l.035-.044c.185-.216.36-.44.536-.647l.146-.175c.224-.286.44-.567.654-.88.097-.123.19-.25.282-.382.092-.132.206-.286.303-.44.176-.254.347-.505.514-.76l.066-.105c.088-.124.167-.251.246-.378l.321-.524.225-.382c.092-.163.189-.325.276-.492l.216-.391.202-.392a.545.545 0 0 0 .044-.088c.07-.136.136-.268.202-.404s.119-.237.172-.356l.074-.158.145-.321a3.138 3.138 0 0 1 1.556 1.055z"/>
        <path fill="#EBEBEB" fill-rule="nonzero" d="M148.985 58.207v.848a6.213 6.213 0 0 1-.053.914v.119a24.4 24.4 0 0 1-.084.796v.123c-.03.263-.07.527-.114.79 0 .045 0 .084-.022.124-.035.224-.075.44-.123.664l-.026.131c-.01.038-.017.076-.022.115-.057.268-.119.532-.185.8l-.026.11c-.07.263-.141.532-.22.8a33.67 33.67 0 0 1-.281.91.642.642 0 0 0-.031.083c-.088.26-.18.52-.277.778a.185.185 0 0 1 0 .044l-.026.07c-.106.282-.22.563-.335.84a28.67 28.67 0 0 1-.373.84v.052c-.128.273-.26.54-.4.813 0 .027-.027.058-.044.088-.132.264-.273.523-.418.783l-.061.11c0 .035-.035.07-.057.105-.123.22-.255.44-.383.66-.03.048-.061.092-.088.14-.154.255-.312.51-.479.76l-.066.102a28.83 28.83 0 0 1-.545.804c-.176.26-.365.514-.554.77l-.092.127c-.15.198-.299.395-.44.589l-.105.132-.145.184c-.176.216-.352.44-.536.646l-.097.12c-.211.24-.44.487-.642.729l-.162.176c-.194.21-.387.44-.59.628a36.033 36.033 0 0 1-.822.84l-.175.171c-.207.202-.44.409-.642.611l-.128.123-.057.053-.351.316-.501.44-.44.36-.51.44-.44.36c-.175.141-.347.286-.527.44l-.466.356-.545.418-.488.356c-.184.136-.369.272-.558.404l-.514.356-.576.396-.532.347-.593.387-.55.347-.615.378-.304.114-.804.475c-.36.211-.72.413-1.086.615l-.29.159c-.325.18-.655.356-.984.532l-.132.07c-.37.193-.739.382-1.117.571l-.29.145c-.316.159-.637.312-.962.466l-.207.101-1.152.532-.277.123-.971.44-.264.11a55.77 55.77 0 0 1-1.182.492l-.255.101c-.328.138-.662.27-1.002.396l-.3.119-1.217.44-.198.07-1.068.377-.325.11c-.404.137-.813.277-1.222.41-.492.157-.98.316-1.477.465l-.334.097c-.382.118-.77.233-1.156.343l-.554.153-.95.264-.624.163-.879.228-.659.163-.88.207-.685.158-.879.189-.699.15-.857.175-.712.136-.88.163-.311.057-.69.123-.247.044-1.349.22-.33.053-1.138.167-.29.044-1.363.18-.303.04-1.147.136-.326.035-1.257.136h-.088l-1.71.154-.281.022-1.437.106-.594.04-1.134.065-.664.03-1.076.05h-.708l-.88.026H80l-.88-.027-.742-.026-.88-.04-.724-.035-.906-.057-.699-.044-.932-.07-.61-.044h-.062l-.963-.088-.633-.057-1.085-.115-.502-.052a92.032 92.032 0 0 1-1.586-.19l-.176-.021-1.402-.19-.36-.052a58.57 58.57 0 0 1-1.223-.185l-.589-.092-1.002-.14-.65-.12-.937-.17-.677-.133-.879-.176-.224-.044-.413-.092-1.029-.22-.646-.149a37.274 37.274 0 0 1-1.007-.237l-.633-.154c-.351-.084-.698-.176-1.046-.264l-.567-.15-1.288-.351-.272-.075h-.044l-.154-.044-1.152-.338-.36-.115-1.095-.338-.202-.066-1.257-.44-.325-.11-.99-.347-.32-.118-1.23-.44-.199-.079-.707-.273-.268-.11-.576-.232-.734-.304-.572-.241-.72-.317-.563-.25-.717-.33-.55-.255-.716-.347-.527-.26-.739-.373-.483-.25-.8-.44-.4-.211c-.4-.22-.791-.44-1.183-.669-12.747-7.358-19.252-16.967-19.52-26.61v4.29c-.027 9.872 6.487 19.78 19.534 27.292.39.224.782.44 1.182.664l.4.215.8.44.484.246.738.378.527.255.717.347.55.255c.237.114.474.224.716.33.242.105.374.167.563.25l.72.317.572.241.734.304.576.233.268.11.708.272.197.08 1.231.439.321.114.989.347.325.11c.44.145.835.281 1.257.418l.203.066 1.094.343.36.11 1.152.338.154.044h.044l.273.075c.44.123.879.241 1.287.356l.567.145 1.047.268.633.154 1.006.237.646.145 1.029.224.413.088.224.044.88.18.676.132.937.172.65.114 1.007.167.589.097 1.222.18.36.057c.466.066.936.132 1.402.189l.176.026 1.587.19.501.048 1.086.114.633.057.962.088h.062l.61.048.933.07.699.045.905.052.725.036c.295 0 .585.03.88.04.294.008.496 0 .742.026.247.026.58.022.88.026h5.679l.879-.022h.708l1.076-.044.664-.035 1.134-.066.594-.035 1.437-.11h.281a74.807 74.807 0 0 0 1.71-.154h.088l1.257-.132.326-.04 1.147-.136.303-.035c.44-.061.91-.119 1.363-.184l.29-.044 1.138-.167.33-.053c.44-.07.901-.14 1.35-.22l.246-.044.69-.119.312-.061.879-.158.712-.141.857-.176.699-.15.88-.188.685-.154.879-.211.66-.163.878-.228.625-.163.95-.264.553-.154 1.156-.338.334-.101c.497-.15.985-.303 1.477-.44.409-.132.818-.268 1.222-.409l.325-.11 1.068-.377.198-.07 1.218-.44.299-.115 1.002-.395.255-.101 1.182-.493.264-.114.971-.44.277-.123 1.152-.531.207-.101c.325-.154.646-.308.962-.466l.29-.145c.378-.185.748-.379 1.117-.572l.132-.07c.33-.172.659-.352.984-.528l.29-.158c.365-.202.726-.409 1.086-.615.273-.159.54-.317.804-.48l.185-.11.615-.382.55-.343.593-.386.532-.352.576-.396.514-.356c.19-.132.374-.268.559-.404l.487-.356.545-.413.466-.36.528-.44.44-.365c.17-.14.342-.29.51-.44.166-.15.285-.237.439-.36l.501-.44.352-.312.057-.057.127-.119c.22-.206.44-.408.642-.615l.176-.171c.242-.238.479-.475.708-.717l.114-.119c.202-.21.395-.44.589-.633.053-.057.11-.114.162-.175.22-.242.44-.484.642-.73l.097-.119c.185-.215.36-.44.536-.646l.145-.18.106-.132a8.58 8.58 0 0 0 .44-.593l.092-.128c.189-.255.378-.51.553-.765l.031-.044c.176-.255.347-.505.515-.76l.065-.101a30.55 30.55 0 0 0 .567-.906c.128-.22.26-.44.383-.66l.057-.1.062-.11a22.708 22.708 0 0 0 .461-.875c.14-.268.273-.54.4-.813v-.048c.128-.282.255-.563.374-.84.114-.281.228-.563.334-.844l.026-.07a.132.132 0 0 0 0-.044 23.066 23.066 0 0 0 .59-1.772c.078-.263.149-.531.219-.8l.026-.11c.066-.263.128-.531.185-.795.005-.04.013-.08.022-.119l.026-.127c.049-.224.088-.44.123-.664 0-.044 0-.083.022-.123a16.5 16.5 0 0 0 .115-.796v-.123c.03-.263.061-.527.083-.795v-.119c.024-.27.041-.538.053-.804a.849.849 0 0 1 0-.106v-.268-.58l.119-5.024z"/>
        <path fill="#EBEBEB" fill-rule="nonzero" d="M140.167 21.095l-.097 34.149-56.923 19.46.097-34.155z"/>
        <path fill="#FF3D56" fill-rule="nonzero" stroke="#4A4A4A" stroke-linecap="round" stroke-linejoin="round" stroke-width="3" d="M129.534 13.429a51.477 51.477 0 0 1 10.286 7.648L82.897 40.549l64.092 9.67c-2.813 6.392-8.527 12.44-17.152 17.434-25.753 14.945-67.652 14.945-93.578 0-25.925-14.945-26.061-39.24-.307-54.224 25.753-14.985 67.657-14.945 93.582 0z"/>
        <path fill="#FD459C" fill-rule="nonzero" d="M104.088 8.462c3.31 1.907 3.323 5.006.04 6.918-3.284 1.912-8.638 1.908-11.948 0-3.31-1.907-3.323-5.01-.04-6.918 3.284-1.908 8.638-1.913 11.948 0zM105.934 50.026c.84.484.844 1.266 0 1.759a3.323 3.323 0 0 1-3.02 0c-.84-.484-.844-1.266 0-1.759a3.323 3.323 0 0 1 3.02 0z"/>
        <path stroke="#FFF" stroke-linecap="round" stroke-linejoin="round" stroke-width="2" d="M116.343 19.96c-1.077-.62-1.618-1.437-1.622-2.25M116.316 15.46c2.141-1.245 5.618-1.245 7.772 0 2.154 1.243 2.163 3.256.026 4.5-1.907 1.108-4.883 1.227-7.033.36"/>
        <path fill="#FD459C" fill-rule="nonzero" d="M78.009 15.6c.835.484.84 1.266 0 1.758a3.323 3.323 0 0 1-3.02 0c-.835-.483-.84-1.266 0-1.758a3.323 3.323 0 0 1 3.02 0z"/>
        <path fill="#EBEBEB" fill-rule="nonzero" d="M154.822 40.48c.835.483.84 1.265 0 1.757a3.323 3.323 0 0 1-3.02 0c-.84-.483-.844-1.266 0-1.758a3.323 3.323 0 0 1 3.02 0z"/>
        <path stroke="#FFF" stroke-linecap="round" stroke-linejoin="round" stroke-width="2" d="M66.4 4.092c1.938 1.508 1.736 3.64-.615 5.007-2.58 1.503-6.787 1.503-9.385 0-1.213-.699-1.864-1.604-1.952-2.519M73.52 62.822c-1.709-.989-1.718-2.589 0-3.574a6.791 6.791 0 0 1 6.155 0c1.71.985 1.718 2.585 0 3.574a6.782 6.782 0 0 1-4.559.589"/>
        <path fill="#FD459C" fill-rule="nonzero" d="M43.182 58.571c.836.484.84 1.266 0 1.759a3.323 3.323 0 0 1-3.02 0c-.835-.484-.839-1.266 0-1.759a3.323 3.323 0 0 1 3.02 0zM58.857 24.813c2.448 1.411 2.462 3.706.03 5.121-2.43 1.415-6.395 1.415-8.843 0-2.448-1.415-2.466-3.71-.03-5.12 2.434-1.412 6.395-1.416 8.843 0z"/>
        <path fill="#EBEBEB" fill-rule="nonzero" d="M10.66 110.105c2.452 1.416 2.465 3.71.03 5.126-2.435 1.415-6.395 1.41-8.844 0-2.448-1.411-2.461-3.71-.03-5.126 2.43-1.415 6.395-1.415 8.843 0z"/>
        <path stroke="#FFF" stroke-linecap="round" stroke-linejoin="round" stroke-width="2" d="M30.848 43.947a4.598 4.598 0 0 1-2.91.035M27.13 43.64c-1.227-.708-1.235-1.855 0-2.563a4.87 4.87 0 0 1 4.422 0c1.059.61 1.208 1.552.44 2.255"/>
        <path stroke="#4A4A4A" stroke-width="3" d="M148.571 51.23c.246.291.418.636.502 1.007l-.066 22.668v.941c0 .27-.018.538-.053.805v.118a24.4 24.4 0 0 1-.084.796v.123c-.03.264-.07.527-.114.791 0 .044 0 .084-.022.123-.04.224-.08.44-.123.668l-.026.128c0 .04 0 .079-.022.114a26.23 26.23 0 0 1-.185.8c0 .035 0 .07-.03.11a17.97 17.97 0 0 1-.216.8c0 .035 0 .066-.03.101-.08.268-.164.536-.256.809a23.304 23.304 0 0 1-.303.862.185.185 0 0 1 0 .043l-.027.07c-.105.282-.22.563-.338.84-.119.282-.242.563-.374.84v.053c-.127.272-.259.54-.395.813 0 .026-.031.057-.049.088-.131.263-.272.523-.417.782 0 .04-.04.075-.062.114l-.057.101c-.123.22-.255.44-.387.66l-.083.14c-.154.255-.312.51-.475.76a28.61 28.61 0 0 1-.585.862l-.026.049c-.18.255-.37.51-.558.765l-.097.127c-.145.198-.294.396-.44.59-.035.047-.07.087-.105.131l-.145.185-.66.663-.1.119-.625.73c-.052.061-.11.118-.162.176-.194.21-.387.44-.59.632l-.127.102c-.228.237-.466.479-.707.716l-.172.171c-.21.207-.44.41-.646.611l-.127.124-.058.052-.351.317-.501.44a6.214 6.214 0 0 1-.44.36l-.51.44-.44.36c-.17.145-.347.285-.527.44l-.466.36-.545.413-.488.356-.562.404-.51.356-.576.396-.532.347-.593.387c-.18.119-.37.233-.55.347l-.615.378-.194.137-.804.474c-.36.211-.72.414-1.086.616-.096.057-.193.105-.29.158-.325.18-.655.356-.984.532l-.132.07c-.37.194-.739.383-1.117.572l-.29.145c-.316.158-.637.312-.962.466l-.207.1-1.152.533-.277.123-.971.44-.264.114-1.182.492-.255.1c-.334.133-.664.265-1.002.392l-.3.119-1.217.44-.198.07-1.068.378-.325.11c-.404.14-.813.277-1.222.408h-.026c-.488.163-.976.317-1.473.466l-.334.101-1.152.339-.558.154-.95.263-.624.163-.879.229-.663.162-.88.207-.685.158-.88.19-.698.149-.857.175-.712.141-.88.158-.312.062-.69.119-.246.044-1.354.22-.325.048c-.378.061-.756.118-1.139.171l-.29.044-1.362.18-.304.04-1.147.136-.325.04-1.257.132h-.088c-.567.057-1.139.105-1.71.153l-.281.022-1.438.11-.593.035-1.13.066-.668.035-1.077.044h-.708l-.905.027H80l-.88-.027-.738-.026-.879-.04-.725-.035-.905-.057-.7-.044c-.311 0-.62-.044-.931-.07l-.611-.044h-.062l-.962-.088-.633-.057-1.086-.114c-.167 0-.334-.031-.501-.053a92.035 92.035 0 0 1-1.587-.19h-.176l-1.402-.188-.36-.057-1.222-.18-.59-.097-1.006-.158-.65-.12c-.314-.052-.626-.109-.937-.17l-.677-.128-.879-.18-.224-.044-.413-.088-1.029-.224-.646-.15a41.67 41.67 0 0 1-1.007-.237l-.633-.15-1.046-.268-.567-.15-1.288-.35-.272-.076h-.044l-.154-.043-1.152-.339-.36-.114-1.095-.339-.202-.066-1.257-.417-.325-.11-.99-.352-.32-.11-1.23-.44-.199-.078-.707-.273-.268-.11-.576-.233-.734-.303-.572-.242-.72-.316-.563-.25-.717-.33-.545-.255-.738-.418-.528-.255-.738-.378-.484-.25-.8-.44-.4-.215c-.4-.22-.791-.44-1.182-.669-13.046-7.498-19.56-17.389-19.534-27.244l.061-26.558v-7.556c.013 2.176.336 4.338.959 6.422a25.178 25.178 0 0 0 1.367 3.63c.293.605.597 1.202.914 1.794 3.138 5.636 8.584 10.937 16.33 15.411.39.225.782.44 1.182.664l.396.215.804.44.483.246c.247.128.493.255.743.378l.519.255.72.352.55.255.717.33.558.246.725.316.572.242c.242.1.488.206.734.303l.576.233c.32.128.646.26.975.382l.198.08 1.231.44.32.113.99.348.325.11c.44.145.835.28 1.257.44.25.083.497.162.748.237l.55.17.122.036.237.075.365.11.211.061.572.167.158.044.255.07.193.058.796.22.356.092c.189.053.378.105.567.15l1.011.259h.062l.61.149 1.007.237.646.145 1.029.225.32.066.383.079.83.167.682.132.932.171.484.084.233.043.94.154.59.097.61.092.611.088.25.04.256.04.58.074.699.092.176.027c.54.066 1.081.132 1.622.189.54.057.962.105 1.446.154l.44.044.285.022.958.087.682.053.373.027c.12 0 .24.008.356.026h.44c.155 0 .309.009.461.026l.44.031.44.027h.36l.976.048h.483l.58.022h4.888c.54 0 1.08-.009 1.622-.027.55 0 1.1-.026 1.649-.048l1.042-.044h.03l.695-.035c.369 0 .734-.04 1.099-.066h.303a89.27 89.27 0 0 0 1.895-.14h.118l.405-.036c.25 0 .505-.04.756-.066h.175l.374-.035.268-.026.756-.08c.405-.043.813-.087 1.218-.14l.523-.062h.053l.303-.035.299-.04c.642-.083 1.283-.175 1.925-.267l.572-.088.255-.04.14-.022.44-.07.84-.14.245-.045 1.003-.18.879-.158.712-.14.857-.177.699-.15.879-.188.686-.158c.404-.088.8-.185 1.2-.286l.387-.097.835-.215.51-.132.22-.057.843-.233c.19-.049.374-.106.563-.158l1.138-.335.598-.18.809-.255.418-.132.378-.127c.44-.145.879-.295 1.318-.44l.849-.299.079-.03.198-.07.233-.084.087-.035.66-.246a78.15 78.15 0 0 0 1.864-.73l.716-.295c.229-.096.44-.189.677-.29.32-.136.637-.277.95-.44l.28-.122.11-.049.598-.277.44-.206.207-.097.215-.105.58-.282a69.644 69.644 0 0 0 4.066-2.171l.497-.295.492-.299.308-.184.303-.194.554-.342.558-.365c.19-.123.383-.246.567-.374l.04-.026c.268-.18.532-.36.791-.545l.26-.18.492-.357.175-.127.378-.277.374-.286c.088-.061.172-.127.255-.193.084-.066.26-.194.382-.295l.159-.127.79-.633.067-.057.879-.739.075-.066c.29-.255.58-.514.857-.778l.07-.057.387-.369.316-.308.18-.171.357-.356c.096-.101.193-.198.285-.3l.093-.091c.026-.027.053-.062.083-.088l.3-.317.263-.281c.308-.339.602-.673.879-1.015l.035-.044c.185-.216.36-.44.536-.647l.146-.175c.224-.286.44-.567.654-.88.097-.123.19-.25.282-.382.092-.132.206-.286.303-.44.176-.254.347-.505.514-.76l.066-.105c.088-.124.167-.251.246-.378l.321-.524.225-.382c.092-.163.189-.325.276-.492l.216-.391.202-.392a.545.545 0 0 0 .044-.088c.07-.136.136-.268.202-.404s.119-.237.172-.356l.074-.158.145-.321a3.138 3.138 0 0 1 1.556 1.055z"/>
        <path fill="#FF3D56" fill-rule="nonzero" stroke="#4A4A4A" stroke-linecap="round" stroke-linejoin="round" stroke-width="3" d="M50.848 74.026c.25.084.497.163.748.238l.55.171.122.035.602.185.211.061c.33.097.655.194.985.282l.193.057.796.22.356.092c.189.053.378.106.567.15l1.011.259h.062a66.59 66.59 0 0 0 1.617.387 99.757 99.757 0 0 0 7.068 1.367l.611.092.88.127.254.04.58.075c.29.044.585.079.88.118.54.066 1.081.132 1.622.19.54.057.962.105 1.446.153l.44.044 1.243.11c.352.032.704.059 1.055.08.12 0 .24.008.356.026l.44.03.91.058.44.026h.36l.976.048h.44l.58.022h4.9c.54 0 1.08-.009 1.622-.026.55 0 1.1-.027 1.649-.048l1.042-.044h.03c.7-.033 1.4-.072 2.097-.12a89.27 89.27 0 0 0 1.895-.14l.523-.044c.25 0 .505-.04.756-.066h.175l.642-.061.756-.08c.405-.043.813-.087 1.218-.14l.523-.062h.053l.602-.074c.642-.084 1.283-.176 1.925-.268l.827-.128.14-.022.44-.07.84-.14.245-.045a90.075 90.075 0 0 0 4.128-.804c.519-.11 1.033-.224 1.547-.347.405-.088.8-.185 1.2-.286.58-.14 1.156-.29 1.732-.44l.22-.057.844-.233c.189-.048.373-.105.562-.158l1.139-.334.598-.18.808-.255.796-.26c.44-.145.88-.294 1.319-.44l.848-.298.08-.03.439-.155.088-.035.659-.246a78.15 78.15 0 0 0 1.864-.73l.716-.294c.229-.097.44-.19.677-.29.321-.137.638-.273.95-.44l.281-.123.11-.048.598-.277.65-.304.216-.105.58-.281a69.644 69.644 0 0 0 4.066-2.172l.496-.294.493-.3c.1-.056.206-.118.307-.184.682-.44 1.341-.84 1.983-1.275l.04-.026a51.196 51.196 0 0 0 4.057-3.02l.065-.057c.295-.246.58-.488.88-.738l.074-.066c.29-.255.58-.514.857-.778l.07-.057.388-.37a38.4 38.4 0 0 0 .852-.835c.097-.096.194-.198.286-.299l.092-.092c.132-.132.255-.268.383-.404l.264-.282c.307-.338.602-.672.879-1.015.277-.343.483-.576.716-.88.233-.302.44-.566.655-.878.097-.123.19-.25.281-.383.093-.132.207-.285.304-.44.202-.285.395-.575.58-.878.088-.123.167-.251.246-.378l.321-.524.224-.382c.092-.163.19-.325.277-.492.088-.167.145-.26.215-.391l.203-.392a.545.545 0 0 0 .044-.088c.07-.136.14-.272.202-.404.061-.132.118-.237.171-.356l.075-.158c.053-.11.097-.216.145-.321a4.48 4.48 0 0 1 2.062 1.965c-.796 8.5-2.717 8.73-3.486 9.402-3.719 3.244-9.56 3.398-12.128 8.32-6.879 13.188-6.879 13.188-10.55 15.144-3.542 1.881-7.225-.638-10.8.342-3.428.937-6.131 3.517-9.639 4.286a16.07 16.07 0 0 1-1.6.202c-.571.058-2.589.075-4.589-2.14-7.837-8.677-8.51 2.558-8.536 3.042-.15 2.962 2.699 5.679.725 8.79-1.732 2.73-6.21 1.473-6.9.946-6.506-4.976 4.496-12.585-2.251-17.227-.07-.048-7.002-4.356-6.928 1.385.075 5.74-7.644 4.163-7.723 4.14-3.697-1.02-5.714-4.496-9.02-6.118a6.338 6.338 0 0 0-1.072-.295c-4.633-1.24-4.835 5.935-9.376 4.91-5.938-1.345-5.714-9.67-12.004-10.61-2.506 3.626-1.526 8.311-2.69 12.351a2.44 2.44 0 0 1-4.55.506c-3.829-8.058-.958-17.332-3.077-25.706-.782-2.242-1.033-2.453-1.701-3.011-1.152 1.06-1.319 2.809-2.668 3.736-.08-.132-.08-.132-1.758-16.514v-7.609"/>
        <path stroke="#4A4A4A" stroke-linecap="round" stroke-linejoin="round" stroke-width="3" d="M24.69 58.677a49.807 49.807 0 0 0 11.583 8.976 71.57 71.57 0 0 0 8.703 4.237M16.738 40.36c0 4.937 1.61 9.877 4.866 14.506"/>
        <path stroke="#FFF" stroke-linecap="round" stroke-linejoin="round" stroke-width="2" d="M83.873 88.738a17.978 17.978 0 0 0-2.198 7.473M108.571 84.774a10.55 10.55 0 0 1 6.343-1.53c1.06.088 2.198.32 3.134-.202M107.02 85.57a7.596 7.596 0 0 1-3.763 1.555M39.389 77.815c.808.816 1.49 1.748 2.022 2.765.175.471.397.924.664 1.35.42.475.936.855 1.516 1.112M27.191 74.967a19.17 19.17 0 0 0 .334 10.888M39.855 15.692a64.844 64.844 0 0 1 8.075-3.956"/>
        <path fill="#FD459C" fill-rule="nonzero" d="M120.932 68.602c-2.976-1.714-7.78-1.714-10.734 0-2.76 1.609-2.928 4.145-.506 5.873a84.571 84.571 0 0 0 12.888-4.449 5.2 5.2 0 0 0-1.648-1.424z"/>
    </g>
</svg>
