<svg xmlns="http://www.w3.org/2000/svg" width="421" height="239" viewBox="0 0 421 239">
    <g fill="none" fill-rule="evenodd" transform="translate(2 2)">
        <ellipse cx="166.916" cy="156.617" fill="#EBEBEB" fill-rule="nonzero" rx="132.312" ry="33.724"/>
        <path fill="#FFF" fill-rule="nonzero" stroke="#4A4A4A" stroke-width="3" d="M359.555 151.935h20.888v26.295h-20.888z"/>
        <path fill="#EBEBEB" fill-rule="nonzero" d="M363.3 155.68h13.402v18.805H363.3z"/>
        <path stroke="#4A4A4A" stroke-linecap="round" stroke-linejoin="round" stroke-width="3" d="M29.347 108.821h269.88v43.737H29.347z"/>
        <path fill="#FFF" fill-rule="nonzero" stroke="#4A4A4A" stroke-width="3" d="M54.953 108.821h3.988v43.124h-3.988zM85.48 108.821h3.988v43.124H85.48zM116.002 108.821h3.988v43.124h-3.988zM146.529 108.821h3.988v43.124h-3.988zM177.05 108.821h3.988v43.124h-3.988zM207.572 108.821h3.988v43.124h-3.988zM238.099 108.821h3.988v43.124h-3.988zM268.621 108.821h3.988v43.124h-3.988z"/>
        <path fill="#FFF" fill-rule="nonzero" stroke="#4A4A4A" stroke-width="3" d="M45.053 152.558c0-9.274 25.83-16.792 57.692-16.792 31.86 0 57.692 7.518 57.692 16.792H45.053zM174.958 152.558c0-9.274 25.831-16.801 57.701-16.801s57.692 7.518 57.692 16.792l-115.393.01zM9.564 196.501h310.832v38.33H9.564zM299.227 196.501v38.33M29.347 196.501v38.33"/>
        <path fill="#FFF" fill-rule="nonzero" stroke="#4A4A4A" stroke-width="3" d="M307.227 151.945a13.164 13.164 0 0 1 13.169 13.164v29.847H9.559V165.11c0-7.27 5.894-13.164 13.164-13.164h59.546"/>
        <rect width="329.487" height="12.04" x=".234" y="194.956" fill="#FFF" fill-rule="nonzero" stroke="#4A4A4A" stroke-width="3" rx="5"/>
        <path fill="#FFF" fill-rule="nonzero" stroke="#4A4A4A" stroke-linecap="round" stroke-width="3" d="M189.737 96.78h113.577a2.34 2.34 0 0 1 2.34 2.341v7.36a2.34 2.34 0 0 1-2.34 2.34H26.65a2.34 2.34 0 0 1-2.34-2.34v-7.36a2.34 2.34 0 0 1 2.34-2.34h117"/>
        <path fill="#EBEBEB" fill-rule="nonzero" d="M19.802 180.697h290.422v9.643H19.802z"/>
        <path fill="#FFF" fill-rule="nonzero" stroke="#4A4A4A" stroke-linecap="round" stroke-width="3" d="M151.233 96.78h32.432"/>
        <path fill="#FFF" fill-rule="nonzero" stroke="#4A4A4A" stroke-width="3" d="M89.469 151.945h204.876"/>
        <path fill="#EBEBEB" fill-rule="nonzero" d="M351.732 211.678h11.755l-7.729 15.467h-6.849zM410.974 227.145h-6.844l-7.734-15.467h11.755z"/>
        <path stroke="#4A4A4A" stroke-width="3" d="M412.378 234.836h-4.405l-3.843-7.691-7.734-15.467h11.755l2.823 15.467zM363.487 211.678l-7.729 15.467-3.843 7.691h-4.41l1.404-7.691 2.823-15.467z"/>
        <path fill="#FFF" fill-rule="nonzero" stroke="#4A4A4A" stroke-linecap="round" stroke-width="3" d="M341.611 186.656v-7.986h75.406v43.536h-75.406v-31.374"/>
        <path fill="#FFF" fill-rule="nonzero" stroke="#4A4A4A" stroke-width="3" d="M347.505 183.698h63.614v14.264h-63.614zM347.505 202.971h63.614v14.264h-63.614z"/>
        <path stroke="#4A4A4A" stroke-width="3" d="M383.237 202.97a3.923 3.923 0 1 1-7.846 0M383.237 183.698a3.923 3.923 0 1 1-7.846 0"/>
        <path fill="#FFF" fill-rule="nonzero" stroke="#4A4A4A" stroke-width="3" d="M391.738 164.261v7.13M395.428 130.73c.57 1.201.058 2.636-1.142 3.206l-5.262 2.496-2.06-4.344 5.265-2.498a2.406 2.406 0 0 1 3.2 1.14zM384.628 171.39h12.99a6.84 6.84 0 0 1 6.844 6.84H377.78a6.84 6.84 0 0 1 6.849-6.84z"/>
        <path stroke="#4A4A4A" stroke-linecap="round" stroke-linejoin="round" stroke-width="3" d="M391.125 165.24l16.413-22.227-15.116-10.631"/>
        <path fill="#FFF" fill-rule="nonzero" stroke="#4A4A4A" stroke-width="3" d="M377.418 128.758a9.442 9.442 0 0 1 8.094 17.059l-8.094-17.059zM377.405 128.76l8.094 17.06-2.034.966-8.094-17.062z"/>
        <circle cx="391.738" cy="164.261" r="3.296" fill="#FFF" fill-rule="nonzero" stroke="#4A4A4A" stroke-width="3"/>
        <circle cx="407.538" cy="143.242" r="2.331" fill="#FFF" fill-rule="nonzero" stroke="#4A4A4A" stroke-width="3"/>
        <path fill="#FFF" fill-rule="nonzero" stroke="#4A4A4A" stroke-width="3" d="M362.167 178.23h-6.325l-1.324-14.409h8.969z"/>
        <circle cx="168.61" cy="28.584" r="28.35" fill="#FFF" fill-rule="nonzero" stroke="#4A4A4A" stroke-width="3"/>
        <circle cx="168.61" cy="28.584" r="20.687" fill="#EBEBEB" fill-rule="nonzero"/>
        <path stroke="#4A4A4A" stroke-linecap="round" stroke-width="3" d="M168.61 6.259v22.325l-9.648 8.36"/>
    </g>
</svg>
