<svg xmlns="http://www.w3.org/2000/svg" width="151" height="295" viewBox="0 0 151 295">
    <g fill="none" fill-rule="evenodd" transform="translate(2 2)">
        <path fill="#ECECEC" fill-rule="nonzero" d="M30 103.206c0 3.202-1.12 5.794-2.5 5.794s-2.5-2.592-2.5-5.794v-9.412C25 90.597 26.12 88 27.5 88s2.5 2.597 2.5 5.794v9.412zM10 46.965C10 48.641 8.433 50 6.5 50S3 48.641 3 46.965v-4.93C3 40.359 4.567 39 6.5 39c.928 0 1.818.32 2.475.889.656.57 1.025 1.341 1.025 2.146v4.93zM10 84.376C10 88.036 8.432 91 6.5 91S3 88.036 3 84.376V73.624C3 69.966 4.568 67 6.5 67s3.5 2.966 3.5 6.624v10.752zM149 76.378c0 3.66-1.565 6.622-3.497 6.622-1.935 0-3.503-2.961-3.503-6.622v-10.76c0-3.651 1.568-6.618 3.503-6.618 1.932 0 3.497 2.967 3.497 6.619v10.76zM10 112.378C10 116.036 8.432 119 6.5 119S3 116.036 3 112.378v-10.756C3 97.964 4.568 95 6.5 95s3.5 2.964 3.5 6.622v10.756z"/>
        <path fill="#FFF" fill-rule="nonzero" stroke="#4A4A4A" stroke-linecap="round" stroke-linejoin="round" stroke-width="3" d="M115.69 5h15.754C138.932 5.003 145 11.125 145 18.675v258.65c0 7.552-6.072 13.675-13.561 13.675H20.787a16.716 16.716 0 0 1-11.87-4.958A17 17 0 0 1 4 274.072V18.675C4 11.123 10.072 5 17.561 5h79.353M103 5h9"/>
        <path fill="#FFF" fill-rule="nonzero" stroke="#4A4A4A" stroke-linecap="round" stroke-linejoin="round" stroke-width="3" d="M11 92.931v177.655c.007 6.853 5.501 12.407 12.28 12.414h105.66c5.002-.007 9.054-4.105 9.06-9.16V20.163c-.006-5.058-4.06-9.157-9.064-9.163h-19.912c-.922 4.494-4.838 7.716-9.378 7.717H49.364c-4.544.004-8.467-3.219-9.39-7.717h-19.91c-5.003.006-9.058 4.105-9.064 9.163v38.492M11 69v19"/>
        <path fill="#ECECEC" fill-rule="nonzero" d="M50 13.5a1.5 1.5 0 1 1-3 0 1.5 1.5 0 0 1 3 0zM59 13.5a1.5 1.5 0 1 1-3 0 1.5 1.5 0 0 1 3 0zM94 13.5a1.5 1.5 0 1 1-3 0 1.5 1.5 0 0 1 3 0zM102 13.5a1.5 1.5 0 1 1-3 0 1.5 1.5 0 0 1 3 0zM85 13c0 .552-.592.999-1.324 1h-16.35C66.595 14 66 13.552 66 13s.594-1 1.327-1h16.349c.732.001 1.324.448 1.324 1z"/>
        <rect width="91" height="9" x="29" y="37" fill="#ECECEC" fill-rule="nonzero" rx="4.5"/>
        <rect width="91" height="9" x="29" y="59" fill="#ECECEC" fill-rule="nonzero" rx="4.5"/>
        <path fill="#FFF" fill-rule="nonzero" stroke="#4A4A4A" stroke-linecap="round" stroke-linejoin="round" stroke-width="3" d="M142 30v47M142 82v8"/>
        <path stroke="#4A4A4A" stroke-linecap="round" stroke-linejoin="round" stroke-width="3" d="M0 21v-4.417c0-4.398 1.67-8.617 4.644-11.727C7.618 1.746 11.652 0 15.858 0H21"/>
        <path fill="#FFF" fill-rule="nonzero" stroke="#4A4A4A" stroke-linecap="round" stroke-linejoin="round" stroke-width="3" d="M121 111.488v22.757C121 151.783 106.783 166 89.246 166H62.754C45.217 166 31 151.783 31 134.245v-26.49C31 90.217 45.217 76 62.754 76h4.343"/>
        <path fill="#FF3D56" fill-rule="nonzero" d="M74.617 146v-5.268c-2.6-.339-4.712-.931-6.336-1.778-1.744-.96-3.2-2.38-4.217-4.108A14.852 14.852 0 0 1 62 127.944l5.211-1.017c.401 2.824 1.113 4.9 2.136 6.23 1.462 1.871 3.214 2.914 5.253 3.129V119.53a21.599 21.599 0 0 1-6.553-2.516 9.678 9.678 0 0 1-3.824-3.891 11.693 11.693 0 0 1-1.341-5.645c0-3.743 1.308-6.775 3.924-9.096 1.75-1.564 4.348-2.52 7.794-2.867V93h3.059v2.515c3.02.283 5.416 1.179 7.188 2.69 2.268 1.913 3.634 4.536 4.1 7.867l-5.37.822c-.31-2.067-.95-3.652-1.919-4.756a7.077 7.077 0 0 0-3.999-2.176v15.176c1.764.401 3.499.92 5.195 1.554a12.795 12.795 0 0 1 3.957 2.63 10.67 10.67 0 0 1 2.353 3.688c.562 1.474.845 3.041.836 4.62 0 3.648-1.145 6.69-3.435 9.126-2.29 2.436-5.26 3.743-8.906 3.921V146h-3.042zM74 100c-1.685.203-3.244 1.04-4.393 2.36-2.05 2.52-2.149 6.217-.239 8.856.913 1.162 2.456 2.09 4.632 2.784v-14zm4 37a7.673 7.673 0 0 0 5.018-2.655 8.298 8.298 0 0 0 1.978-5.635c0-1.905-.467-3.438-1.4-4.599-.935-1.16-2.8-2.198-5.596-3.111v16z"/>
        <path fill="#FFF" fill-rule="nonzero" stroke="#4A4A4A" stroke-linecap="round" stroke-linejoin="round" stroke-width="3" d="M119 95c1.983 3.77 3.006 7.861 3 12M76 76h13.412c10.044-.009 19.513 4.432 25.588 12"/>
        <path fill="#BABABA" fill-rule="nonzero" d="M72.241 247c-.62 0-1.214-.245-1.651-.682l-13.907-13.864a2.324 2.324 0 0 1 .003-3.294 2.342 2.342 0 0 1 3.305.004l12.25 12.216 23.774-23.698a2.34 2.34 0 0 1 3.301 0 2.322 2.322 0 0 1 0 3.29l-25.412 25.333a2.338 2.338 0 0 1-1.663.695z"/>
        <circle cx="75.5" cy="180.5" r="4.5" fill="#ECECEC" fill-rule="nonzero"/>
        <circle cx="55.5" cy="180.5" r="4.5" fill="#ECECEC" fill-rule="nonzero"/>
        <circle cx="94.5" cy="180.5" r="4.5" fill="#ECECEC" fill-rule="nonzero"/>
    </g>
</svg>
