<svg xmlns="http://www.w3.org/2000/svg" width="321" height="239" viewBox="0 0 321 239">
    <g fill="none" fill-rule="evenodd">
        <path fill="#EBEBEB" fill-rule="nonzero" d="M31.36 141.75c0 12.214-.559 23.35-1.478 31.74l-3.394.627-.739-79.277c.765 2.986 5.611 22.851 5.611 46.91z"/>
        <path fill="#FFF" fill-rule="nonzero" stroke="#4A4A4A" stroke-width="3" d="M41.215 214.286H10.068l4.039-13.069h23.07zM108.7 203.795l-9.181 18.366-7.261 14.525h-6.26l2.651-14.525L92 203.795zM299.415 236.686h-6.26l-7.26-14.525-9.181-18.366h16.695l3.355 18.366z"/>
        <path fill="#EBEBEB" fill-rule="nonzero" d="M92 203.795h16.7l-9.181 18.366h-10.87zM296.764 222.161h-10.87l-9.18-18.366h16.695z"/>
        <path stroke="#4A4A4A" stroke-width="3" d="M108.7 203.795l-9.181 18.366-7.261 14.525h-6.26l2.651-14.525L92 203.795zM299.415 236.686h-6.26l-7.26-14.525-9.181-18.366h16.695l3.355 18.366z"/>
        <path fill="#EBEBEB" fill-rule="nonzero" d="M136.732 173.907c-30.683 0-55.554-22.624-55.554-50.528v53.475H192.29v-53.475c0 27.904-24.888 50.528-55.558 50.528zM81.178 122.722V122.43c.005.099 0 .198 0 .292zM192.281 122.434v.945-.657c.01-.094.005-.193 0-.288zM303.393 122.434v.945-.657c.01-.094.005-.193 0-.288zM192.29 122.722V122.43c.005.099 0 .198 0 .292zM247.844 173.907c-30.684 0-55.554-22.624-55.554-50.528v53.475H303.4v-53.475c0 27.904-24.874 50.528-55.557 50.528z"/>
        <path stroke="#4A4A4A" stroke-linecap="round" stroke-width="3" d="M142.012 118.426h45.969a4.296 4.296 0 0 1 4.296 4.004v54.424H81.178v-54.132-.292a4.296 4.296 0 0 1 4.296-4.004h34.451M127.306 118.43h11.832"/>
        <path stroke="#4A4A4A" stroke-width="3" d="M303.401 122.722v54.132H192.29v-54.132-.292a4.296 4.296 0 0 1 4.296-4.004h102.52a4.296 4.296 0 0 1 4.295 4.004c-.004.099 0 .198 0 .292z"/>
        <path fill="#EBEBEB" fill-rule="nonzero" d="M192.281 179.002v17.52h-14.014c9.881 0 9.056-19.668 9.056-19.668h2.81c1.187 0 2.148.961 2.148 2.148z"/>
        <path stroke="#4A4A4A" stroke-width="3" d="M93.886 176.854h96.234c1.187 0 2.148.961 2.148 2.148v17.52H91.738v-17.52c0-1.187.962-2.148 2.148-2.148z"/>
        <path fill="#EBEBEB" fill-rule="nonzero" d="M292.85 179.002v17.52h-25.193c9.882 0 9.057-19.668 9.057-19.668h13.988c1.186 0 2.148.961 2.148 2.148z"/>
        <path stroke="#4A4A4A" stroke-width="3" d="M292.85 179.002v17.52H192.32v-17.52c0-1.187.962-2.148 2.148-2.148h96.234c1.186 0 2.148.961 2.148 2.148z"/>
        <path fill="#FFF" fill-rule="nonzero" stroke="#4A4A4A" stroke-linecap="round" stroke-width="3" d="M184.6 11.817V2.215h54.741v70.904H184.6V37.12M184.6 30.29V14.085M261.157 103.94H251.2V53.815h38.695v50.123h-4.781M282.105 103.94h-18.258M145.853 59.324h27.315v27.315h-27.315zM104.64 39.531h25.42v35.452H94.608V39.531h6.874"/>
        <path fill="#EBEBEB" fill-rule="nonzero" d="M191.474 9.089h40.994v57.156h-40.994zM258.073 60.69h24.948v36.376h-24.948zM152.727 66.198h13.567v13.567h-13.567zM101.482 46.405h21.704v21.704h-21.704z"/>
        <path stroke="#4A4A4A" stroke-linecap="round" stroke-width="3" d="M21.281 119.019c1.689-14.641 4.348-24.566 4.348-24.566s.034.134.103.387c.765 3.007 5.61 22.851 5.61 46.91 0 12.214-.558 23.35-1.477 31.74-1.044 9.555-2.578 15.556-4.236 15.556-3.153 0-5.71-21.176-5.71-47.296 0-6.479.353-12.652.86-18.276"/>
        <path fill="#FFF" fill-rule="nonzero" d="M44.73 118.31l-9.065 54.643-.194 1.164h-9.254s.615-38.103 18.508-55.803l.005-.004z"/>
        <path fill="#EBEBEB" fill-rule="nonzero" d="M44.73 118.31l-9.065 54.643h-5.74c1.044-23.148 14.573-54.132 14.783-54.639l.022-.004z"/>
        <path stroke="#4A4A4A" stroke-linecap="round" stroke-width="3" d="M41.241 139.335l-5.585 33.618-.193 1.164h-9.246s.615-38.103 18.508-55.803l-2.414 14.556"/>
        <path fill="#FFF" fill-rule="nonzero" d="M50.49 133.72l-.334 1.336-9.856 39.061-.923 3.652-8.021-2.793s9.262-32.208 19.135-41.256z"/>
        <path fill="#EBEBEB" fill-rule="nonzero" d="M50.156 135.056L40.3 174.117h-4.829c4.125-16.295 10.401-30.464 14.685-39.06z"/>
        <path stroke="#4A4A4A" stroke-width="3" d="M50.49 133.72l-.334 1.336-9.856 39.061-.923 3.652-8.021-2.793s9.262-32.208 19.135-41.256z"/>
        <path fill="#FFF" fill-rule="nonzero" d="M26.488 174.117H17.23l-8.932-53.86-.322-1.947c16.85 16.67 18.383 51.434 18.504 55.42.008.258.008.387.008.387z"/>
        <path fill="#EBEBEB" fill-rule="nonzero" d="M21.333 174.117s1.61-3.372-1.41-20.192c-1.967-11.01-7.823-25.188-11.625-33.669l-.322-1.946c16.85 16.67 18.383 51.434 18.504 55.42l-5.147.387z"/>
        <path stroke="#4A4A4A" stroke-width="3" d="M26.488 174.117H17.23l-8.932-53.86-.322-1.947c16.85 16.67 18.383 51.434 18.504 55.42.008.258.008.387.008.387z"/>
        <path fill="#FFF" fill-rule="nonzero" d="M9.819 163.024l1.353 5.362M9.458 161.59l-6.732-26.693-.511-2.036c9.881 9.048 19.13 41.243 19.13 41.243l-.983.344-7.042 2.449-1.675-6.655"/>
        <path fill="#EBEBEB" fill-rule="nonzero" d="M21.333 174.117l-.984.344-3.132-.344c-2.81-16.325-10.014-31.16-14.504-39.22l-.498-2.036c9.872 9.048 19.118 41.256 19.118 41.256z"/>
        <path fill="#FFF" fill-rule="nonzero" stroke="#4A4A4A" stroke-linecap="round" stroke-linejoin="round" stroke-width="3" d="M9.819 163.024l1.353 5.362"/>
        <path stroke="#4A4A4A" stroke-linecap="round" stroke-linejoin="round" stroke-width="3" d="M8.874 159.24l-6.148-24.343-.511-2.036c9.881 9.048 19.13 41.243 19.13 41.243l-.983.344-7.042 2.449-1.675-6.655"/>
        <path fill="#FFF" fill-rule="nonzero" d="M4.87 172.957h42.033v18.783c-.002 6.769-5.483 12.258-12.252 12.27H17.14c-6.776-.003-12.268-5.495-12.27-12.27v-18.783z"/>
        <path fill="#EBEBEB" fill-rule="nonzero" d="M46.903 172.953v18.783c0 6.77-5.482 12.262-12.252 12.274h-8.279a6.444 6.444 0 0 0 6.444-6.423v-24.634h14.087z"/>
        <path stroke="#4A4A4A" stroke-linecap="round" stroke-width="3" d="M4.87 185.124v-12.167h42.033v18.783c0 6.77-5.482 12.26-12.252 12.27H17.14a12.27 12.27 0 0 1-12.27-12.27"/>
        <path fill="#FFF" fill-rule="nonzero" d="M318.76 151.79l-6.264 65.37H72.083l-6.268-65.37a3.132 3.132 0 0 1 3.136-3.132h19.655a3.132 3.132 0 0 1 3.132 3.132v44.732H292.85V151.79a3.132 3.132 0 0 1 3.132-3.132h19.638a3.132 3.132 0 0 1 3.14 3.132z"/>
        <path fill="#EBEBEB" fill-rule="nonzero" d="M318.76 151.79l-6.264 65.37h-16.325c13.692-15.247 16.755-53.633 17.43-68.502h2.019a3.132 3.132 0 0 1 3.14 3.132z"/>
        <path stroke="#4A4A4A" stroke-linecap="round" stroke-width="3" d="M68.917 184.157l-3.102-32.371a3.132 3.132 0 0 1 3.136-3.132h19.655a3.132 3.132 0 0 1 3.132 3.132v44.736H292.85V151.79a3.132 3.132 0 0 1 3.132-3.132h19.638a3.132 3.132 0 0 1 3.132 3.132l-6.256 65.37H72.083l-2.75-28.677"/>
    </g>
</svg>
