<svg xmlns="http://www.w3.org/2000/svg" width="170" height="123" viewBox="0 0 170 123">
    <g fill="none" fill-rule="evenodd">
        <path stroke="#4A4A4A" stroke-linecap="round" stroke-linejoin="round" stroke-width="3" d="M12.143 89.375c-11.015-16.661-5-36.22 18.086-49.606M20.228 98.464a48.564 48.564 0 0 1-5.36-5.44M135.5 110.354c-31.478 13.52-76.217 11.995-104.902-4.566M67.305 27.501c26.61-3.901 56.042.177 76.939 12.268 31.587 18.234 31.754 47.809.373 66.038"/>
        <path fill="#EBEBEB" fill-rule="nonzero" d="M163.31 78.853c-2.147 9.246-9.332 18.167-21.562 25.28-29.809 17.322-78.296 17.322-108.301 0-30.005-17.32-30.153-45.417-.349-62.729a89.99 89.99 0 0 1 21.404-8.754 117.256 117.256 0 0 1 13.826-2.868c25.277-3.71 53.221.167 73.08 11.632a70.163 70.163 0 0 1 3.926 2.438c14.825 9.925 20.82 22.747 17.976 35z"/>
        <path fill="#B1B1B1" fill-rule="nonzero" d="M163.31 78.853L87.863 66.14l57.476-22.298c14.82 9.935 20.816 22.757 17.971 35.01z"/>
        <path fill="#EBEBEB" fill-rule="nonzero" d="M148.145 118.515c.908.526.913 1.377 0 1.912a3.614 3.614 0 0 1-3.284 0c-.909-.526-.914-1.377 0-1.912a3.614 3.614 0 0 1 3.284 0zM11.594 104.789c2.667 1.54 2.682 4.03.033 5.57-2.649 1.539-6.956 1.539-9.619 0-2.663-1.54-2.677-4.03-.033-5.57 2.643-1.54 6.956-1.564 9.619 0z"/>
        <path fill="#FFF" fill-rule="nonzero" stroke="#4A4A4A" stroke-linecap="round" stroke-linejoin="round" stroke-width="3" d="M36.402 23.777a5.44 5.44 0 0 1-3.16.035M32.357 23.442c-1.33-.77-1.339-2.017 0-2.787a5.297 5.297 0 0 1 4.81 0c1.152.665 1.314 1.688.478 2.448"/>
        <path fill="#FFF" fill-rule="nonzero" d="M157.51 27.707l-.014 4.427-.019 6.607-.004 2.897-.044 13.927L87.863 66.14l.029-11.03.01-2.896.042-13.932z"/>
        <path fill="#EBEBEB" fill-rule="nonzero" d="M157.51 38.741l-.037 2.897-.044 2.912-4.23.64-7.65 1.167-56.969 8.649-.664.1h-.053l.038-2.902.067-2.873 9.165-1.435 10.107-1.534 3.825-.579 33.341-5.058 9.113-1.382 3.958-.607z"/>
        <path fill="#FF3D56" fill-rule="nonzero" stroke="#4A4A4A" stroke-linecap="round" stroke-linejoin="round" stroke-width="3" d="M157.51 27.707v4.427c-3.346.789-3.867 3.901-3.977 7.214-.067 2.032 0 4.136-.32 5.828-.402 2.037-1.406 3.471-3.983 3.471a3.906 3.906 0 0 1-3.671-2.304c-.794-1.502-1.08-3.567-1.138-5.613-.148-4.719.908-9.39-.244-7.08-2.113 4.235-4.886 6.066-15.332 2.662-10.447-3.404-14.491 3.744-17.766 9.486-1.4 2.457-2.673 1.97-3.825.578-1.534-1.86-2.868-5.33-4.016-5.57-2.022-.41-4.89-1.262-5.9 6.115a8.845 8.845 0 0 1-.19.99c-1.296 5.259-6.613 6.722-8.554 7.09a8.56 8.56 0 0 1-.664.1h-.053l.039-2.902.052-13.917"/>
        <path fill="#FF3D56" fill-rule="nonzero" stroke="#4A4A4A" stroke-linecap="round" stroke-linejoin="round" stroke-width="3" d="M105.476 35.62l-17.508 2.662L123.935 2.24a80.974 80.974 0 0 1 14.71 6.53c9.084 5.26 15.596 11.79 18.885 18.938l-17.828 2.71"/>
        <path stroke="#FFF" stroke-linecap="round" stroke-linejoin="round" stroke-width="2" d="M135.04 31.125l-24.826 3.772"/>
        <path stroke="#4A4A4A" stroke-linecap="round" stroke-linejoin="round" stroke-width="3" d="M157.51 27.707l-.014 4.427-.019 6.607-.004 2.897-.044 13.927L87.863 66.14l.029-11.03.01-2.896.042-13.932"/>
        <path fill="#FFF" fill-rule="nonzero" d="M151.415 87.224s.765 12.124-18.679 17.039l18.68-17.04zM70.924 81.138c.909.526.913 1.377 0 1.912a3.614 3.614 0 0 1-3.284 0c-.909-.526-.913-1.377 0-1.912a3.614 3.614 0 0 1 3.284 0z"/>
        <path fill="#FFF" fill-rule="nonzero" stroke="#4A4A4A" stroke-linecap="round" stroke-linejoin="round" stroke-width="3" d="M119.34 84.37c-1.86-1.076-1.87-2.816 0-3.887a7.372 7.372 0 0 1 6.693 0c1.86 1.07 1.87 2.811.024 3.887a7.42 7.42 0 0 1-4.962.64"/>
        <path fill="#FFF" fill-rule="nonzero" d="M58.15 47.853c2.668 1.54 2.682 4.03.033 5.57-2.648 1.54-6.956 1.54-9.619 0-2.663-1.54-2.677-4.03-.033-5.57s6.956-1.54 9.619 0z"/>
        <path fill="#FD459C" fill-rule="nonzero" d="M130.724 9.07c2.662 1.54 2.677 4.036.028 5.575-2.648 1.54-6.951 1.54-9.619 0-2.668-1.539-2.677-4.035-.029-5.574 2.649-1.54 6.952-1.535 9.62 0z"/>
        <path fill="#FFF" fill-rule="nonzero" d="M72.1 103.006c2.663 1.539 2.678 4.03.034 5.57-2.644 1.539-6.956 1.539-9.62 0-2.662-1.54-2.681-4.031-.033-5.57 2.649-1.54 6.956-1.54 9.62 0z"/>
        <path fill="#FFF" fill-rule="nonzero" stroke="#4A4A4A" stroke-linecap="round" stroke-linejoin="round" stroke-width="3" d="M34.757 75.735a5.46 5.46 0 0 1-3.165.035M30.708 75.4c-1.33-.769-1.34-2.017 0-2.786a5.297 5.297 0 0 1 4.81 0c1.151.664 1.314 1.687.477 2.447M80.706 41.26a7.236 7.236 0 0 1-4.236.05M75.29 40.816c-1.784-1.033-1.794-2.701 0-3.73a7.08 7.08 0 0 1 6.44 0c1.543.89 1.758 2.257.645 3.276"/>
        <path stroke="#FFF" stroke-linecap="round" stroke-linejoin="round" stroke-width="2" d="M111.246 30.255a5.464 5.464 0 0 1-3.18.035M107.182 29.916c-1.338-.77-1.348-2.023 0-2.797a5.307 5.307 0 0 1 4.83 0c1.156.669 1.319 1.692.477 2.457"/>
        <path fill="#FFF" fill-rule="nonzero" stroke="#4A4A4A" stroke-linecap="round" stroke-linejoin="round" stroke-width="3" d="M30.163 121.388a1.534 1.534 0 0 1-.875 0M29.044 121.292a.406.406 0 0 1 0-.77 1.434 1.434 0 0 1 1.329 0c.32.182.368.479.134.68"/>
        <path stroke="#FFF" stroke-linecap="round" stroke-linejoin="round" stroke-width="2" d="M137.55 24.982c-.816.26-1.687.27-2.51.03M134.343 24.719c-1.057-.612-1.062-1.602 0-2.214a4.231 4.231 0 0 1 3.824 0c.913.53 1.043 1.339.383 1.946M146.59 35.906a36.4 36.4 0 0 0 .13 6.392M147.06 44.708c.197.84.7 1.576 1.41 2.065M113.904 38.196a62.366 62.366 0 0 0-2.672 3.347M89.78 42.46v2.926M89.78 47.81v1.999"/>
    </g>
</svg>
