<svg xmlns="http://www.w3.org/2000/svg" width="677" height="301" viewBox="0 0 677 301">
    <g fill="none" fill-rule="evenodd">
        <path fill="#FFF" fill-rule="nonzero" stroke="#4A4A4A" stroke-width="3" d="M531.322 41.739l5.462-15.455h23.444l5.461 15.455"/>
        <path fill="#EBEBEB" fill-rule="nonzero" d="M578.994 163.898v62.017c-12.299-2.87-26.223-10.546-42.057-18.688v-43.33h42.057z"/>
        <path fill="#FFF" fill-rule="nonzero" stroke="#4A4A4A" stroke-width="3" d="M393.581 113.852h45.82l31.059 17.398v52.477"/>
        <path fill="#FFF" fill-rule="nonzero" stroke="#4A4A4A" stroke-width="3" d="M428.272 136.886v109.807h-69.166V136.886"/>
        <path fill="#EBEBEB" fill-rule="nonzero" d="M274.101 116.642h16.527v61.756h-16.527z"/>
        <path stroke="#4A4A4A" stroke-width="3" d="M290.61 275.364h-22.415V93.142h22.415z"/>
        <path fill="#FFF" fill-rule="nonzero" stroke="#4A4A4A" stroke-width="3" d="M208.788 221.977V93.147h59.408v182.217"/>
        <path fill="#EBEBEB" fill-rule="nonzero" d="M598.073 275.83h-4.802c-1.745 0-79.482-84.398-139.748-84.398v-4.38h3.927c4.37 0 35.976 3.607 96.617 39.863 0 0 26.104 17.113 44.006 17.113v31.802z"/>
        <path stroke="#4A4A4A" stroke-width="3" d="M598.073 227.097h-9.605c-31.446 0-74.679-45.012-134.945-45.012v59.057h144.55v-14.045z"/>
        <path fill="#FFF" fill-rule="nonzero" stroke="#4A4A4A" stroke-width="3" d="M478.95 184.5v56.642M503.843 192.199v48.943M529.174 203.352v37.79M554.067 216.153v24.989M578.994 225.915v36.903M592.503 276.034v-52.653h6.883M595.891 265.091h30.571v10.739h-30.571z"/>
        <path fill="#FFF" fill-rule="nonzero" stroke="#4A4A4A" stroke-width="3" d="M598.073 219.25h25.768v45.841h-25.768z"/>
        <path fill="#EBEBEB" fill-rule="nonzero" d="M601.568 223.381h18.63v38.648h-18.63z"/>
        <path fill="#FFF" fill-rule="nonzero" stroke="#4A4A4A" stroke-width="3" d="M601.568 209.341h18.778v9.909h-18.778z"/>
        <path fill="#EBEBEB" fill-rule="nonzero" stroke="#4A4A4A" stroke-width="3" d="M604.626 204.386h12.662v4.955h-12.662z"/>
        <path stroke="#4A4A4A" stroke-width="3" d="M623.841 228.648h-7.292v10.449"/>
        <path fill="#EBEBEB" fill-rule="nonzero" d="M309.087 275.83h4.803c1.75 0 79.48-84.398 139.753-84.398v-4.38h-3.933c-4.365 0-39.585 5.073-96.617 39.863 0 0-26.103 17.113-44.006 17.113v31.802z"/>
        <path stroke="#4A4A4A" stroke-width="3" d="M309.087 227.097h9.605c31.446 0 74.679-45.012 134.95-45.012v59.057H309.088v-14.045z"/>
        <path fill="#FFF" fill-rule="nonzero" stroke="#4A4A4A" stroke-width="3" d="M453.643 176.716v64.426M428.21 184.5v56.642M403.317 192.199v48.943M377.986 203.352v37.79M353.093 216.153v24.989M328.166 225.915v36.903M314.657 276.034v-52.653h-6.883M311.27 275.83h-30.571v-10.74h30.57z"/>
        <path fill="#FFF" fill-rule="nonzero" stroke="#4A4A4A" stroke-width="3" d="M309.087 265.09H283.32v-45.84h25.768z"/>
        <path fill="#FFF" fill-rule="nonzero" stroke="#4A4A4A" stroke-width="3" d="M305.592 219.25h-18.778v-9.91h18.778z"/>
        <path fill="#FFF" fill-rule="nonzero" stroke="#4A4A4A" stroke-width="3" d="M302.534 209.341h-12.662v-4.955h12.662z"/>
        <path fill="#FFF" fill-rule="nonzero" d="M597.936 249.807H309.081v-8.67h288.855z"/>
        <path fill="#EBEBEB" fill-rule="nonzero" d="M597.936 249.813H309.081v-4.335h288.855z"/>
        <path stroke="#4A4A4A" stroke-width="3" d="M597.936 249.807H309.081v-8.67h288.855zM283.319 228.648h7.292v10.449"/>
        <path fill="#FFF" fill-rule="nonzero" stroke="#4A4A4A" stroke-width="3" d="M567.775 276.034s9.895-14.511 34.634-14.511c24.74 0 23.302-32.955 62.193-18.983l10.923 33.386M459.246 275.875h-71.695M531.032 275.875H472.16M665.727 275.875H526.64M456.57 297.13v-10.516H12.219L2.085 298.767"/>
        <path fill="#FFF" fill-rule="nonzero" stroke="#4A4A4A" stroke-width="3" d="M66.773 286.727v-8.102h39.17l8.78-13.5h58.749v21.602zM407.807 275.926h28.917v10.801h-28.917zM269.213 254.324h123.061v32.403H269.213z"/>
        <path fill="#EBEBEB" fill-rule="nonzero" d="M280.699 265.09l6.263-5.255h100.59v26.779H280.698z"/>
        <path fill="#FFF" fill-rule="nonzero" stroke="#4A4A4A" stroke-width="3" d="M340.68 286.727l67.127-24.977v24.977zM173.472 265.125h98.873v21.602h-98.873zM152.54 265.125h-32.418l16.21-26.33z"/>
        <path fill="#FFF" fill-rule="nonzero" stroke="#4A4A4A" stroke-width="3" d="M136.331 238.795s-18.232-18.227-61.454-4.05l39.84 30.38h5.405l16.21-26.33z"/>
        <path fill="#EBEBEB" fill-rule="nonzero" stroke="#4A4A4A" stroke-width="3" d="M136.331 238.795s12.037-12.034 39.732-8.943c6.388.716 9.662 14.085 9.662 14.085l-27.786 21.188h-5.399l-16.209-26.33z"/>
        <path fill="#FFF" fill-rule="nonzero" stroke="#4A4A4A" stroke-width="3" d="M185.947 277.955h1.392a3.694 3.694 0 0 1 3.694 3.693v5.085h-8.78v-5.085a3.694 3.694 0 0 1 3.694-3.693zM200.081 277.955h1.404a3.694 3.694 0 0 1 3.694 3.693v5.085h-8.81v-5.085a3.693 3.693 0 0 1 3.712-3.693zM214.215 277.955h1.393a3.694 3.694 0 0 1 3.694 3.693v5.085h-8.78v-5.085a3.694 3.694 0 0 1 3.693-3.693zM228.35 277.955h1.392a3.694 3.694 0 0 1 3.694 3.693v5.085h-8.78v-5.085a3.694 3.694 0 0 1 3.694-3.693zM345.733 215.91s26.627-8.075 49.32 4.579l-20.795 33.835h-56.6s12.27-22.62 28.075-38.415z"/>
        <path fill="#EBEBEB" fill-rule="nonzero" d="M348.444 244.46l45.467-23.63s-16.17-9.95-42.102-5.45l-11.412 29.08h8.047z"/>
        <path fill="#FFF" fill-rule="nonzero" stroke="#4A4A4A" stroke-width="3" d="M361.01 188.636l-24.222 65.625-49.73.046h-17.845c1.745-44.557 27.848-58.085 27.848-58.085 21.114-15.04 63.95-7.586 63.95-7.586z"/>
        <path fill="#EBEBEB" fill-rule="nonzero" d="M359.709 189.205c-54.293-.802-71.974 62.76-72.315 63.92l-18.187-.085c1.745-44.557 28.701-56.25 28.701-56.25 21.097-15.012 61.8-7.585 61.8-7.585z"/>
        <path fill="#FFF" fill-rule="nonzero" stroke="#4A4A4A" stroke-width="3" d="M287.053 254.324l11.776-9.864h99.97l-9.736 9.739z"/>
        <path stroke="#4A4A4A" stroke-width="3" d="M374.258 254.324l-13.23-9.955a28.73 28.73 0 0 0-11.032-25.863M297.09 196.239s23.239 15.34 22.165 48.221l17.521 9.801"/>
        <path fill="#EBEBEB" fill-rule="nonzero" d="M197.2 247.233l-16.692 17.892h-7.036l-26.03-55.756s28.496 9.978 49.758 37.864z"/>
        <path stroke="#4A4A4A" stroke-width="3" d="M214.909 228.256l-17.71 18.977-16.691 17.892h-7.036l-26.03-55.756s46.04-10.09 67.467 18.887z"/>
        <path fill="#FFF" fill-rule="nonzero" stroke="#4A4A4A" stroke-width="3" d="M306.115 170.085l-27.678 84.176-9.224 10.864h-5.814L236.22 244.46l-21.307-16.204s19.705-63.54 91.2-58.17z"/>
        <path fill="#EBEBEB" fill-rule="nonzero" d="M305.058 170.858c-54.532 2.324-67.768 73.602-67.768 73.602l-21.313-16.204s20.136-61.665 89.08-57.398z"/>
        <path stroke="#4A4A4A" stroke-width="3" d="M214.909 228.256l8.002 36.869"/>
        <path fill="#FFF" fill-rule="nonzero" stroke="#4A4A4A" stroke-width="3" d="M279.403 93.148h17.687v11.755h-11.68M219.325 93.148h-17.681v11.755h11.673M256.414 70.506v22.642h17.687v11.755h-11.674M423.754 131.426h-60.135l29.962-17.574zM366.261 140.71h-11.213v-9.284h121.35v9.284H465.39"/>
        <path fill="#EBEBEB" fill-rule="nonzero" d="M218.91 118.619h11.594v12.813H218.91zM218.91 156.466h11.594v20.25H218.91zM240.649 118.619h7.201v12.813h-7.201zM252.515 118.619h7.201v12.813h-7.201z"/>
        <path fill="#FFF" fill-rule="nonzero" stroke="#4A4A4A" stroke-width="3" d="M259.722 136.886h-58.078v10.631h11.64M237.87 176.767h-36.226v10.63h11.64M105.942 278.625h31.963"/>
        <path fill="#EBEBEB" fill-rule="nonzero" d="M367.159 148.79h18.687v18.682h-18.687zM396.076 148.79h18.687v18.682h-18.687z"/>
        <path fill="#FFF" fill-rule="nonzero" stroke="#4A4A4A" stroke-width="3" d="M559.478 41.739h9.832v122.159M527.003 148.79V41.739h8.633"/>
        <path stroke="#4A4A4A" stroke-width="3" d="M511.578 163.898h67.416v55.352"/>
        <path fill="#FFF" fill-rule="nonzero" d="M561.387 175.864h7.394v30.994h-7.394z"/>
        <path fill="#EBEBEB" fill-rule="nonzero" d="M551.816 54.653h7.661v7.659h-7.661zM551.816 76.5h7.661v7.659h-7.661zM551.816 98.347h7.661v7.659h-7.661zM551.816 120.188h7.661v28.602h-7.661zM610.883 203.352v-89.5h-36.43"/>
        <path fill="#FFF" fill-rule="nonzero" stroke="#4A4A4A" stroke-width="3" d="M574.453 139.892h28.9M587.116 163.898h23.767M549.088 26.284V0"/>
        <path fill="#F7F7F7" fill-rule="nonzero" d="M438.684 10.466a7.515 7.515 0 0 0-1.762.204v-.204a10.475 10.475 0 1 0-20.46-3.057 11.142 11.142 0 0 0-15.663 8.193h45.245a7.797 7.797 0 0 0-7.36-5.136zM248.725 44.403a7.515 7.515 0 0 0-1.762.205v-.205a10.475 10.475 0 1 0-20.46-3.057 11.148 11.148 0 0 0-15.67 8.194h45.212a7.797 7.797 0 0 0-7.32-5.137z"/>
        <path fill="#FFF" fill-rule="nonzero" stroke="#4A4A4A" stroke-width="3" d="M450.505 298.676H189.92M172.3 299.244h-30.405M118.593 299.244H36.47"/>
    </g>
</svg>
