<svg xmlns="http://www.w3.org/2000/svg" width="536" height="304" viewBox="0 0 536 304">
    <g fill="none" fill-rule="evenodd">
        <path fill="#FFF" fill-rule="nonzero" stroke="#4A4A4A" stroke-width="3" d="M453.794 251.367h43.674l-17.372-17.721h-68.704"/>
        <path fill="#EBEBEB" fill-rule="nonzero" d="M306.329 183.013h10.127v12.658h-10.127z"/>
        <path stroke="#4A4A4A" stroke-width="3" d="M317.722 195.67H284.81l9.47-12.657h23.442z"/>
        <path fill="#FFF" fill-rule="nonzero" stroke="#4A4A4A" stroke-width="3" d="M73.418 104.532h43.038v21.519H73.418z"/>
        <path fill="#EBEBEB" fill-rule="nonzero" d="M77.215 108.329h18.987v12.658H77.215z"/>
        <path fill="#FFF" fill-rule="nonzero" stroke="#4A4A4A" stroke-width="3" d="M291.139 302h-17.722V195.67h17.722z"/>
        <path fill="#FFF" fill-rule="nonzero" stroke="#4A4A4A" stroke-width="3" d="M289.873 195.671h41.772V302h-41.772zM356.962 147.57h-16.456v-30.38h16.456zM356.962 117.19h48.101v30.38h-48.101z"/>
        <path fill="#EBEBEB" fill-rule="nonzero" d="M377.215 117.19h18.987v16.456h-18.987zM0 302s1.45-18.493 21.254-21.9c19.803-3.408 1.93-32.606 41.052-20.928S110.126 302 110.126 302H0z"/>
        <path fill="#FFF" fill-rule="nonzero" stroke="#4A4A4A" stroke-width="3" d="M111.741 120.987h12.31V302H63.29V120.987h32.32"/>
        <path fill="#EBEBEB" fill-rule="nonzero" d="M108.861 131.114h11.392V302h-11.392z"/>
        <path fill="#FFF" fill-rule="nonzero" stroke="#4A4A4A" stroke-width="3" d="M51.899 302V131.114h43.038"/>
        <path fill="#EBEBEB" fill-rule="nonzero" d="M58.228 137.443h21.519V302H58.228z"/>
        <path fill="#FFF" fill-rule="nonzero" stroke="#4A4A4A" stroke-width="3" d="M51.899 160.228H93.67M51.899 188.076H93.67M51.899 215.924H93.67M51.899 242.506H93.67M115.19 147.57h22.785v153.165H115.19zM84.81 104.532V72.886M91.139 93.139h17.722v11.392H91.139zM100 91.873V56.43"/>
        <path fill="#EBEBEB" fill-rule="nonzero" d="M212.21 85.544h32.542l2.083-12.658h-36.708z"/>
        <path stroke="#4A4A4A" stroke-width="3" d="M241.038 109.595h-25.114l-5.797-36.709h36.708z"/>
        <path fill="#FFF" fill-rule="nonzero" stroke="#4A4A4A" stroke-width="3" d="M227.845 2c1.4 0 2.535 1.083 2.535 2.419v40.619h-5.064V4.418c0-1.335 1.135-2.418 2.535-2.418h-.006zM238.445 45.038h-19.922l-4.599 29.114h29.114zM216.456 53.899h21.519"/>
        <path fill="#EBEBEB" fill-rule="nonzero" d="M229.114 109.595h5.063v174.684h-5.063z"/>
        <path stroke="#4A4A4A" stroke-width="3" d="M221.519 109.595h12.658v191.139h-12.658z"/>
        <path fill="#FFF" fill-rule="nonzero" stroke="#4A4A4A" stroke-width="3" d="M204.632 210.86h23.216v7.255h-5.807v16.932h5.807v7.254h-5.807v16.927h5.807v7.254h-5.807v26.657H175.95v-82.278zM174.684 217.19v74.683h-21.52V217.19"/>
        <path fill="#EBEBEB" fill-rule="nonzero" d="M158.228 223.519h16.456v62.025h-16.456z"/>
        <path fill="#FFF" fill-rule="nonzero" stroke="#4A4A4A" stroke-width="3" d="M151.9 302s-.207-8.726 9.703-16.483c9.91-7.758 34.393-6.789 56.563 0 22.17 6.788 28.573-21.816 51.325-15.515C292.243 276.303 305.063 302 305.063 302H151.9zM348.101 302V147.57h-16.455V302M348.101 302V147.57h63.291V302"/>
        <path fill="#EBEBEB" fill-rule="nonzero" d="M384.81 157.696h18.987v26.582H384.81zM384.81 212.127h18.987v26.582H384.81zM384.81 266.557h18.987v26.582H384.81zM337.975 157.696h6.329v135.443h-6.329z"/>
        <path fill="#FFF" fill-rule="nonzero" stroke="#4A4A4A" stroke-width="3" d="M379.747 148.835v50.633M379.747 172.886h18.987M389.873 199.468h18.988M379.747 224.785h18.987M391.14 250.101h18.987M381.013 276.684H400M356.962 133.646h32.911M377.215 117.19v16.456"/>
        <path fill="#EBEBEB" fill-rule="nonzero" d="M356.962 104.532h18.987v12.658h-18.987z"/>
        <path stroke="#4A4A4A" stroke-width="3" d="M356.962 104.532h40.506v12.658h-40.506z"/>
        <path fill="#FFF" fill-rule="nonzero" stroke="#4A4A4A" stroke-width="3" d="M386.076 104.532V79.215"/>
        <path fill="#EBEBEB" fill-rule="nonzero" d="M294.937 213.392h32.911v16.456h-32.911zM273.418 213.392h15.19v6.329h-15.19zM273.418 229.848h15.19v6.329h-15.19zM273.418 245.038h15.19v6.329h-15.19zM273.418 261.494h15.19v6.329h-15.19zM294.937 243.772h32.911v16.456h-32.911z"/>
        <path fill="#FFF" fill-rule="nonzero" stroke="#4A4A4A" stroke-width="3" d="M324.05 228.582h-26.582M324.05 258.962h-26.582M430.38 251.367h51.898v49.367M503.797 302s2.144-10.127 12.926-10.127c10.781 0 16.188 10.127 16.188 10.127h-7.357"/>
        <path fill="#EBEBEB" fill-rule="nonzero" d="M118.987 157.696h10.127v7.595h-10.127zM118.987 180.481h10.127v7.595h-10.127zM118.987 202h10.127v7.595h-10.127zM118.987 223.519h10.127v7.595h-10.127zM118.987 245.038h10.127v7.595h-10.127zM118.987 266.557h10.127v7.595h-10.127zM206.329 224.785h10.127v10.127h-10.127zM188.608 224.785h10.127v10.127h-10.127z"/>
        <path fill="#FFF" fill-rule="nonzero" stroke="#4A4A4A" stroke-width="3" d="M221.519 233.646h-43.038"/>
        <path fill="#EBEBEB" fill-rule="nonzero" d="M206.329 248.835h10.127v10.127h-10.127zM188.608 248.835h10.127v10.127h-10.127z"/>
        <path fill="#FFF" fill-rule="nonzero" stroke="#4A4A4A" stroke-width="3" d="M221.519 258.962h-43.038M175.95 210.86h-29.115v7.596h14.143"/>
        <path stroke="#EBEBEB" stroke-width="3" d="M220.253 217.19h-41.772"/>
        <path fill="#FFF" fill-rule="nonzero" stroke="#4A4A4A" stroke-width="3" d="M213.924 128.582h30.38M213.924 184.278h30.38M306.33 183.013v12.658"/>
        <path fill="#EBEBEB" fill-rule="nonzero" d="M356.962 160.228h10.127v10.127h-10.127zM356.962 179.215h10.127v10.127h-10.127zM436.709 258.962h10.127v10.127h-10.127zM454.43 258.962h10.127v10.127H454.43zM446.835 276.684h10.127v10.127h-10.127zM464.557 276.684h10.127v10.127h-10.127zM356.962 199.468h10.127v34.177h-10.127z"/>
        <path stroke="#4A4A4A" stroke-width="3" d="M244.304 86.81h-24.05"/>
        <path fill="#F7F7F7" fill-rule="nonzero" d="M483.31 37.917a6.98 6.98 0 0 0-1.603.18v-.18c.006-4.621-3.393-8.549-7.989-9.232-4.595-.682-9 2.086-10.352 6.507a10.031 10.031 0 0 0-8.808.233 9.932 9.932 0 0 0-5.19 7.081h40.505a6.979 6.979 0 0 0-6.564-4.59zM318.752 88.56c-.53 0-1.059.061-1.575.181v-.18c.005-4.627-3.394-8.559-7.989-9.243-4.595-.683-9 2.088-10.352 6.514a10.021 10.021 0 0 0-8.82.214 9.943 9.943 0 0 0-5.206 7.093h40.506a6.98 6.98 0 0 0-6.564-4.579z"/>
    </g>
</svg>
