<svg xmlns="http://www.w3.org/2000/svg" width="160" height="124" viewBox="0 0 160 124">
    <g fill="none" fill-rule="evenodd">
        <path fill="#FFF" fill-rule="nonzero" stroke="#4A4A4A" stroke-linecap="round" stroke-linejoin="round" stroke-width="3" d="M7.319 94.237c-6.48-9.6-6.787-20.268-.923-29.951M104.558 118.453c-26.756 6.32-58.65 3.182-80.44-9.407-6.153-3.538-10.988-7.543-14.505-11.815M128.927 109.046a86.686 86.686 0 0 1-20.114 8.308M148.246 68.374c5.574 12.918.66 27.028-14.765 37.802"/>
        <path fill="#EBEBEB" fill-rule="nonzero" d="M126.29 107.52c-27.406 15.926-71.982 15.926-99.57 0C-.865 91.597-1.006 65.764 26.4 49.85a82.448 82.448 0 0 1 19.662-8.048 106.132 106.132 0 0 1 12.716-2.637c23.222-3.42 48.932.145 67.178 10.686 27.591 15.925 27.74 41.745.334 57.67z"/>
        <path fill="#FFF" fill-rule="nonzero" d="M142.514 40.738v.849a6.146 6.146 0 0 1-.053.91v.118c-.021.269-.052.532-.083.796v.123c-.035.264-.07.532-.114.796 0 .04 0 .079-.022.123a16.68 16.68 0 0 1-.15.791c-.01.04-.016.079-.022.119-.057.263-.118.532-.184.795l-.027.11c-.07.268-.14.536-.22.8a28.46 28.46 0 0 1-.281.91 20.292 20.292 0 0 1-.325.905l-.026.07c-.106.282-.22.563-.339.845a45.07 45.07 0 0 1-.373.84l-.022.048c-.128.272-.26.545-.4.813a22.708 22.708 0 0 1-.462.875l-.062.11c-.14.254-.29.51-.44.76l-.083.145c-.153.255-.312.506-.479.76l-.066.102a38.578 38.578 0 0 1-.545.804 27.83 27.83 0 0 1-.65.892c-.18.242-.37.484-.559.726l-.145.18c-.175.215-.351.44-.536.646l-.097.119c-.21.246-.44.487-.641.73-.053.06-.11.118-.163.175-.193.211-.387.44-.589.633l-.114.119c-.229.241-.466.479-.708.716l-.176.172-.642.615-.167.123-.408.365c-.167.15-.33.303-.501.44-.172.136-.282.241-.44.364l-.51.44-.44.365-.527.44-.466.36-.545.413-.488.36-.558.4c-.171.123-.343.238-.514.356l-.576.396-.532.352-.593.386-.554.343-.611.383-.99.589c-.36.206-.72.413-1.085.615l-.29.158c-.325.18-.655.356-.985.532l-.132.066c-.369.194-.742.387-1.116.572l-.29.145c-.317.158-.638.316-.963.47l-.206.097-1.152.532-.281.123-.967.44-.264.113-1.183.493-.255.1-1.002.396-.299.115-1.217.44-.198.074-1.068.374-.325.11c-.414.145-.827.28-1.244.417-.493.158-.98.312-1.477.462l-.348.105-1.138.334-.563.159-.945.259-.628.162-.88.23-.663.162-.88.21-.685.155-.88.189-.698.149-.857.176-.712.14-.857.159-1.003.18-.246.044c-.44.079-.9.15-1.354.224l-.32.048-1.143.172-.29.04c-.44.065-.91.122-1.363.184l-.303.035c-.383.049-.765.097-1.148.136l-.325.04-1.345.14c-.571.058-1.138.11-1.71.159l-.286.022-1.432.105-.594.036c-.378.026-.756.048-1.134.065l-.664.036-1.077.044-.707.026h-6.581l-.879-.026-.738-.027-.88-.04-.725-.034-.879-.053-.712-.044-.923-.07-.677-.053-.958-.088-.637-.057-1.086-.11c-.167-.022-.334-.035-.501-.053l-1.587-.189-.176-.026a76.594 76.594 0 0 1-1.402-.19l-.382-.057-1.222-.18-.59-.096-1.006-.167-.633-.097-.936-.172-.677-.131-.88-.18-.637-.133-1.028-.224-.646-.145-1.007-.237-.633-.154-1.05-.268-.563-.145c-.44-.114-.88-.233-1.288-.356l-.316-.088-.154-.044-1.174-.36-.36-.11-1.112-.33-.203-.066c-.44-.136-.84-.273-1.257-.44l-.325-.11-.99-.347-.32-.114-1.23-.44-.199-.079c-.33-.123-.655-.25-.98-.382l-.571-.233a21.451 21.451 0 0 1-.734-.303l-.572-.242-.725-.321-.558-.246-.717-.334-.55-.255-.72-.347-.523-.255-.739-.378-.483-.247-.804-.44-.396-.214c-.4-.22-.791-.44-1.183-.664-7.745-4.475-13.186-9.776-16.33-15.411a25.778 25.778 0 0 1-.913-1.794 25.178 25.178 0 0 1-1.367-3.59 22.954 22.954 0 0 1-.924-6.458l-.096 34.15c-.027 9.872 6.488 19.758 19.534 27.287.391.229.782.44 1.182.669l.396.215.804.44.484.25.738.378.523.255.721.347.55.255c.237.11.474.224.716.33l.563.25.72.317.572.242.734.303.572.233.272.11.703.272.203.08 1.23.439.321.114.99.348.324.11 1.258.417.202.066 1.094.343.36.11 1.152.338.154.044h.044l.273.075 1.288.351.562.15 1.05.268.634.154 1.006.237.647.145 1.028.225.413.087.224.044.88.18.677.132.936.167.65.12 1.007.166.589.097 1.222.18c.119 0 .237.04.36.053h.022l1.403.189h.175c.528.07 1.055.132 1.587.189.167.022.334.035.501.053l1.086.114.633.057.963.088h.061l.611.044c.308.026.62.053.932.07l.699.044.905.057.726.036.879.04.738.025.88.027H79.111c.303 0 .607 0 .906-.027h.707l1.077-.048.664-.03 1.134-.067.598-.013 1.437-.11.281-.022a112.21 112.21 0 0 0 1.71-.153h.088l1.257-.132.326-.04 1.147-.136.303-.04 1.363-.18.29-.044 1.138-.167.33-.053 1.35-.22.246-.043.69-.12.312-.06.857-.163.712-.137.857-.175.7-.15.878-.189.686-.158.88-.207.659-.162.879-.229.624-.163.95-.263.553-.154 1.156-.339.334-.1c.497-.15.985-.304 1.473-.44h.026c.409-.132.818-.268 1.222-.409l.325-.11 1.064-.378.202-.07 1.218-.44.299-.118c.338-.128.672-.26 1.002-.392l.255-.105c.396-.158.791-.321 1.182-.488l.264-.114.967-.44.281-.123 1.152-.532.207-.101c.325-.154.646-.308.962-.466l.29-.145c.374-.189.748-.378 1.117-.571l.132-.07c.33-.172.66-.352.984-.533l.29-.158 1.086-.61.805-.48.184-.114c.207-.123.409-.25.611-.378l.554-.343.593-.391.532-.348.576-.395.51-.356c.193-.132.378-.268.563-.405l.474-.373.545-.413.466-.36c.18-.142.352-.282.528-.44l.44-.36.51-.44c.14-.12.285-.238.439-.36l.501-.44.352-.317.057-.053.127-.123c.22-.202.44-.404.642-.61l.176-.172c.242-.238.479-.475.708-.717l.114-.118c.202-.211.395-.44.589-.633l.162-.176.642-.73.097-.118c.185-.216.36-.44.536-.647l.145-.18.106-.136c.154-.194.307-.391.44-.59l.096-.127c.19-.255.375-.51.554-.764l.03-.044c.176-.255.348-.51.515-.76l.066-.106c.167-.25.325-.506.479-.76l.083-.141c.132-.22.264-.44.387-.66l.057-.1.062-.115c.145-.26.286-.519.44-.783a23.139 23.139 0 0 0 .444-.901.163.163 0 0 1 0-.048c.127-.281.254-.563.373-.844s.233-.563.339-.844l.026-.07a.185.185 0 0 0 0-.044 27.193 27.193 0 0 0 .308-.862 28.46 28.46 0 0 0 .5-1.71l.027-.11c.066-.268.128-.531.185-.8 0-.035 0-.074.022-.114l.026-.127c.044-.224.084-.44.123-.668v-.124c.044-.263.08-.527.114-.79v-.124c.031-.264.058-.532.084-.795v-.12c.023-.269.041-.537.053-.803a.849.849 0 0 1 0-.106v-.268-.58l.206-34.18z"/>
        <path fill="#EBEBEB" fill-rule="nonzero" d="M142.418 58.207v.848a6.213 6.213 0 0 1-.053.914v.119c-.027.264-.053.532-.084.796v.123c-.035.263-.07.527-.114.79v.124c-.04.224-.08.44-.123.664l-.026.131c0 .04 0 .08-.022.115a26.23 26.23 0 0 1-.185.8l-.026.11a27.064 27.064 0 0 1-.532 1.797c-.088.255-.18.515-.277.774a.185.185 0 0 1 0 .044l-.027.07c-.105.282-.22.563-.338.84-.119.281-.246.563-.374.844a.163.163 0 0 0 0 .048c-.127.273-.259.54-.4.813l-.044.088a8.187 8.187 0 0 1-.44.783l-.06.11c0 .035-.036.07-.058.105-.123.22-.255.44-.387.66l-.083.14c-.154.255-.312.51-.48.76l-.065.106a38.343 38.343 0 0 1-1.1 1.57l-.096.127c-.145.198-.299.395-.44.589l-.105.132-.145.184c-.176.216-.352.44-.536.646l-.097.12-.747.755-.163.176c-.193.211-.387.44-.589.633l-.114.119c-.229.237-.466.479-.708.716l-.176.172c-.21.202-.44.408-.641.61l-.128.124-.057.052-.352.317-.5.44a6.215 6.215 0 0 1-.44.36l-.51.44-.44.36c-.176.14-.347.286-.527.44l-.466.36-.55.395-.488.356c-.184.137-.369.273-.562.405l-.51.356-.576.396-.532.347-.593.391-.554.343c-.202.127-.404.255-.611.378l-.185.114-.804.475c-.36.21-.72.413-1.086.615l-.29.159c-.325.18-.655.356-.984.531l-.132.07c-.37.194-.743.383-1.117.572l-.29.145c-.316.158-.637.312-.963.466l-.206.101-1.152.532-.281.123-.967.44-.264.114c-.391.163-.787.33-1.182.488l-.255.101c-.328.138-.662.27-1.002.396l-.3.118-1.217.44-.202.07-1.064.378-.325.11c-.404.14-.813.277-1.222.409h-.026c-.488.158-.976.312-1.473.461l-.334.102-1.156.338-.554.154-.95.264-.624.162-.879.229-.659.162-.88.207-.685.158-.879.19-.699.149-.857.176-.712.136-.857.162-.312.058-.69.123-.247.044-1.35.22-.329.052-1.138.167-.29.044-1.363.18-.303.04-1.147.136-.326.04-1.257.132h-.088l-1.71.153-.281.022-1.424.106c-.198 0-.396.026-.594.04l-1.134.065-.663.031-1.077.049h-.708l-.906.026H73.442l-.88-.026-.738-.027-.879-.04-.725-.035-.906-.057-.699-.044-.931-.07-.611-.044h-.062l-.963-.088-.633-.057-1.085-.114-.501-.053c-.532-.057-1.06-.123-1.587-.189l-.176-.022-1.402-.189h-.022l-.36-.053-1.223-.18-.589-.097-1.006-.167-.65-.118-.937-.172-.677-.132-.88-.176-.223-.043-.413-.093-1.03-.22-.645-.149a37.274 37.274 0 0 1-1.007-.237l-.633-.15-1.05-.268-.563-.15-1.288-.351-.272-.075h-.044l-.154-.044-1.152-.338-.36-.11-1.095-.343-.202-.066-1.257-.44-.325-.11-.99-.347-.32-.114-1.231-.44-.202-.079-.704-.272-.272-.11-.572-.233-.734-.303-.571-.242-.725-.303-.563-.25-.716-.33-.55-.255-.72-.348-.528-.26-.739-.373-.483-.25-.805-.44-.395-.215c-.4-.22-.791-.44-1.183-.668-12.747-7.359-19.257-16.963-19.52-26.611v4.29c-.027 9.872 6.487 19.78 19.534 27.292.39.224.782.44 1.182.664l.396.215.804.44.484.246.738.378.523.255.72.347.55.26.717.33.563.245c.237.11.479.216.72.317l.572.242c.242.105.488.206.734.303l.571.233.273.11.703.272.202.08 1.231.439.321.114.989.347.325.11c.44.145.835.286 1.257.44l.203.061 1.094.343.36.11 1.152.339.154.044h.044l.273.074c.44.123.857.242 1.287.356l.563.145 1.05.269.634.153 1.006.238.646.145 1.029.224.413.088.224.044.88.18.676.132.937.171.65.115 1.007.167.589.096 1.222.185.36.053h.022c.466.07.936.132 1.402.189l.176.026 1.587.19.501.052 1.086.11.633.057.962.088h.062l.61.048.933.07.699.045.905.052.725.035c.29 0 .585.031.88.04l.738.026.88.031h5.674l.905-.022h.708l1.077-.044.664-.035 1.134-.066.593-.035 1.438-.11h.28c.572-.048 1.14-.101 1.71-.158h.089c.417-.04.84-.084 1.257-.132l.325-.04c.383-.04.765-.088 1.147-.136l.304-.035a90.8 90.8 0 0 0 1.362-.185l.29-.04 1.139-.17.33-.049c.44-.075.879-.145 1.349-.224l.246-.044.69-.119.312-.061.857-.159.713-.14.857-.176.699-.15.879-.189.685-.153.88-.211.659-.163.879-.229.624-.162.95-.264.553-.154 1.157-.338.334-.101c.496-.15.984-.304 1.472-.44h.027c.408-.132.817-.268 1.221-.409l.326-.11 1.063-.373.203-.075 1.217-.44.3-.114 1.001-.395.255-.102 1.183-.492.263-.114.968-.44.28-.127 1.152-.532.207-.097c.325-.154.646-.312.963-.47l.29-.145c.373-.185.747-.378 1.116-.572l.132-.065c.33-.176.66-.352.985-.532l.29-.159c.365-.202.725-.408 1.086-.615.268-.158.54-.316.804-.48l.185-.109.61-.382.554-.343.594-.387.532-.352.576-.395c.171-.119.342-.233.51-.356.166-.123.377-.268.562-.405l.488-.356.545-.413.466-.36.527-.44.44-.365.51-.44c.14-.122.286-.241.44-.364.153-.123.334-.3.5-.44l.352-.312.057-.053.128-.123.642-.615.175-.171c.242-.238.48-.475.708-.717l.114-.119c.203-.21.396-.44.59-.633.052-.057.11-.114.162-.175.215-.242.44-.484.642-.73l.096-.119c.185-.215.36-.44.537-.646l.145-.18.105-.132c.154-.198.308-.396.44-.593a31.308 31.308 0 0 0 1.196-1.697l.065-.101c.167-.255.326-.506.48-.76l.083-.146c.132-.22.264-.44.387-.66l.057-.1.062-.11c.145-.264.285-.523.44-.787a.545.545 0 0 0 .043-.088c.14-.268.273-.54.4-.813v-.048c.128-.282.255-.559.374-.84a25.8 25.8 0 0 0 .338-.84l.027-.074a.132.132 0 0 0 0-.044 23.066 23.066 0 0 0 .558-1.67c0-.036.022-.066.03-.097.08-.268.15-.536.22-.805l.027-.11c.066-.263.127-.531.184-.795.005-.04.013-.08.022-.119l.027-.127c.044-.22.083-.44.123-.664v-.123c.044-.264.079-.527.114-.796v-.123c.03-.263.057-.527.084-.795v-.119c.022-.268.04-.536.052-.8a.879.879 0 0 1 0-.11v-.268-.58l.093-5.024z"/>
        <path fill="#FF3D56" fill-rule="nonzero" stroke="#4A4A4A" stroke-linecap="round" stroke-linejoin="round" stroke-width="3" d="M114.585 9.332a71.512 71.512 0 0 1 8.395 4.097c25.934 14.967 26.066 39.235.308 54.206-25.758 14.972-67.657 14.945-93.583 0C3.78 52.69 3.644 28.413 29.402 13.43a77.727 77.727 0 0 1 18.462-7.565c3.93-1.07 7.921-1.9 11.951-2.488a111.49 111.49 0 0 1 10.11-1.007 113.055 113.055 0 0 1 12.132-.013"/>
        <path fill="#FFF" fill-rule="nonzero" stroke="#4A4A4A" stroke-linecap="round" stroke-linejoin="round" stroke-width="3" d="M90.057 3.073a97.807 97.807 0 0 1 21.235 4.984"/>
        <path stroke="#FFF" stroke-linecap="round" stroke-linejoin="round" stroke-width="2" d="M111.415 11.92a64.176 64.176 0 0 1 7.701 3.772c8.251 4.77 13.653 10.55 16.203 16.638"/>
        <path fill="#FD459C" fill-rule="nonzero" d="M114.633 16.668c3.31 1.912 3.327 5.011.04 6.919-3.288 1.908-8.633 1.912-11.943 0-3.31-1.912-3.328-5.007-.04-6.919s8.633-1.92 11.943 0zM75.081 63.099c1.675.967 1.684 2.532.022 3.516a6.65 6.65 0 0 1-6.04 0c-1.674-.967-1.683-2.531 0-3.516a6.65 6.65 0 0 1 6.018 0z"/>
        <path fill="#EBEBEB" fill-rule="nonzero" d="M114.888 69.653c2.971 1.714 2.989 4.496.035 6.215-2.954 1.719-7.758 1.714-10.734 0s-2.989-4.501-.035-6.215c2.954-1.715 7.758-1.719 10.734 0z"/>
        <path fill="#FD459C" fill-rule="nonzero" d="M114.365 68.602c-2.976-1.714-7.78-1.714-10.734 0-2.76 1.609-2.928 4.145-.506 5.873a84.26 84.26 0 0 0 12.888-4.449 5.275 5.275 0 0 0-1.648-1.424zM62.004 35.116c2.154 1.244 2.163 3.258.027 4.502-2.136 1.244-5.618 1.244-7.772 0s-2.162-3.258-.026-4.502c2.136-1.243 5.618-1.243 7.771 0z"/>
        <path stroke="#FFF" stroke-linecap="round" stroke-linejoin="round" stroke-width="2" d="M90.87 38.848c-1.077-.624-1.617-1.437-1.622-2.25M90.844 34.347c2.136-1.244 5.618-1.244 7.771 0 2.154 1.244 2.163 3.257 0 4.501-1.907 1.108-4.879 1.227-7.033.356"/>
        <path fill="#FD459C" fill-rule="nonzero" d="M71.45 15.6c.836.484.84 1.266 0 1.758a3.323 3.323 0 0 1-3.02 0c-.834-.483-.839-1.266 0-1.758a3.323 3.323 0 0 1 3.02 0z"/>
        <path stroke="#FFF" stroke-linecap="round" stroke-linejoin="round" stroke-width="2" d="M59.833 4.092c1.938 1.508 1.732 3.64-.615 5.007-2.58 1.503-6.787 1.503-9.385 0-1.213-.699-1.864-1.604-1.952-2.519M106.65 51.446c-.839-.483-.843-1.266 0-1.758a3.332 3.332 0 0 1 3.025 0c.835.483.84 1.266 0 1.758a3.314 3.314 0 0 1-2.233.29"/>
        <path fill="#FFF" fill-rule="nonzero" stroke="#4A4A4A" stroke-linecap="round" stroke-linejoin="round" stroke-width="3" d="M3.266 111.538c-.84-.483-.844-1.265 0-1.758a3.332 3.332 0 0 1 3.024 0c.835.484.84 1.266 0 1.758a3.314 3.314 0 0 1-2.233.29"/>
        <path fill="#FD459C" fill-rule="nonzero" d="M36.615 58.571c.836.484.84 1.266 0 1.759a3.323 3.323 0 0 1-3.02 0c-.835-.484-.839-1.266 0-1.759a3.323 3.323 0 0 1 3.02 0z"/>
        <path fill="#EBEBEB" fill-rule="nonzero" d="M33.886 117.02c.84.479.844 1.266 0 1.758-.95.479-2.07.479-3.02 0-.835-.483-.84-1.27 0-1.758a3.323 3.323 0 0 1 3.02 0z"/>
        <path fill="#FD459C" fill-rule="nonzero" d="M37.38 21.191c2.453 1.411 2.466 3.706.031 5.121-2.435 1.415-6.396 1.415-8.844 0-2.448-1.415-2.466-3.71-.03-5.12 2.434-1.412 6.395-1.416 8.843 0z"/>
        <path stroke="#FFF" stroke-linecap="round" stroke-linejoin="round" stroke-width="2" d="M24.281 43.947a4.598 4.598 0 0 1-2.91.035M20.563 43.64c-1.227-.708-1.236-1.855 0-2.563a4.897 4.897 0 0 1 4.422 0c1.059.615 1.208 1.552.44 2.255"/>
        <path fill="#FFF" fill-rule="nonzero" stroke="#4A4A4A" stroke-linecap="round" stroke-linejoin="round" stroke-width="3" d="M156.88 55.424a4.598 4.598 0 0 1-2.91.035M153.16 55.116c-1.226-.707-1.235-1.854 0-2.558a4.87 4.87 0 0 1 4.422 0c1.06.611 1.21 1.547.44 2.25"/>
        <path stroke="#4A4A4A" stroke-width="3" d="M142.514 40.738v.849a6.146 6.146 0 0 1-.053.91v.118c-.021.269-.052.532-.083.796v.123c-.035.264-.07.532-.114.796 0 .04 0 .079-.022.123a16.68 16.68 0 0 1-.15.791c-.01.04-.016.079-.022.119-.057.263-.118.532-.184.795l-.027.11c-.07.268-.14.536-.22.8a28.46 28.46 0 0 1-.281.91 20.292 20.292 0 0 1-.325.905l-.026.07c-.106.282-.22.563-.339.845a45.07 45.07 0 0 1-.373.84l-.022.048c-.128.272-.26.545-.4.813a22.708 22.708 0 0 1-.462.875l-.062.11c-.14.254-.29.51-.44.76l-.083.145c-.153.255-.312.506-.479.76l-.066.102a38.578 38.578 0 0 1-.545.804 27.83 27.83 0 0 1-.65.892c-.18.242-.37.484-.559.726l-.145.18c-.175.215-.351.44-.536.646l-.097.119c-.21.246-.44.487-.641.73-.053.06-.11.118-.163.175-.193.211-.387.44-.589.633l-.114.119c-.229.241-.466.479-.708.716l-.176.172-.642.615-.167.123-.408.365c-.167.15-.33.303-.501.44-.172.136-.282.241-.44.364l-.51.44-.44.365-.527.44-.466.36-.545.413-.488.36-.558.4c-.171.123-.343.238-.514.356l-.576.396-.532.352-.593.386-.554.343-.611.383-.99.589c-.36.206-.72.413-1.085.615l-.29.158c-.325.18-.655.356-.985.532l-.132.066c-.369.194-.742.387-1.116.572l-.29.145c-.317.158-.638.316-.963.47l-.206.097-1.152.532-.281.123-.967.44-.264.113-1.183.493-.255.1-1.002.396-.299.115-1.217.44-.198.074-1.068.374-.325.11c-.414.145-.827.28-1.244.417-.493.158-.98.312-1.477.462l-.348.105-1.138.334-.563.159-.945.259-.628.162-.88.23-.663.162-.88.21-.685.155-.88.189-.698.149-.857.176-.712.14-.857.159-1.003.18-.246.044c-.44.079-.9.15-1.354.224l-.32.048-1.143.172-.29.04c-.44.065-.91.122-1.363.184l-.303.035c-.383.049-.765.097-1.148.136l-.325.04-1.345.14c-.571.058-1.138.11-1.71.159l-.286.022-1.432.105-.594.036c-.378.026-.756.048-1.134.065l-.664.036-1.077.044-.707.026h-6.581l-.879-.026-.738-.027-.88-.04-.725-.034-.879-.053-.712-.044-.923-.07-.677-.053-.958-.088-.637-.057-1.086-.11c-.167-.022-.334-.035-.501-.053l-1.587-.189-.176-.026a76.594 76.594 0 0 1-1.402-.19l-.382-.057-1.222-.18-.59-.096-1.006-.167-.633-.097-.936-.172-.677-.131-.88-.18-.637-.133-1.028-.224-.646-.145-1.007-.237-.633-.154-1.05-.268-.563-.145c-.44-.114-.88-.233-1.288-.356l-.316-.088-.154-.044-1.174-.36-.36-.11-1.112-.33-.203-.066c-.44-.136-.84-.273-1.257-.44l-.325-.11-.99-.347-.32-.114-1.23-.44-.199-.079c-.33-.123-.655-.25-.98-.382l-.571-.233a21.451 21.451 0 0 1-.734-.303l-.572-.242-.725-.321-.558-.246-.717-.334-.55-.255-.72-.347-.523-.255-.739-.378-.483-.247-.804-.44-.396-.214c-.4-.22-.791-.44-1.183-.664-7.745-4.475-13.186-9.776-16.33-15.411a25.778 25.778 0 0 1-.913-1.794 25.178 25.178 0 0 1-1.367-3.59 22.954 22.954 0 0 1-.924-6.458l-.096 34.15c-.027 9.872 6.488 19.758 19.534 27.287.391.229.782.44 1.182.669l.396.215.804.44.484.25.738.378.523.255.721.347.55.255c.237.11.474.224.716.33l.563.25.72.317.572.242.734.303.572.233.272.11.703.272.203.08 1.23.439.321.114.99.348.324.11 1.258.417.202.066 1.094.343.36.11 1.152.338.154.044h.044l.273.075 1.288.351.562.15 1.05.268.634.154 1.006.237.647.145 1.028.225.413.087.224.044.88.18.677.132.936.167.65.12 1.007.166.589.097 1.222.18c.119 0 .237.04.36.053h.022l1.403.189h.175c.528.07 1.055.132 1.587.189.167.022.334.035.501.053l1.086.114.633.057.963.088h.061l.611.044c.308.026.62.053.932.07l.699.044.905.057.726.036.879.04.738.025.88.027H79.111c.303 0 .607 0 .906-.027h.707l1.077-.048.664-.03 1.134-.067.598-.013 1.437-.11.281-.022a112.21 112.21 0 0 0 1.71-.153h.088l1.257-.132.326-.04 1.147-.136.303-.04 1.363-.18.29-.044 1.138-.167.33-.053 1.35-.22.246-.043.69-.12.312-.06.857-.163.712-.137.857-.175.7-.15.878-.189.686-.158.88-.207.659-.162.879-.229.624-.163.95-.263.553-.154 1.156-.339.334-.1c.497-.15.985-.304 1.473-.44h.026c.409-.132.818-.268 1.222-.409l.325-.11 1.064-.378.202-.07 1.218-.44.299-.118c.338-.128.672-.26 1.002-.392l.255-.105c.396-.158.791-.321 1.182-.488l.264-.114.967-.44.281-.123 1.152-.532.207-.101c.325-.154.646-.308.962-.466l.29-.145c.374-.189.748-.378 1.117-.571l.132-.07c.33-.172.66-.352.984-.533l.29-.158 1.086-.61.805-.48.184-.114c.207-.123.409-.25.611-.378l.554-.343.593-.391.532-.348.576-.395.51-.356c.193-.132.378-.268.563-.405l.474-.373.545-.413.466-.36c.18-.142.352-.282.528-.44l.44-.36.51-.44c.14-.12.285-.238.439-.36l.501-.44.352-.317.057-.053.127-.123c.22-.202.44-.404.642-.61l.176-.172c.242-.238.479-.475.708-.717l.114-.118c.202-.211.395-.44.589-.633l.162-.176.642-.73.097-.118c.185-.216.36-.44.536-.647l.145-.18.106-.136c.154-.194.307-.391.44-.59l.096-.127c.19-.255.375-.51.554-.764l.03-.044c.176-.255.348-.51.515-.76l.066-.106c.167-.25.325-.506.479-.76l.083-.141c.132-.22.264-.44.387-.66l.057-.1.062-.115c.145-.26.286-.519.44-.783a23.139 23.139 0 0 0 .444-.901.163.163 0 0 1 0-.048c.127-.281.254-.563.373-.844s.233-.563.339-.844l.026-.07a.185.185 0 0 0 0-.044 27.193 27.193 0 0 0 .308-.862 28.46 28.46 0 0 0 .5-1.71l.027-.11c.066-.268.128-.531.185-.8 0-.035 0-.074.022-.114l.026-.127c.044-.224.084-.44.123-.668v-.124c.044-.263.08-.527.114-.79v-.124c.031-.264.058-.532.084-.795v-.12c.023-.269.041-.537.053-.803a.849.849 0 0 1 0-.106v-.268-.58l.206-34.18z"/>
        <path fill="#FF3D56" fill-rule="nonzero" stroke="#4A4A4A" stroke-linecap="round" stroke-linejoin="round" stroke-width="3" d="M44.281 74.03a99.97 99.97 0 0 0 18.07 3.957 114.084 114.084 0 0 0 24.831.391c2.743-.255 5.464-.615 8.141-1.073 10.246-1.758 19.895-4.97 27.965-9.67 12.37-7.191 18.77-16.527 19.204-25.934-.44 17.24-2.496 19.05-3.494 19.921-3.719 3.244-9.56 3.393-12.128 8.32-6.883 13.188-6.883 13.188-10.55 15.144-3.542 1.881-7.225-.638-10.8.343-3.428.94-6.131 3.516-9.639 4.285a16.07 16.07 0 0 1-1.6.202c-.571.058-2.589.075-4.589-2.14-7.837-8.673-8.51 2.562-8.536 3.042-.15 2.967 2.699 5.683.725 8.79-1.732 2.735-6.21 1.473-6.9.946-6.506-4.976 4.496-12.585-2.251-17.227-.07-.048-7.003-4.356-6.928 1.385.075 5.74-7.648 4.163-7.723 4.14-3.697-1.019-5.714-4.496-9.02-6.118a6.778 6.778 0 0 0-1.072-.294c-4.633-1.236-4.835 5.934-9.376 4.91-5.938-1.346-5.714-9.67-12.004-10.612-2.506 3.627-1.526 8.317-2.69 12.352a2.444 2.444 0 0 1-4.554.365c-3.829-8.057-.954-17.332-3.077-25.706-.778-2.241-1.029-2.452-1.697-3.01-1.152 1.059-1.319 2.808-2.668 3.736-.08-.132-.08-.132-1.758-16.515l.022-7.608"/>
        <path stroke="#4A4A4A" stroke-linecap="round" stroke-linejoin="round" stroke-width="3" d="M18.123 58.677a49.67 49.67 0 0 0 11.57 8.976 71.57 71.57 0 0 0 8.716 4.237M10.171 40.36c0 4.937 1.61 9.877 4.866 14.506"/>
        <path fill="#FD459C" fill-rule="nonzero" d="M140.629 33.385c-1.832-.102-3.656.3-5.275 1.16-2.686 1.556-2.668 4.084.03 5.644 1.759 1.011 4.203 1.363 6.44 1.064a28.857 28.857 0 0 0-1.195-7.868z"/>
        <path stroke="#FFF" stroke-linecap="round" stroke-linejoin="round" stroke-width="2" d="M77.305 89.178a18.022 18.022 0 0 0-2.197 7.473M101.565 84.334a10.519 10.519 0 0 1 6.343-1.525c1.059.083 2.197.316 3.134-.207M100.022 85.13a7.591 7.591 0 0 1-3.767 1.556"/>
        <path stroke="#4A4A4A" stroke-linecap="round" stroke-linejoin="round" stroke-width="3" d="M139.864 54.097c-.29 1.63-1.446 2.958-2.554 4.189l-1.613 1.793"/>
        <path stroke="#FFF" stroke-linecap="round" stroke-linejoin="round" stroke-width="2" d="M33.262 77.815c.808.816 1.49 1.748 2.022 2.765.174.471.397.924.663 1.35.418.475.934.854 1.512 1.112M19.468 75.912a19.16 19.16 0 0 0 1.758 10.747M33.288 15.692a64.844 64.844 0 0 1 8.075-3.956"/>
    </g>
</svg>
