<svg xmlns="http://www.w3.org/2000/svg" width="513" height="731" viewBox="0 0 513 731">
    <g fill="none" fill-rule="evenodd">
        <path fill="#4A4A4A" fill-rule="nonzero" d="M277.912 374.416l-36.39-14.548a.982.982 0 0 0-.733 1.819l36.396 14.548a2.99 2.99 0 0 1 1.641 3.83l-16.015 40.081a2.914 2.914 0 0 1-3.826 1.667l-44.587-17.852a3.928 3.928 0 0 1-.09-7.258 3.92 3.92 0 0 1 4.286.8 3.931 3.931 0 0 1 .902 4.27.98.98 0 1 0 1.816.727l17.48-43.73a5.888 5.888 0 0 0-3.384-7.347 5.876 5.876 0 0 0-7.514 2.977l-17.474 43.724a5.894 5.894 0 0 0 3.275 7.65l44.563 17.858a4.839 4.839 0 0 0 6.37-2.734l16.015-40.08a4.915 4.915 0 0 0-2.731-6.402zm-48.22-19.283a3.915 3.915 0 1 1 6.81-1.077 3.926 3.926 0 0 1 .456 3.993l-15.846 39.663a5.846 5.846 0 0 0-7.265-2.916l15.845-39.663z"/>
        <path fill="#4A4A4A" fill-rule="nonzero" d="M248.065 409.796a.98.98 0 0 0-1.004.102.97.97 0 0 0 .274 1.698l10.855 4.334a.975.975 0 0 0 1.266-.54l14.473-36.078a.968.968 0 0 0-.543-1.267L240.81 365.07a.978.978 0 0 0-1.266.54l-14.473 36.078a.968.968 0 0 0 .543 1.266l18.09 7.203a.985.985 0 0 0 1.273-.54c1.663-4.131 6.175-6.363 10.487-5.186l-1.81 4.465a.971.971 0 0 0 .57 1.196.979.979 0 0 0 1.24-.475l2.171-5.402a.962.962 0 0 0-.543-1.26c-5.151-2.043-11.019.151-13.544 5.065l-16.336-6.524 5.801-14.405 17.217 6.854a.985.985 0 0 0 1.272-.54l1.447-3.601a.969.969 0 0 0-.095-1.01.98.98 0 0 0-1.714.29l-1.091 2.7-16.312-6.493 7.236-18.006 16.282 6.494-2.533 6.314a.969.969 0 0 0 .096 1.009.98.98 0 0 0 1.713-.289l2.54-6.314 12.663 5.054-7.236 18.036-4.53-1.801a.98.98 0 0 0-1.013.095.97.97 0 0 0 .29 1.706l4.529 1.8-5.801 14.405-9.963-3.967.055-.03zM146.842 492.733l-6.335 1.331a1.615 1.615 0 0 0-1.257 1.913l6.335 30.16-3.167.666-7.677-36.511a1.626 1.626 0 0 0-1.921-1.258l-9.503 1.998a1.627 1.627 0 0 0-1.257 1.923l7.634 36.51-3.168.666-5.649-26.99a1.617 1.617 0 0 0-1.91-1.257l-9.504 1.998a1.605 1.605 0 0 0-1.246 1.912l5.639 26.99-3.168.666-3.653-17.458a1.626 1.626 0 0 0-1.922-1.258l-9.503 1.987a1.638 1.638 0 0 0-1.257 1.923l3.654 17.458-3.168.666-1.658-7.936a1.617 1.617 0 0 0-1.91-1.258l-9.504 1.997a1.616 1.616 0 0 0-1.246 1.924l1.658 7.936-12.67 2.652L62.2 507.21a1.617 1.617 0 1 0-3.167.656l7.307 34.872-4.763 1.057a1.619 1.619 0 0 0 .666 3.17l22.173-4.65a1.638 1.638 0 0 0 1.257-1.923l-1.668-7.936 6.335-1.331 1.658 7.936a1.626 1.626 0 0 0 1.922 1.257l6.335-1.331a1.615 1.615 0 0 0 1.256-1.913l-3.727-17.51 6.335-1.321 3.654 17.457a1.617 1.617 0 0 0 1.911 1.258l6.335-1.332a1.627 1.627 0 0 0 1.257-1.923l-5.65-26.979 6.336-1.331 5.65 26.99a1.606 1.606 0 0 0 1.91 1.246l6.336-1.32a1.638 1.638 0 0 0 1.256-1.924l-7.634-36.51 6.336-1.332 7.634 36.51a1.626 1.626 0 0 0 1.921 1.258l6.336-1.332a1.605 1.605 0 0 0 1.256-1.912l-6.335-30.16 4.762-1.057a1.62 1.62 0 0 0-.665-3.17l.116.053z"/>
        <path fill="#4A4A4A" fill-rule="nonzero" d="M136.74 446.027l-30.282 6.322c-.568.119-1.03.53-1.21 1.078-.181.548-.054 1.15.334 1.58.387.43.976.622 1.544.503l28.638-5.964 7.202 34.173-52.587-34.162a1.664 1.664 0 0 0-1.23-.232 1.623 1.623 0 0 0-1.061.706l-34.376 52.233-7.127-34.204 17.532-3.646c.423-.088.792-.34 1.027-.7.235-.36.316-.798.225-1.218l-1.326-6.322a1.612 1.612 0 0 0-.705-1.02 1.632 1.632 0 0 0-1.225-.223l-1.591.326-.669-3.16 9.546-1.992.668 3.16-1.59.338a1.623 1.623 0 0 0-1.263 1.918l1.337 6.322c.086.42.338.787.698 1.023.36.235.8.318 1.221.231l4.784-.99a1.632 1.632 0 0 0 1.356-1.058c.213-.58.075-1.23-.354-1.677a1.64 1.64 0 0 0-1.67-.427l-3.182.664-.668-3.16 1.59-.338a1.623 1.623 0 0 0 1.03-.694c.237-.357.32-.794.233-1.213l-1.337-6.323a1.633 1.633 0 0 0-1.93-1.254l-12.728 2.656a1.623 1.623 0 0 0-1.03.693c-.236.358-.32.795-.232 1.214l1.336 6.322c.087.42.338.788.699 1.023.36.235.8.318 1.221.231l1.602-.337.657 3.161-17.521 3.646a1.602 1.602 0 0 0-1.294 1.907l8.347 39.578c.14.638.65 1.13 1.294 1.254a1.649 1.649 0 0 0 1.654-.706l35.638-54.161 54.517 35.416c.36.235.799.319 1.22.231a1.81 1.81 0 0 0 .594-.242c.541-.37.805-1.027.668-1.665l-8.336-39.578a1.633 1.633 0 0 0-1.888-1.243z"/>
        <path fill="#4A4A4A" fill-rule="nonzero" d="M101.861 472.166a6.5 6.5 0 1 0-12.721 2.67 6.5 6.5 0 0 0 12.721-2.67zm-9.542 2.003a3.254 3.254 0 1 1 3.849 2.513 3.266 3.266 0 0 1-3.86-2.513h.011zM91.036 499.256l2.685 12.61a1.65 1.65 0 0 0 1.91 1.1 1.622 1.622 0 0 0 1.3-1.762l-2.354-11.044 12.836-2.648.343 1.587c.186.87 1.055 1.428 1.941 1.245a1.611 1.611 0 0 0 1.268-1.907l-.674-3.153a1.607 1.607 0 0 0-.704-1.02 1.66 1.66 0 0 0-1.232-.23l-16.046 3.31a1.638 1.638 0 0 0-1.042.695c-.24.36-.322.798-.23 1.217zM82.02 500.03l-12.722 2.602c-.424.084-.797.33-1.034.683-.237.353-.319.784-.228 1.197l3.669 17.06-1.601.32c-.802.245-1.282 1.043-1.11 1.844.174.801.942 1.344 1.778 1.254l19.084-3.893c.802-.245 1.282-1.043 1.109-1.844-.173-.801-.942-1.344-1.777-1.254l-1.59.33-3.669-17.07c-.186-.848-1.034-1.395-1.908-1.23zm2.408 18.94l-9.543 1.951-1.336-6.196 9.543-1.941 1.336 6.186zm-1.994-9.295l-9.542 1.952-1.325-6.196 9.542-1.952 1.325 6.196z"/>
        <g fill="#4A4A4A" fill-rule="nonzero" opacity=".6">
            <path d="M431.696 328.798a75.654 75.654 0 0 0 2.63 4.384c4.625 7.151 9.535 10.05 13.132 7.755 4.54-2.899 2.267-9.06.213-12.236a1.71 1.71 0 0 0-1.536-.908 1.708 1.708 0 0 0-1.51.951 1.689 1.689 0 0 0 .172 1.769c.036.054 3.567 5.786.82 7.543-1.665 1.063-5.208-1.77-8.416-6.734-10.762-16.645-6.113-22.298-5.961-22.467a1.69 1.69 0 0 0 .015-2.401 1.715 1.715 0 0 0-2.415-.015 7.048 7.048 0 0 0-1.683 3.02 3.422 3.422 0 0 1-.39-.791 3.384 3.384 0 0 1 1.406-3.89c1.3-.83 3-.69 4.143.343a3.38 3.38 0 0 1 .74 4.066c-.429.836-.097 1.86.742 2.289.54.28 1.192.248 1.702-.085.257-.156.467-.38.607-.646 1.742-3.305.483-7.387-2.823-9.154-3.306-1.767-7.427-.559-9.24 2.708-1.812 3.267-.641 7.376 2.626 9.212.055 2.779.82 6.487 3.039 11.306-7.968-2.548-12.83-10.54-11.4-18.737 1.432-8.197 8.718-14.094 17.084-13.826 8.365.267 15.255 6.618 16.152 14.89.897 8.27-4.472 15.935-12.588 17.97-.62.122-1.12.574-1.302 1.174a1.69 1.69 0 0 0 .432 1.695 1.715 1.715 0 0 0 1.709.416c8.622-2.174 14.85-9.628 15.415-18.452.565-8.823-4.66-17.002-12.936-20.246-8.276-3.243-17.711-.81-23.357 6.022a20.273 20.273 0 0 0-1.405 23.943 20.707 20.707 0 0 0 14.183 9.132zM484.768 311.645l-24.512-5.297a1.707 1.707 0 0 0-1.98 1.31 1.697 1.697 0 0 0 1.256 2.006l23.814 5.152 3.312 5.121-5.153 3.286-.972-.211-2.388-3.69a1.72 1.72 0 0 0-2.364-.508l-1.434.912-.924-1.425a1.714 1.714 0 0 0-2.357-.508l-3.713 2.368-.984-.211-2.382-3.69a1.72 1.72 0 0 0-2.364-.508l-3.713 2.368-.231-.049a1.707 1.707 0 0 0-1.98 1.31 1.697 1.697 0 0 0 1.257 2.006l.917.2c.444.095.907.013 1.289-.23l2.874-1.812 1.823 2.857a1.72 1.72 0 0 0 1.075.742l2.358.508c.443.098.907.016 1.288-.23l2.875-1.812.923 1.432a1.714 1.714 0 0 0 2.358.507l1.44-.918 1.823 2.857c.244.378.628.646 1.07.743l2.363.507c.441.096.903.014 1.282-.23l7.189-4.59a1.691 1.691 0 0 0 .51-2.343l-4.618-7.139a1.688 1.688 0 0 0-1.027-.791zM396.263 343.377a1.714 1.714 0 0 0 2.358.507l1.434-.918 5.542 8.57-1.434.919a1.69 1.69 0 0 0-.413 2.263 1.713 1.713 0 0 0 2.236.593l1.44-.918 5.536 8.565-1.434.918c-.57.297-.923.887-.914 1.527.009.64.38 1.22.957 1.5.578.28 1.266.215 1.78-.17l1.434-.919 5.541 8.57-1.44.912a1.69 1.69 0 0 0-.412 2.263 1.713 1.713 0 0 0 2.235.594l1.44-.918 5.536 8.57-1.434.918c-.57.298-.923.888-.914 1.527.01.64.38 1.22.958 1.5.578.282 1.266.216 1.78-.17l1.433-.918 4.618 7.139a1.714 1.714 0 0 0 2.277.41c.75-.473 1.01-1.44.598-2.222l-4.619-7.139 5.749-3.672 4.612 7.139a1.71 1.71 0 0 0 1.536.908 1.708 1.708 0 0 0 1.51-.951 1.689 1.689 0 0 0-.172-1.769L441 381.366l5.748-3.666 4.619 7.139a1.714 1.714 0 0 0 2.276.41c.75-.473 1.01-1.44.598-2.222l-4.618-7.139 5.748-3.672 4.612 7.139a1.71 1.71 0 0 0 1.536.908 1.708 1.708 0 0 0 1.51-.951 1.689 1.689 0 0 0-.172-1.769l-4.618-7.139 1.44-.918a1.69 1.69 0 0 0 .413-2.263 1.713 1.713 0 0 0-2.236-.593l-1.434.918-5.542-8.565 1.434-.918c.57-.297.924-.887.914-1.527-.009-.64-.38-1.22-.957-1.5a1.716 1.716 0 0 0-1.78.17l-1.434.919-5.541-8.57a2.669 2.669 0 0 0-.003-3.366 2.709 2.709 0 0 0-3.31-.712 2.676 2.676 0 0 0-1.403 3.063l-5.748 3.666-5.536-8.564 4.308-2.754a1.69 1.69 0 0 0 .413-2.263 1.713 1.713 0 0 0-2.236-.594l-4.308 2.754-5.542-8.57.717-.46a1.69 1.69 0 0 0 .863-1.514 1.69 1.69 0 0 0-.94-1.47 1.71 1.71 0 0 0-1.746.134l-22.27 14.217a1.697 1.697 0 0 0-.51 2.253zm38.678 9.591l5.748-3.672 5.536 8.57-5.743 3.672-5.541-8.57zm7.389 11.42l5.742-3.665 5.542 8.564-5.749 3.672-5.535-8.57zm-30.778-28.76l5.742-3.672 5.542 8.57-5.748 3.666-5.536-8.564zm7.383 11.421l5.748-3.666 5.536 8.564-5.742 3.672-5.542-8.57zm7.389 11.427l5.742-3.672 5.542 8.564-5.748 3.672-5.536-8.564zm7.383 11.421l5.748-3.672 5.536 8.57-5.742 3.666-5.542-8.564zm-30.778-28.748l5.749-3.667 5.535 8.565-5.742 3.672-5.542-8.57zm7.377 11.408l5.743-3.672 5.541 8.57-5.748 3.666-5.536-8.564zm7.383 11.421l5.749-3.672 5.535 8.57-5.742 3.672-5.542-8.57zm7.39 11.427l5.742-3.672 5.541 8.564-5.748 3.672-5.536-8.564zM415.04 325.33c.57-.296.923-.887.914-1.526-.01-.64-.38-1.22-.958-1.5a1.716 1.716 0 0 0-1.78.17l-8.616 5.502c-.57.297-.923.888-.914 1.527.01.64.38 1.22.958 1.5.578.281 1.266.215 1.78-.17l8.616-5.502z"/>
            <path d="M510.253 353.288l-21.56 13.764-3.785-5.858a8.465 8.465 0 0 0 1.215-10.666c-.121-.187-12.086-18.511-19.183-13.976-7.098 4.536 4.697 22.95 4.818 23.15 2.197 3.388 6.486 4.778 10.27 3.328l3.785 5.852-11.496 7.345-21.232-32.844a1.714 1.714 0 0 0-2.277-.41 1.691 1.691 0 0 0-.597 2.222l21.268 32.843-40.227 25.693-40.622-62.812 10.045-6.414a1.691 1.691 0 0 0 .51-2.343l-2.765-4.289 12.925-8.256c.57-.297.923-.887.914-1.527-.01-.64-.38-1.22-.957-1.5a1.716 1.716 0 0 0-1.78.17l-14.407 9.175a1.697 1.697 0 0 0-.51 2.35l2.77 4.281-10.056 6.426a1.683 1.683 0 0 0-.517 2.343l41.546 64.256-1.435.918c-.58.291-.944.885-.937 1.532.006.646.381 1.233.967 1.513.586.28 1.282.205 1.793-.194l83.322-53.215a1.69 1.69 0 0 0 .413-2.263 1.713 1.713 0 0 0-2.236-.594h.018zm-35.602 4.584c-4.6-7.114-8.234-16.91-5.846-18.463 2.388-1.552 9.862 5.84 14.462 12.955a5.065 5.065 0 0 1 .27 5.104 5.125 5.125 0 0 1-4.325 2.765 5.131 5.131 0 0 1-4.561-2.36z"/>
        </g>
        <path fill="#4A4A4A" fill-rule="nonzero" d="M302.652 193.932l24.344-4.578c.436-.081.792-.378.937-.78a1.15 1.15 0 0 0-.238-1.166 1.274 1.274 0 0 0-1.174-.386l-24.344 4.607a1.237 1.237 0 0 0-1.09.748c-.179.433-.077.925.26 1.26.337.334.847.45 1.305.295zM322.023 206.973c.136.69.806 1.138 1.497 1.003l12.452-2.46a1.27 1.27 0 1 0-.486-2.492l-12.46 2.46a1.273 1.273 0 0 0-1.003 1.49zM321.542 200.945l7.597-1.475c.605-.21.962-.827.836-1.448a1.286 1.286 0 0 0-1.337-1.02l-7.596 1.475c-.7.136-1.156.806-1.017 1.496.138.69.817 1.139 1.517 1.003v-.031zM333.565 211.043l-9.426 1.727c-.47.023-.882.298-1.055.704-.173.407-.074.87.252 1.184.326.315.82.424 1.263.278l9.432-1.722c.421-.077.766-.358.905-.735.138-.378.05-.796-.233-1.097a1.257 1.257 0 0 0-1.138-.36v.02zM320.348 247.071l-12.172 2.429a1.24 1.24 0 0 0-1.09.79 1.26 1.26 0 0 0 .26 1.327c.338.353.848.475 1.306.312l12.172-2.429a1.24 1.24 0 0 0 1.09-.79 1.26 1.26 0 0 0-.26-1.327 1.232 1.232 0 0 0-1.306-.312zM330.52 245.054l-2.364.479a1.219 1.219 0 0 0-1.07.779c-.176.45-.076.962.255 1.31.33.348.832.469 1.282.308l2.393-.48a1.236 1.236 0 0 0 .96-1.453 1.22 1.22 0 0 0-1.433-.973l-.023.03zM301.33 211.297l.29-.432 1.614 8.118a1.275 1.275 0 0 0 1.498.993l12.462-2.438a1.27 1.27 0 0 0 .812-.531c.188-.277.258-.616.193-.944l-1.615-8.118.437.287c.28.19.625.258.956.189a1.25 1.25 0 1 0 .462-2.273l-10.447-6.936a1.281 1.281 0 0 0-1.763.347l-7.013 10.325a1.246 1.246 0 0 0-.086 1.255c.2.404.604.67 1.057.701.454.03.89-.181 1.143-.555v.012zm6.299-9.281l6.163 4.083a1.206 1.206 0 0 0-.043.61l1.725 8.623-3.74.731-.74-3.699a1.257 1.257 0 0 0-.801-1.104 1.28 1.28 0 0 0-1.348.264 1.246 1.246 0 0 0-.317 1.321l.734 3.7-3.741.731-1.757-8.648a1.305 1.305 0 0 0-.271-.536l4.136-6.076zM354.359 240.044l-19.363 3.625c-.67.126-1.105.745-.972 1.382.132.638.781 1.052 1.45.926l19.363-3.63a1.229 1.229 0 0 0 1.078-.745 1.134 1.134 0 0 0-.26-1.243 1.275 1.275 0 0 0-1.296-.292v-.023z"/>
        <path fill="#4A4A4A" fill-rule="nonzero" d="M294.596 193.979a6.236 6.236 0 0 0-4.915 7.311l4.837 24.448a6.245 6.245 0 0 0 7.32 4.912l39.13-7.698a6.236 6.236 0 0 0 4.915-7.311l-4.836-24.448a6.245 6.245 0 0 0-7.32-4.912l-1.21.242-.96-4.889 11.008-2.163a1.247 1.247 0 1 0-.484-2.447l-59.92 11.783-.725-3.668a3.74 3.74 0 0 0-6.187-2.19 3.74 3.74 0 0 0-1.152 3.634l13.233 67.228-3.67.719a1.247 1.247 0 1 0 .478 2.447l17.126-3.366a1.245 1.245 0 0 0-.484-2.417l-6.111 1.209-11.305-57.451a1.245 1.245 0 0 0-2.418.483l11.305 57.451-2.418.478-13.227-67.228a1.246 1.246 0 1 1 2.448-.478l.961 4.889a1.245 1.245 0 0 0 1.463.979l13.45-2.64.962 4.887-1.294.206zm2.926 1.964a1.25 1.25 0 0 0 .985-1.463l-1.209-6.115 31.792-6.247 1.209 6.108a1.251 1.251 0 0 0 1.463.985l2.448-.483a3.737 3.737 0 0 1 4.389 2.943l4.836 24.447a3.746 3.746 0 0 1-2.944 4.393l-39.136 7.692a3.742 3.742 0 0 1-4.39-2.949l-4.835-24.447a3.74 3.74 0 0 1 2.95-4.387l2.442-.477zM425.322 490.522l-19.55-15.602a4.659 4.659 0 0 0-6.325.716l-16.93 21.202-15.426-2.776a3.536 3.536 0 0 0-2.677.565 3.515 3.515 0 0 0-1.466 2.302l-1.115 6.152-5.77 31.854c-.179.93.025 1.892.566 2.67a3.535 3.535 0 0 0 2.31 1.465l49.263 8.867a3.536 3.536 0 0 0 2.678-.567 3.515 3.515 0 0 0 1.465-2.305l1.614-8.88 1.456.262a1.374 1.374 0 0 0 1.615-1.118l1.828-10.166a1.363 1.363 0 0 0-1.121-1.61l-1.456-.26 1.827-9.997a3.642 3.642 0 0 0-2.12-3.905l10.083-12.59a4.545 4.545 0 0 0-.75-6.28zm-14.482-8.011l-18.064 22.586-3.85-.692 19.288-23.953 2.626 2.059zm-9.139-5.168a1.716 1.716 0 0 1 2.352-.286l1.925 1.58-20.117 25.245-4.71-.85 20.55-25.69zm-36.085 19.956a.853.853 0 0 1 .896-.546l13.964 2.514-2.504 3.079-12.076-2.174a2.444 2.444 0 0 0-.792-.055l.512-2.818zm43.902 47.237a.774.774 0 0 1-.908.608l-49.263-8.867a.771.771 0 0 1-.61-.905l5.752-31.769a.78.78 0 0 1 .914-.607l12.934 2.326 5.483.99 10.022 1.822 19.277 3.467 1.456.268a.771.771 0 0 1 .609.905l-1.828 9.99-5.227-.941a4.196 4.196 0 0 0-3.136.671 4.171 4.171 0 0 0-1.738 2.687l-.847 4.7a4.156 4.156 0 0 0 .672 3.128 4.18 4.18 0 0 0 2.697 1.731l5.307.954-1.609 8.885.043-.043zm6.196-18.553h.085l-1.346 7.427h-.085l-8.055-1.445a1.363 1.363 0 0 1-1.121-1.615l.847-4.695a1.38 1.38 0 0 1 1.62-1.124l8.055 1.452zm8.09-30.973l-10.966 13.725-16.96-3.037 17.131-21.34 10.51 8.41a1.524 1.524 0 0 1 .286 2.217v.025z"/>
        <path fill="#4A4A4A" fill-rule="nonzero" d="M418.66 493.22l-.598-.454a3.78 3.78 0 0 0-5.143.543l-1.132 1.428a3.502 3.502 0 0 0-.754 2.69 3.388 3.388 0 0 0 1.389 2.36l.599.448c.472.36 1.024.604 1.61.713a3.876 3.876 0 0 0 3.533-1.25l1.131-1.428a3.737 3.737 0 0 0-.635-5.05zm-1.58 3.398l-1.132 1.428a.974.974 0 0 1-1.323.106l-.598-.53a1.258 1.258 0 0 1-.336-.59.632.632 0 0 1 .21-.644l1.131-1.427a1.14 1.14 0 0 1 .934-.348c.148.01.288.066.401.159l.6.448c.31.405.354.95.113 1.398z"/>
        <g fill="#4A4A4A" fill-rule="nonzero" opacity=".6">
            <path d="M150.88 148.818l-60.363-16.316c-2.898-.771-5.878.931-6.673 3.813L72.457 178.14l-6.564-1.771a1.36 1.36 0 0 0-1.669.949c-.773 2.887.936 5.855 3.829 6.647l38.05 10.274-4.247 15.712a1.36 1.36 0 0 0 1.99 1.529l8.827-5.04 5.066 8.793c.176.315.474.544.825.634.171.048.35.06.527.036.547-.067.997-.46 1.135-.99l4.247-15.683 3.93 1.064c2.9.77 5.879-.932 6.674-3.813l11.43-41.837 6.558 1.77a1.357 1.357 0 0 0 1.668-.948c.772-2.895-.95-5.867-3.852-6.648zm-6.673 3.807l-11.393 41.831-5.247-1.42-.71 2.617 4.896 1.323c-.691.678-1.691.94-2.627.689l-3.938-1.064.358-1.305-2.627-.707-4.477 16.45-4.089-7.125a1.358 1.358 0 0 0-1.856-.502l-7.159 4.085 4.477-16.45-2.626-.706-.352 1.305-38.056-10.273a2.73 2.73 0 0 1-1.918-1.922l6.213 1.674 32.784 8.853.71-2.617-31.492-8.508 11.369-41.825a2.709 2.709 0 0 1 1.272-1.64 2.727 2.727 0 0 1 2.064-.264l55.814 15.108a5.368 5.368 0 0 0-1.39 2.393zm3.331-.501a2.723 2.723 0 0 1 3.846 0c.336.334.577.751.698 1.208l-4.544-1.208z"/>
            <path d="M131.116 187.392l-.868-3.42 2.506-2.545a1.351 1.351 0 0 0 0-1.916l-.085-.072-2.743-2.278.522-3.524a1.354 1.354 0 0 0-1.146-1.535h-.104l-3.567-.247-1.65-3.155a1.404 1.404 0 0 0-1.905-.532l-3.033 1.892-3.203-1.583a1.361 1.361 0 0 0-1.863.695l-1.334 3.305-3.525.604a1.354 1.354 0 0 0-.882.546c-.21.291-.294.654-.234 1.008a.638.638 0 0 0 0 .114l.867 3.451-2.5 2.538a1.351 1.351 0 0 0 0 1.916l.086.078 2.742 2.279-.522 3.523c-.054.354.036.715.25 1.003.214.288.535.48.89.532h.11l3.56.248 1.657 3.154c.347.655 1.158.911 1.82.574l.091-.054 3.033-1.892 3.204 1.584c.338.168.732.188 1.085.054a1.38 1.38 0 0 0 .77-.761l1.336-3.306 3.518-.604a1.36 1.36 0 0 0 .887-.548 1.35 1.35 0 0 0 .236-1.012c.012-.042 0-.078-.006-.114zm-3.689-3.53l.698 2.762-2.821.472a1.364 1.364 0 0 0-1.038.827l-1.067 2.653-2.567-1.269a1.357 1.357 0 0 0-1.322.06l-2.427 1.518-1.322-2.526a1.358 1.358 0 0 0-1.11-.72l-2.858-.199.419-2.822a1.339 1.339 0 0 0-.474-1.239l-2.196-1.813 2.002-2.037c.336-.335.47-.822.352-1.28l-.691-2.762 2.82-.472a1.364 1.364 0 0 0 1.038-.828l1.068-2.653 2.566 1.27c.421.21.922.187 1.322-.061l2.427-1.523 1.323 2.526c.215.42.637.696 1.11.725l2.857.194-.418 2.822a1.35 1.35 0 0 0 .473 1.245l2.196 1.813-2.002 2.036a1.35 1.35 0 0 0-.358 1.281z"/>
            <path d="M121.342 174.514a6.816 6.816 0 0 0-7.165 2.395 6.753 6.753 0 0 0-.519 7.51 6.809 6.809 0 0 0 6.768 3.351 6.792 6.792 0 0 0 5.697-4.947c.982-3.61-1.158-7.329-4.78-8.31zm-2.851 10.46a4.06 4.06 0 0 1-2.865-4.982 4.079 4.079 0 0 1 5-2.856 4.06 4.06 0 0 1 2.87 4.98 4.063 4.063 0 0 1-1.908 2.463 4.09 4.09 0 0 1-3.097.395zM103.538 147.255l.712-2.623 20.915 5.674-.712 2.624zM88.324 151.549l.711-2.624 47.055 12.767-.712 2.623z"/>
            <path d="M85.413 151.139l.707-2.636 47.294 12.677-.707 2.636zM83.53 174.129l.712-2.623 16.99 4.61-.712 2.623z"/>
        </g>
        <path fill="#4A4A4A" fill-rule="nonzero" d="M442.131 109.012a25.05 25.05 0 0 0-4.81.675 25.445 25.445 0 0 0-9.046 4.214 24.973 24.973 0 0 0-8.379 10.694 25.355 25.355 0 0 0-1.62 5.846 24.698 24.698 0 0 0 1.978 13.993c.12.259.338.458.607.554.26.109.553.109.813 0a1.06 1.06 0 0 0 .607-.812 1.017 1.017 0 0 0-.085-.603 22.665 22.665 0 0 1-1.82-12.8 23.374 23.374 0 0 1 1.48-5.353 22.748 22.748 0 0 1 2.754-4.895c4.136-5.602 10.604-9.045 17.594-9.363a22.92 22.92 0 0 1 4.405.235c1.476.217 2.929.574 4.337 1.065a24.037 24.037 0 0 1 4.077 1.879 23.01 23.01 0 0 1 10.744 14.402 23.308 23.308 0 0 1 .37 8.809 22.943 22.943 0 0 1-1.08 4.27 22.78 22.78 0 0 1-5.872 8.959 1.32 1.32 0 0 0-.17.15 22.289 22.289 0 0 1-2.014 1.662 23.054 23.054 0 0 1-8.33 3.86c-1.454.339-2.936.54-4.429.602a23.294 23.294 0 0 1-4.434-.241 23.058 23.058 0 0 1-8.354-2.95 22.993 22.993 0 0 1-6.813-6.118 21.01 21.01 0 0 1-.461-.638 1.072 1.072 0 0 0-1.845.147c-.164.342-.132.745.085 1.057.164.235.328.47.504.698 7.388 9.946 20.975 13.066 32.014 7.352l3.137 4.215-.285.205a1.06 1.06 0 0 0-.225 1.487l16.842 22.633c1.765 2.31 5.073 2.784 7.424 1.062a5.273 5.273 0 0 0 1.166-7.354l-16.841-22.64a1.073 1.073 0 0 0-1.493-.222l-.285.21-3.136-4.214a24.952 24.952 0 0 0 3.761-4.817 25.058 25.058 0 0 0 3.246-9.032c.242-1.593.33-3.206.26-4.816-.363-8.49-5.032-16.22-12.406-20.538a25.79 25.79 0 0 0-9.179-3.222 25.304 25.304 0 0 0-4.793-.307zm39.167 70.833a3.164 3.164 0 0 1-.676 4.446 3.22 3.22 0 0 1-4.48-.671l-16.205-21.785.285-.204 4.854-3.565 16.222 21.779zm-18.619-22.652l-2.863 2.096-2.997-4.029c.497-.313.989-.644 1.468-1 .48-.354.947-.716 1.395-1.095l2.997 4.028z"/>
        <path fill="#4A4A4A" fill-rule="nonzero" d="M423.237 131.872c-1.727 11.468 6.17 22.164 17.638 23.891 11.467 1.727 22.164-6.17 23.89-17.638a20.998 20.998 0 0 0-41.528-6.253zm39.424 5.938l1.055.158-1.055-.158c-1.557 10.3-11.169 17.388-21.469 15.832-10.3-1.556-17.389-11.167-15.834-21.468 1.556-10.3 11.166-17.39 21.467-15.835 10.288 1.573 17.366 11.171 15.83 21.465l.006.006z"/>
        <path stroke="#4A4A4A" stroke-width="3" d="M393.913 597.238l3.574.59a.59.59 0 0 1 .235 1.085l-3.019 2.005a4.488 4.488 0 0 0-1.94 3.007l-.59 3.574a.59.59 0 0 1-1.079.23l-2.01-3.013a4.482 4.482 0 0 0-3.002-1.946l-3.573-.59a.59.59 0 0 1-.23-1.085l3.013-2.005a4.482 4.482 0 0 0 1.94-3.008l.59-3.573a.59.59 0 0 1 1.085-.23l2.005 3.013a4.493 4.493 0 0 0 3.001 1.946zM23.463 453.774l1.426 1.21a.309.309 0 0 1-.175.544l-1.856.103a2.315 2.315 0 0 0-1.638.829l-1.208 1.427a.302.302 0 0 1-.538-.182l-.11-1.85a2.286 2.286 0 0 0-.827-1.64l-1.427-1.209a.309.309 0 0 1 .182-.544l1.85-.103a2.29 2.29 0 0 0 1.637-.828l1.21-1.427a.308.308 0 0 1 .537.181l.109 1.85c.036.638.336 1.232.828 1.64zM376.114 301.838l6.017.991a1.004 1.004 0 0 1 .395 1.848l-5.081 3.38a7.569 7.569 0 0 0-3.27 5.057l-.998 6.022a1.004 1.004 0 0 1-1.848.388l-3.381-5.074a7.569 7.569 0 0 0-5.062-3.276l-6.017-.998a1.004 1.004 0 0 1-.395-1.848l5.081-3.38a7.544 7.544 0 0 0 3.27-5.063l.998-6.016a1.004 1.004 0 0 1 1.848-.395l3.375 5.081a7.587 7.587 0 0 0 5.068 3.283z"/>
        <circle cx="437.5" cy="438.5" r="7.5" stroke="#4A4A4A" stroke-width="3"/>
        <circle cx="316.5" cy="117.5" r="3.5" stroke="#4A4A4A" stroke-width="3"/>
        <circle cx="467.5" cy="404.5" r="4.5" stroke="#4A4A4A" stroke-width="3"/>
        <circle cx="474.5" cy="572.5" r="4.5" fill="#ECECEC" fill-rule="nonzero"/>
        <circle cx="243.5" cy="648.5" r="4.5" fill="#ECECEC" fill-rule="nonzero"/>
        <circle cx="241.5" cy="646.5" r="4.5" fill="#ECECEC" fill-rule="nonzero"/>
        <circle cx="366" cy="541" r="6" fill="#ECECEC" fill-rule="nonzero"/>
        <circle cx="414" cy="217" r="6" fill="#ECECEC" fill-rule="nonzero"/>
        <circle cx="218" cy="146" r="6" fill="#ECECEC" fill-rule="nonzero"/>
        <circle cx="347" cy="531" r="3" fill="#B7B7B7" fill-rule="nonzero"/>
        <circle cx="3" cy="528" r="3" fill="#B7B7B7" fill-rule="nonzero"/>
        <circle cx="501" cy="143" r="3" fill="#B7B7B7" fill-rule="nonzero"/>
        <circle cx="487" cy="236" r="3" fill="#ECECEC" fill-rule="nonzero"/>
        <circle cx="329" cy="92" r="3" fill="#B7B7B7" fill-rule="nonzero"/>
        <path fill="#4A4A4A" fill-rule="nonzero" d="M399.8 15.604c1.001-5.695-1.83-11.377-7.011-14.07-5.18-2.692-11.53-1.78-15.719 2.256-4.19 4.037-5.265 10.28-2.663 15.457 2.601 5.178 8.287 8.11 14.079 7.26.615-.091 1.04-.657.948-1.264a1.124 1.124 0 0 0-1.28-.936c-5.637.903-11.082-2.447-12.745-7.84-1.663-5.392.968-11.169 6.158-13.52 5.19-2.35 11.342-.553 14.4 4.208 3.057 4.762 2.079 11.02-2.29 14.65.11-3.47-.368-5.899-1.05-7.595a4.396 4.396 0 0 0-.684-6.235c-1.933-1.536-4.761-1.233-6.317.675a4.418 4.418 0 0 0 .552 6.263c.154.121.335.204.528.242.5.085.997-.17 1.213-.624a1.105 1.105 0 0 0-.286-1.32 2.203 2.203 0 0 1-.276-3.131c.378-.459.93-.743 1.527-.788a2.266 2.266 0 0 1 1.656.505c.461.38.75.927.799 1.518.025.19.025.38 0 .57a4.672 4.672 0 0 0-1.804-1.412 1.124 1.124 0 0 0-.855.004c-.273.113-.49.33-.6.602a1.104 1.104 0 0 0 .614 1.43c.13.066 4.406 2.307 2.123 15.07-.68 3.803-2.104 6.401-3.393 6.177-2.123-.37-1.442-4.718-1.43-4.76a1.117 1.117 0 0 0-.923-1.242 1.129 1.129 0 0 0-1.298.854c-.436 2.423-.24 6.73 3.258 7.34 2.78.485 5.026-2.5 6.008-7.982a53.73 53.73 0 0 0 .478-3.313c3.3-2 5.584-5.29 6.284-9.05zM403.983 45.003c.106-.628-.295-1.227-.896-1.338l-8.693-1.603c-1.997-.37-4.548.98-7.219 2.407-2.153 1.144-4.596 2.433-5.865 2.2l-6.563-1.207a5.622 5.622 0 0 0-4.277.73 1.184 1.184 0 0 0-.27 1.602c.348.52 1.035.647 1.533.283a3.726 3.726 0 0 1 2.629-.34l6.527 1.2c1.991.372 4.542-.98 7.219-2.406 2.153-1.138 4.596-2.433 5.865-2.2l8.693 1.609c.294.064.6 0 .849-.176.248-.177.417-.451.468-.76zM372.374 18.473a1.11 1.11 0 0 0-1.545-.272l-13.388 9.36c-.239.17-.402.426-.455.714l-.97 5.453a1.108 1.108 0 0 0 .904 1.284l5.454.97c.292.054.594-.012.837-.182l1.285-.903c.24-.17.405-.426.46-.715l.388-2.193 1.091.194a1.115 1.115 0 0 0 1.29-.903l.195-1.09 2.188.387c.29.05.589-.017.83-.187l1.291-.903c.24-.168.404-.426.455-.715l.387-2.187 2.194.382c.29.054.59-.012.83-.182l.504-.351a1.114 1.114 0 0 0-1.28-1.818l-.12.091-2.837-.503a1.11 1.11 0 0 0-1.285.903l-.503 2.83-.533.375-2.83-.503a1.115 1.115 0 0 0-1.291.903l-.194 1.096-1.091-.194a1.115 1.115 0 0 0-1.29.903l-.498 2.829-.54.37-3.92-.691.69-3.926 13.007-9.087a1.114 1.114 0 0 0 .29-1.539zM409.24 65.977a1.5 1.5 0 1 0 .52-2.955 1.5 1.5 0 0 0-.52 2.955z"/>
        <path fill="#4A4A4A" fill-rule="nonzero" d="M406.392 42.762l-4.34 24.18c-.326 1.82.91 3.555 2.765 3.88l6.72 1.16a1.135 1.135 0 0 0 1.318-.902 1.117 1.117 0 0 0-.92-1.293l-6.72-1.167a1.137 1.137 0 0 1-.735-.457 1.096 1.096 0 0 1-.19-.832l4.34-24.18a1.133 1.133 0 0 1 1.315-.9l6.72 1.162c.4.07.807-.075 1.068-.38.262-.305.337-.723.199-1.098a1.131 1.131 0 0 0-.87-.717l-6.72-1.168c-1.854-.316-3.62.896-3.95 2.712zM350.047 43.775a4.358 4.358 0 0 0 1.56 2.994l13.045 11.648c.102.101 3.192 2.994 11.045 4.341 6.733 1.198 17.387-2.431 17.839-2.587 0 0 2.21-.599 6.167.108a1.098 1.098 0 1 0 .385-2.162c-4.559-.802-7.118-.066-7.227-.036-.108.03-10.611 3.593-16.779 2.515-7.112-1.251-9.907-3.772-9.93-3.796l-13.094-11.72a2.218 2.218 0 0 1-.813-1.514 2.195 2.195 0 0 1 1.18-2.131 2.22 2.22 0 0 1 2.434.256l11.497 8.306c2.186 1.61 4.456 2.006 8.973 2.803 3.73.53 7.49.812 11.257.844.414.03.81-.172 1.027-.525a1.096 1.096 0 0 0 0-1.148 1.11 1.11 0 0 0-1.027-.525c-.067 0-6.68-.072-10.89-.808-4.311-.76-6.275-1.102-8.051-2.396l-11.443-8.263a4.441 4.441 0 0 0-4.856-.465 4.39 4.39 0 0 0-2.33 4.261h.03zM427.22 701.872l-4.905 1.862a11.255 11.255 0 0 0-.382-1.217 8.999 8.999 0 0 0-7.734-5.847l-15.388-40.761a1.216 1.216 0 0 0-1.669-.748l-18.125 6.868-6.86-18.166a1.216 1.216 0 0 0-1.663-.754l-32.633 12.374a1.215 1.215 0 0 0-.753 1.667l26.06 69.04-6.04 2.293a1.3 1.3 0 0 0 .916 2.433l7.26-2.78 3.642-1.375 29.01-10.993 23.8-9.047 6.405-2.434a1.3 1.3 0 0 0-.917-2.433l-.024.018zm-15.71-5.025c-.412.099-.817.222-1.214.371a8.858 8.858 0 0 0-2.489 1.454 1.26 1.26 0 0 0-1.14-.079 1.215 1.215 0 0 0-.747 1.673l.14.371a8.798 8.798 0 0 0-.845 1.606l-.109.268a8.174 8.174 0 0 0-4.728-1.217 1.339 1.339 0 0 0-.96 0 1.547 1.547 0 0 0-.358.195 7.23 7.23 0 0 0-.85.268 6.83 6.83 0 0 0-2.16 1.216l-.219.189a8.008 8.008 0 0 0-3.387-.36h-.03l-.298.037-.237.043h-.103l-.249.055h-.109l-.23.06-.165.043-.176.055-.346.122-.26.11-.17.072h-.067a7.547 7.547 0 0 0-2.768 2.117l-14.532-38.498 6.04-2.294 18.131-6.874 14.66 38.845-.025.152zm-71.524-39.435l30.21-11.456 6.405 16.955-6.07 2.294a1.215 1.215 0 0 0-.753 1.667L384 704.542a9.41 9.41 0 0 0-2.695-.753H380.965a8.843 8.843 0 0 0-3.083.255h-.043l-.352.103h-.097l-.395.134a8.763 8.763 0 0 0-4.249 3.425l-.145-.377a1.297 1.297 0 1 0-2.428.913l.916 2.433c.06.173.153.332.273.469a9.268 9.268 0 0 0 .055 3.699 8.82 8.82 0 0 0-3.217 2.835l-.122-.323a1.297 1.297 0 1 0-2.428.919l.917 2.434c.05.132.117.257.2.37a9.097 9.097 0 0 0 .049 3.687l-1.293.493-25.604-67.828.067-.018zm32.9 59.548l.073-.03.182-.086.285-.115a1.215 1.215 0 0 0 .753-1.673 6.426 6.426 0 0 1 .13-4.965 6.404 6.404 0 0 1 3.627-3.382 6.3 6.3 0 0 1 7.891 2.963c.199.288.498.492.838.571H386.963a1.072 1.072 0 0 0 .443-.054 1.27 1.27 0 0 0 .777-.882l.072-.17a5.197 5.197 0 0 1 3.139-3.402 5.046 5.046 0 0 1 2.61-.243 7.864 7.864 0 0 0-.455 5.92c.036.127.079.249.127.377.313.824.762 1.589 1.33 2.263l-25.671 9.734a6.525 6.525 0 0 1 3.55-6.826zm24.972-3.96a5.53 5.53 0 0 1-1.687-2.264 5.036 5.036 0 0 1 .14-3.973 4.68 4.68 0 0 1 .382-.65 1.33 1.33 0 0 0 .504-.335 5.076 5.076 0 0 1 7.727 0c.343.385.89.512 1.366.316a.85.85 0 0 0 .328-.243c.3-.201.482-.538.485-.9a5.958 5.958 0 0 1 1.184-3.134c.166-.117.298-.277.382-.462a6.573 6.573 0 0 1 2.513-1.685 6.379 6.379 0 0 1 4.953.125 6.4 6.4 0 0 1 3.376 3.635c.174.4.289.825.34 1.259l-21.993 8.335v-.025z"/>
        <path fill="#4A4A4A" fill-rule="nonzero" d="M380.974 675.113c-.378.1-.689.34-.852.655a1.069 1.069 0 0 0 0 .993l1.037 2.407c.286.664 1.133 1 1.891.749.759-.251 1.141-.993.855-1.658l-1.037-2.406a1.27 1.27 0 0 0-.754-.749 1.55 1.55 0 0 0-1.14.01zM389.97 696.112a1.332 1.332 0 0 0-.85.657c-.161.316-.16.677.004.991l1.031 2.406c.185.43.617.741 1.135.817.518.075 1.042-.097 1.375-.452a1.16 1.16 0 0 0 .241-1.267l-1.038-2.406c-.115-.335-.39-.61-.754-.752a1.556 1.556 0 0 0-1.144.006zM383.974 682.113c-.378.1-.689.34-.852.655a1.069 1.069 0 0 0 0 .994l1.037 2.406c.186.43.618.74 1.136.815.517.074 1.04-.099 1.373-.454.332-.356.423-.84.237-1.27l-1.036-2.406a1.27 1.27 0 0 0-.755-.749 1.55 1.55 0 0 0-1.14.01zM386.976 689.11c-.38.101-.69.34-.854.656a1.068 1.068 0 0 0 0 .994l1.032 2.407c.287.665 1.135 1 1.895.75.76-.251 1.143-.994.856-1.658l-1.038-2.408a1.272 1.272 0 0 0-.754-.746 1.555 1.555 0 0 0-1.137.006zM378.976 667.112c-.38.1-.692.34-.855.657-.163.317-.161.68.004.996l1.036 2.404c.185.43.618.74 1.135.814.517.074 1.04-.099 1.372-.454a1.16 1.16 0 0 0 .237-1.268l-1.035-2.404a1.268 1.268 0 0 0-.753-.751 1.55 1.55 0 0 0-1.141.006zM391.03 676.885c.378-.102.687-.34.85-.656.161-.315.16-.676-.004-.991l-1.031-2.405c-.185-.43-.617-.74-1.135-.816-.518-.075-1.042.097-1.375.451-.334.355-.426.837-.241 1.267l1.031 2.405c.114.336.39.612.757.755.366.143.785.14 1.148-.01zM388.029 669.885c.379-.101.69-.341.851-.658.162-.316.16-.679-.006-.993l-1.03-2.403c-.287-.664-1.135-.998-1.894-.748-.758.25-1.141.991-.855 1.655l1.03 2.403c.115.335.39.611.756.754.366.143.785.14 1.148-.01zM393.024 683.89c.38-.101.69-.34.854-.656a1.068 1.068 0 0 0 0-.994l-1.032-2.408c-.186-.43-.62-.74-1.138-.815-.518-.074-1.042.099-1.375.454-.333.356-.424.84-.238 1.27l1.038 2.408c.117.332.391.604.754.746.362.142.777.14 1.137-.006zM396.022 690.89c.38-.1.693-.34.857-.657.163-.317.161-.68-.005-.996l-1.03-2.406c-.186-.43-.619-.74-1.137-.814-.518-.074-1.042.099-1.374.454a1.16 1.16 0 0 0-.238 1.268l1.037 2.406c.115.333.389.606.751.749.363.143.778.141 1.14-.004zM399.026 698.887c.378-.1.689-.34.852-.655a1.069 1.069 0 0 0 0-.993l-1.037-2.407c-.286-.664-1.133-1-1.891-.749-.759.251-1.141.993-.855 1.658l1.037 2.406c.115.334.39.607.754.749.364.142.78.139 1.14-.01zM401.026 680.887c.378-.1.689-.34.852-.655a1.069 1.069 0 0 0 0-.994l-1.037-2.406c-.186-.43-.618-.74-1.136-.815-.517-.074-1.04.099-1.373.454-.332.356-.423.84-.237 1.27l1.036 2.406c.116.334.391.607.755.749.363.142.78.139 1.14-.01zM398.024 673.888c.38-.1.692-.34.855-.657.163-.317.161-.68-.004-.996l-1.036-2.404c-.185-.43-.618-.74-1.135-.814-.517-.074-1.04.099-1.372.454a1.16 1.16 0 0 0-.237 1.268l1.035 2.404c.115.334.39.608.753.751.363.143.78.141 1.141-.006zM406.026 695.885c.378-.1.689-.339.852-.654a1.067 1.067 0 0 0 0-.993l-1.038-2.404c-.284-.664-1.13-1-1.888-.752-.758.25-1.143.99-.858 1.653l1.03 2.405c.114.336.39.612.755.755.366.143.785.14 1.147-.01zM403.024 688.888c.38-.1.692-.34.855-.657.163-.317.161-.68-.004-.996l-1.036-2.404c-.185-.43-.618-.74-1.135-.814-.517-.074-1.04.099-1.372.454a1.16 1.16 0 0 0-.237 1.268l1.035 2.404c.115.334.39.608.753.751.363.143.78.141 1.141-.006zM395.026 666.887c.378-.1.689-.34.852-.655a1.069 1.069 0 0 0 0-.993l-1.037-2.407c-.286-.664-1.133-1-1.891-.749-.759.251-1.141.993-.855 1.658l1.037 2.406c.115.334.39.607.754.749.364.142.78.139 1.14-.01zM360.03 698.884c.378-.102.688-.34.85-.656.161-.315.16-.676-.004-.991l-1.03-2.405c-.288-.664-1.136-1-1.895-.749-.76.25-1.143.993-.856 1.657l1.031 2.405c.116.335.393.61.759.752.365.142.784.137 1.146-.013zM363.022 706.89c.38-.1.693-.34.857-.657.163-.317.161-.68-.005-.996l-1.03-2.406c-.186-.43-.619-.74-1.137-.814-.518-.074-1.042.099-1.374.454a1.16 1.16 0 0 0-.238 1.268l1.037 2.406c.115.333.389.606.751.749.363.143.778.141 1.14-.004zM366.024 713.89c.38-.1.69-.34.854-.655a1.067 1.067 0 0 0 0-.994l-1.033-2.407c-.285-.664-1.131-1.001-1.891-.752-.76.25-1.145.99-.86 1.655l1.039 2.407c.114.333.389.607.751.75.363.143.779.141 1.14-.004zM347.026 662.888c.378-.101.689-.34.852-.655a1.068 1.068 0 0 0 0-.993l-1.038-2.406c-.184-.43-.615-.741-1.132-.817-.517-.075-1.041.097-1.374.452a1.16 1.16 0 0 0-.24 1.267l1.036 2.406c.115.335.39.61.753.752.364.144.781.141 1.143-.006zM349.024 669.888c.38-.1.692-.34.855-.657.163-.317.161-.68-.004-.996l-1.036-2.404c-.185-.43-.618-.74-1.135-.814-.517-.074-1.04.099-1.372.454a1.16 1.16 0 0 0-.237 1.268l1.035 2.404c.115.334.39.608.753.751.363.143.78.141 1.141-.006zM352.026 677.888c.378-.101.689-.34.852-.655a1.068 1.068 0 0 0 0-.993l-1.038-2.406c-.284-.664-1.13-1.001-1.888-.752-.758.25-1.143.99-.858 1.654l1.037 2.406c.114.335.389.61.753.752.363.144.78.141 1.142-.006zM355.026 684.884c.378-.1.689-.339.852-.654a1.068 1.068 0 0 0 0-.993l-1.037-2.405c-.186-.43-.618-.74-1.136-.815-.517-.074-1.04.099-1.373.454a1.16 1.16 0 0 0-.237 1.269l1.03 2.405c.115.335.391.61.757.752a1.55 1.55 0 0 0 1.144-.013zM358.03 691.884c.378-.102.688-.34.85-.656.161-.315.16-.677-.004-.991l-1.031-2.405c-.185-.43-.619-.74-1.137-.815-.518-.074-1.043.099-1.375.454a1.16 1.16 0 0 0-.238 1.269l1.031 2.405c.116.335.393.61.758.752.366.142.785.137 1.147-.013zM357.03 667.884c.378-.102.688-.34.85-.656.161-.315.16-.676-.004-.991l-1.03-2.405c-.288-.664-1.136-1-1.895-.749-.76.25-1.143.993-.856 1.657l1.031 2.405c.116.335.393.61.759.752.365.142.784.137 1.146-.013zM354.03 659.885c.378-.102.687-.34.85-.656.161-.315.16-.676-.004-.991l-1.031-2.405c-.185-.43-.617-.74-1.135-.816-.518-.075-1.042.097-1.375.451-.334.355-.426.837-.241 1.267l1.031 2.405c.114.336.39.612.757.755.366.143.785.14 1.148-.01zM362.026 681.887c.378-.1.689-.34.852-.655a1.069 1.069 0 0 0 0-.993l-1.037-2.407c-.286-.664-1.133-1-1.891-.749-.759.251-1.141.993-.855 1.658l1.037 2.406c.115.334.39.607.754.749.364.142.78.139 1.14-.01zM359.024 674.89c.38-.101.69-.34.854-.656a1.068 1.068 0 0 0 0-.994l-1.032-2.408c-.186-.43-.62-.74-1.138-.815-.518-.074-1.042.099-1.375.454-.333.356-.424.84-.238 1.27l1.038 2.408c.117.332.391.604.754.746.362.142.777.14 1.137-.006zM365.06 688.873c.366-.107.664-.344.821-.654a1.07 1.07 0 0 0 .003-.974l-1.038-2.411c-.186-.431-.62-.742-1.138-.817-.518-.075-1.042.099-1.375.455a1.165 1.165 0 0 0-.238 1.272l1.038 2.412c.121.337.404.61.774.748s.792.127 1.152-.03zM368.026 696.888c.378-.101.689-.34.852-.655a1.068 1.068 0 0 0 0-.993l-1.038-2.406c-.184-.43-.615-.741-1.132-.817-.517-.075-1.041.097-1.374.452a1.16 1.16 0 0 0-.24 1.267l1.036 2.406c.115.335.39.61.753.752.364.144.781.141 1.143-.006zM370.024 703.888c.38-.1.692-.34.855-.657.163-.317.161-.68-.004-.996l-1.036-2.404c-.185-.43-.618-.74-1.135-.814-.517-.074-1.04.099-1.372.454a1.16 1.16 0 0 0-.237 1.268l1.035 2.404c.115.334.39.608.753.751.363.143.78.141 1.141-.006zM367.024 671.888c.38-.1.692-.34.855-.657.163-.317.161-.68-.004-.996l-1.036-2.404c-.185-.43-.618-.74-1.135-.814-.517-.074-1.04.099-1.372.454a1.16 1.16 0 0 0-.237 1.268l1.035 2.404c.115.334.39.608.753.751.363.143.78.141 1.141-.006zM364.026 664.887c.378-.1.689-.34.852-.655a1.069 1.069 0 0 0 0-.993l-1.037-2.407c-.286-.664-1.133-1-1.891-.749-.759.251-1.141.993-.855 1.658l1.037 2.406c.115.334.39.607.754.749.364.142.78.139 1.14-.01zM361.024 657.888c.38-.1.692-.34.855-.657.163-.317.161-.68-.004-.996l-1.036-2.404c-.286-.663-1.132-.998-1.89-.748s-1.14.992-.854 1.656l1.036 2.404c.114.334.388.608.752.751.363.143.78.141 1.141-.006zM378.029 700.885c.379-.101.69-.341.851-.658.162-.316.16-.679-.006-.994l-1.031-2.402c-.185-.43-.618-.74-1.136-.814-.518-.074-1.042.099-1.374.453a1.158 1.158 0 0 0-.238 1.268l1.03 2.402c.114.336.39.612.756.755.366.143.785.14 1.148-.01zM375.03 693.885c.378-.102.687-.34.85-.656.161-.315.16-.676-.004-.99l-1.031-2.405c-.285-.664-1.132-1-1.891-.752-.76.25-1.145.99-.86 1.653l1.031 2.405c.115.336.39.612.757.755.366.143.786.14 1.148-.01zM372.024 686.885c.38-.1.692-.34.855-.656.163-.317.161-.68-.004-.995l-1.036-2.403c-.286-.664-1.132-.998-1.89-.748s-1.14.991-.854 1.655l1.029 2.403c.114.335.39.611.755.754.365.143.783.14 1.145-.01zM369.026 678.885c.378-.1.689-.339.852-.654a1.067 1.067 0 0 0 0-.993l-1.038-2.405c-.184-.43-.615-.74-1.132-.816-.517-.075-1.041.097-1.374.451a1.16 1.16 0 0 0-.24 1.267l1.03 2.405c.113.336.39.612.755.755.366.143.784.14 1.147-.01zM371.03 661.885c.378-.102.687-.34.85-.656.161-.315.16-.676-.004-.991l-1.031-2.405c-.185-.43-.617-.74-1.135-.816-.518-.075-1.042.097-1.375.451-.334.355-.426.837-.241 1.267l1.031 2.405c.114.336.39.612.757.755.366.143.785.14 1.148-.01zM368.029 654.885c.379-.101.69-.341.851-.658.162-.316.16-.679-.006-.993l-1.03-2.403c-.287-.664-1.135-.998-1.894-.748-.758.25-1.141.991-.855 1.655l1.03 2.403c.115.335.39.611.756.754.366.143.785.14 1.148-.01z"/>
    </g>
</svg>
