<svg xmlns="http://www.w3.org/2000/svg" width="440" height="715" viewBox="0 0 440 715">
    <g fill="none" fill-rule="evenodd">
        <path fill="#4A4A4A" fill-rule="nonzero" d="M199.059 144.214a1.476 1.476 0 0 0 .996 1.826c.273.077 1.69.42 4.6 0 2.217 1.938 3.599 2.412 3.871 2.49a1.452 1.452 0 0 0 1.779-.973 1.476 1.476 0 0 0-.943-1.838s-1.215-.426-3.26-2.323a1.482 1.482 0 0 0-1.263-.374c-2.75.498-3.99.208-3.972.208a1.47 1.47 0 0 0-1.808.984zM182.382 92.062l-16.326 55.87-.29-.534a1.472 1.472 0 1 0-2.586 1.41l1.998 3.647a1.476 1.476 0 0 0 1.47.764c.194-.023.381-.083.552-.177l3.646-1.992a1.47 1.47 0 1 0-1.411-2.58l-.534.291 15.936-54.452 48.808 14.282-.534.29a1.472 1.472 0 1 0 1.411 2.585l3.646-1.998a1.488 1.488 0 0 0 .593-1.998l-1.998-3.646a1.47 1.47 0 1 0-2.579 1.411l.29.534-50.218-14.697a1.476 1.476 0 0 0-1.874.99zM204.708 149.884l-2.822-.824a1.47 1.47 0 1 0-.83 2.822l2.828.824a1.47 1.47 0 0 0 .824-2.822zM209.802 161.654a1.47 1.47 0 0 0-1.826.996c-.065.231-1.713 5.56-8.69 3.521-6.789-1.986-5.568-7.114-5.408-7.707a1.47 1.47 0 0 0-.996-1.825c-16.492-4.826-20.553 2.513-20.713 2.827a1.452 1.452 0 0 0 .593 1.957 1.476 1.476 0 0 0 1.991-.563c0-.048 2.147-3.486 10.079-2.828l-1.465 5.01a1.47 1.47 0 1 0 2.822.823l1.59-5.424c.948.172 1.938.38 3.023.664-.297 3.177 1.001 7.938 7.677 9.888 6.675 1.95 10.315-1.322 11.774-4.15a42.18 42.18 0 0 1 2.91 1.067l-1.57 5.372a1.47 1.47 0 1 0 2.821.824l1.447-4.95c7.019 3.687 6.966 7.706 6.966 7.706a1.47 1.47 0 1 0 2.928.25c.012-.327.534-8.626-15.953-13.458z"/>
        <path fill="#4A4A4A" fill-rule="nonzero" d="M240.359 98.582l-56.474-16.523a1.473 1.473 0 1 0-.824 2.828l56.45 16.516a4.47 4.47 0 0 1 2.994 5.472l-17.347 59.284a1.47 1.47 0 1 0 2.822.824l17.347-59.284a7.357 7.357 0 0 0-4.968-9.117z"/>
        <path fill="#4A4A4A" fill-rule="nonzero" d="M191.261 134.777c-.54 2.33-1.476 7.588-.166 11.768l.166.545c.984 3.225 2.632 8.62 10.049 10.79 7.416 2.17 11.708-1.488 14.293-3.67l.439-.367c3.355-2.816 5.4-7.755 6.2-10.007a4.423 4.423 0 0 0 4.038-3.166l.824-2.822 1.41.409a1.47 1.47 0 0 0 1.827-.996l1.654-5.644a1.5 1.5 0 0 0 .047-.593c0-.053-.035-.095-.041-.142a1.56 1.56 0 0 0-.13-.397 1.014 1.014 0 0 0-.125-.154 1.482 1.482 0 0 0-.231-.279 1.138 1.138 0 0 0-.208-.107 1.5 1.5 0 0 0-.302-.166c-.338-5.294-2.306-11.679-11.987-16.652l.172-.593a1.47 1.47 0 0 0-1.002-1.82l-5.644-1.654a1.464 1.464 0 0 0-1.82.996l-.166.563c-8.946-.99-15.657 3.23-19.072 7.6a1.476 1.476 0 0 0-1.85 1.014 1.328 1.328 0 0 0-.029.373l-1.547 5.294a1.464 1.464 0 0 0 .996 1.82l1.34.392-.825 2.827a4.423 4.423 0 0 0 1.69 4.838zm32.18 5.063a1.476 1.476 0 0 1-1.827 1.002 1.464 1.464 0 0 0-1.82.996c0 .065-1.998 6.675-5.661 9.752l-.45.38c-2.372 2.027-5.657 4.813-11.55 3.088-5.892-1.725-7.113-5.828-8.062-8.827l-.172-.593c-1.429-4.565.468-11.199.492-11.264a1.47 1.47 0 0 0-1.002-1.82 1.476 1.476 0 0 1-.996-1.826l.824-2.822 31.047 9.112-.824 2.822zm-31.32-18.378l5.572 1.63a1.47 1.47 0 1 0 .824-2.822l-3.96-1.185a18.218 18.218 0 0 1 15.141-5.632l-1.06 3.628a1.47 1.47 0 0 0 2.821.824l1.547-5.282.107-.362 2.822.824-.107.362-1.547 5.282a1.47 1.47 0 1 0 2.822.824l1.05-3.557c7.303 3.913 9.307 8.56 9.799 12.888l-4.032-1.186a1.47 1.47 0 1 0-.824 2.822l5.644 1.648-.824 2.822-36.62-10.683.825-2.845zM167.516 156.579l-18.348-5.372a5.88 5.88 0 1 1 7.297-3.99 1.47 1.47 0 0 0 2.822.825l19.825-67.744a8.823 8.823 0 1 0-16.937-4.95l-19.819 67.738a8.827 8.827 0 0 0 5.988 10.943l18.378 5.371a1.47 1.47 0 0 0 .824-2.821h-.03zm-2.52-80.407a5.883 5.883 0 1 1 11.294 3.302l-17.98 61.448a8.774 8.774 0 0 0-11.294-3.302l17.98-61.448zM59.62 27.09a26.316 26.316 0 1 0-47.764 14.46 7.843 7.843 0 0 1 .747 7.913l-2.312 4.844a4.34 4.34 0 0 0 1.334 5.336l-.415 2.05a3.22 3.22 0 0 0 1.778 3.558l2.858 1.363a3.231 3.231 0 0 0 3.877-.86l1.334-1.618a4.34 4.34 0 0 0 4.991-2.324l2.307-4.837A7.908 7.908 0 0 1 35 52.582c13.556-.87 24.223-11.914 24.62-25.492zM18.123 64.439c-.345.407-.92.533-1.405.308l-2.857-1.358a1.186 1.186 0 0 1-.64-1.292l.296-1.47 5.56 2.656-.954 1.156zm6.972-5.437l-7.007-3.343a1.032 1.032 0 1 0-.89 1.855l7.025 3.368-.035.065a2.27 2.27 0 0 1-3.024 1.067l-7.938-3.782a2.282 2.282 0 0 1-1.073-3.03l.036-.065 1.055.504a1.04 1.04 0 1 0 .901-1.874l-1.055-.503 1.008-2.11 12.034 5.738-1.037 2.11zm17.969-12.295l1.85.883a24.194 24.194 0 0 1-10.079 2.917 10.007 10.007 0 0 0-7.807 4.553l-12.165-5.798a9.954 9.954 0 0 0-1.358-8.893 24.377 24.377 0 0 1-4.09-9.675L39.054 44.84a1.028 1.028 0 0 0 .884-1.855L29.007 37.76l2.21-4.642 1.898-.694c.453.302.926.572 1.417.807a13.487 13.487 0 0 0 10.226.397c4.204-1.488 7.44-4.855 8.442-8.798a1.026 1.026 0 0 0-.38-1.079c-3.26-2.43-7.896-3.011-12.099-1.523a13.214 13.214 0 0 0-8.3 8.258l-1.328.468-.468-1.322a13.232 13.232 0 0 0 1.186-11.643c-1.488-4.203-4.862-7.44-8.798-8.442a1.026 1.026 0 0 0-1.079.38c-2.43 3.26-3.017 7.896-1.53 12.099a13.552 13.552 0 0 0 6.747 7.707c.492.232.999.43 1.518.593l.67 1.89-2.218 4.643-17.998-8.584A24.306 24.306 0 0 1 42.322 3.82c.492.196.966.41 1.44.634A24.247 24.247 0 0 1 47 46.351l-3.047-1.476a1.028 1.028 0 1 0-.883 1.856l-.006-.024zm.83-19.208a1.032 1.032 0 0 0-1.293-.617l-7.57 2.68a11.507 11.507 0 0 1 6.385-5.4 11.199 11.199 0 0 1 9.598.835 11.199 11.199 0 0 1-6.936 6.687c-2.71.995-5.696.929-8.36-.183l7.571-2.68c.53-.195.802-.78.61-1.31l-.005-.012zm-18.8-7.351l2.686 7.57a11.495 11.495 0 0 1-5.406-6.385 11.216 11.216 0 0 1 .836-9.598 11.193 11.193 0 0 1 6.693 6.937c.991 2.71.926 5.694-.184 8.359l-2.68-7.565a1.027 1.027 0 1 0-1.938.682h-.006z"/>
        <path fill="#4A4A4A" fill-rule="nonzero" d="M48.158 27.146a1.032 1.032 0 0 0-1.375.486l-.943 1.986a1.028 1.028 0 0 0 1.856.884l.948-1.986a1.032 1.032 0 0 0-.486-1.37zM43.825 28.148l-.042-2.46a1.032 1.032 0 0 0-2.057.035l.041 2.46c.012.392.241.744.593.914.145.067.303.1.463.094a1.02 1.02 0 0 0 1.002-1.043zM53.488 29.808a1.032 1.032 0 0 0-1.447-.178l-1.938 1.512a1.02 1.02 0 0 0-.178 1.44.984.984 0 0 0 .367.297c.351.17.768.124 1.074-.119l1.944-1.505c.448-.351.528-.998.178-1.447zM382.644 576.394c-6.302-11.946-16.374-20.157-28.361-23.162-11.987-3.006-24.745-.463-35.914 7.114a5.383 5.383 0 0 0-1.743 6.977c6.302 11.946 16.374 20.157 28.361 23.162 11.987 3.006 24.74.457 35.914-7.114a5.389 5.389 0 0 0 1.743-6.977zm-3.19 4.843c-10.558 7.167-22.575 9.568-33.844 6.758-11.27-2.81-20.75-10.576-26.678-21.863a2.84 2.84 0 0 1 .907-3.64c10.558-7.168 22.575-9.569 33.845-6.759 11.27 2.81 20.75 10.576 26.678 21.864a2.846 2.846 0 0 1-.907 3.64zM397.932 551.362l-9.331-2.324a1.289 1.289 0 1 0-.623 2.502l9.361 2.336c.047.012.076.06.065.107l-2.336 9.36a1.286 1.286 0 1 0 2.502.593l2.294-9.337a2.674 2.674 0 0 0-1.932-3.237zM326.97 533.415l-9.361-2.336a2.668 2.668 0 0 0-3.23 1.945l-2.354 9.36a1.286 1.286 0 0 0 2.501.593l2.336-9.36a.089.089 0 0 1 .107-.066l9.36 2.336a1.286 1.286 0 1 0 .593-2.502l.048.03zM312.007 592.324l-9.36-2.33a.095.095 0 0 1-.066-.112l2.336-9.355a1.292 1.292 0 0 0-2.502-.629l-2.336 9.361a2.674 2.674 0 0 0 1.945 3.237l9.355 2.33a1.292 1.292 0 1 0 .628-2.502zM386.963 600.038a1.286 1.286 0 0 0-1.56.942l-2.335 9.361a.083.083 0 0 1-.107.06l-9.36-2.33a1.289 1.289 0 0 0-.623 2.502l9.355 2.33a2.668 2.668 0 0 0 3.237-1.94l2.335-9.36a1.298 1.298 0 0 0-.942-1.565zM382.642 548.028l-16.042-3.99a1.289 1.289 0 0 0-.622 2.502l16.042 4.02a1.289 1.289 0 0 0 .622-2.502v-.03zM361.304 542.717l-2.674-.67a1.286 1.286 0 1 0-.592 2.502l2.644.7a1.289 1.289 0 0 0 .622-2.503v-.03zM382.271 553.706l-10.67-2.668a1.289 1.289 0 0 0-.623 2.502l10.67 2.668a1.289 1.289 0 0 0 .623-2.502zM336.243 598.693l-18.716-4.671a1.292 1.292 0 0 0-.629 2.501l18.722 4.672a1.289 1.289 0 1 0 .623-2.502zM323.862 590.355l-5.335-1.333a1.292 1.292 0 0 0-.629 2.501l5.336 1.334a1.289 1.289 0 1 0 .622-2.502h.006zM332.304 591.717l-2.674-.67a1.286 1.286 0 1 0-.592 2.502l2.673.67a1.286 1.286 0 0 0 .593-2.502z"/>
        <path fill="#4A4A4A" fill-rule="nonzero" d="M319.923 538.038a1.292 1.292 0 0 0-1.565.943l-1.333 5.335a1.286 1.286 0 0 0 2.501.593l1.334-5.335a1.292 1.292 0 0 0-.937-1.536zM325.254 539.038a1.292 1.292 0 0 0-1.566.943l-.663 2.674a1.286 1.286 0 0 0 2.501.592l.664-2.673a1.28 1.28 0 0 0-.936-1.536zM379.004 598.116a4.043 4.043 0 1 0-1.92 7.856 4.043 4.043 0 0 0 1.92-7.856zm-1.334 5.336a1.464 1.464 0 1 1 1.778-1.067 1.47 1.47 0 0 1-1.754 1.079l-.024-.012zM371.391 576.787l-8.175-2.04a13.689 13.689 0 0 0-26.446-6.598l-8.17-2.033a1.289 1.289 0 0 0-.622 2.502l14.91 3.717a6.8 6.8 0 0 0 12.96 3.23l4.226 1.056a11.11 11.11 0 0 1-21.253-1.541 1.287 1.287 0 0 0-2.514.557 13.689 13.689 0 0 0 26.316 1.612l8.17 2.04a1.289 1.289 0 0 0 .622-2.502h-.024zm-22.73 0a4.233 4.233 0 0 1-3.189-3.818l7.802 1.945a4.227 4.227 0 0 1-4.612 1.885v-.012zm-2.566-6.32a4.233 4.233 0 0 1 4.612-1.873c.35.083.687.213 1.002.385a1.288 1.288 0 1 0 1.227-2.264 6.812 6.812 0 0 0-9.414 3.106l-4.233-1.055a11.11 11.11 0 0 1 21.42 5.335l-14.614-3.634z"/>
        <g fill="#4A4A4A" fill-rule="nonzero" opacity=".6">
            <path d="M237.546 298.37a4.79 4.79 0 0 0-6.634-1.4 1.53 1.53 0 0 0 1.672 2.561 1.713 1.713 0 0 1 1.304-.249c.449.1.842.37 1.097.753a1.53 1.53 0 0 0 2.56-1.666zM251.216 289.465c-6.362-9.77-19.439-12.533-29.209-6.172a1.53 1.53 0 0 0 1.666 2.562 18.058 18.058 0 0 1 24.988 5.276c.22.338.566.574.96.658.397.087.812.01 1.15-.214a1.524 1.524 0 0 0 .445-2.11z"/>
            <path d="M244.375 293.917c-3.905-5.992-11.928-7.685-17.921-3.782a1.524 1.524 0 0 0-.445 2.11 1.53 1.53 0 0 0 2.11.445c4.581-2.981 10.711-1.686 13.695 2.893a1.53 1.53 0 0 0 2.561-1.666z"/>
            <path d="M241.263 264.358l-79.844-16.854a1.53 1.53 0 0 0-1.808 1.186l-12.835 60.777-1.695-.361a1.53 1.53 0 1 0-.634 2.964l60.682 12.835a1.53 1.53 0 1 0 .629-2.965l-3.296-.693 1.031-4.897a1.518 1.518 0 0 0-1.186-1.808l-7.98-1.684a1.53 1.53 0 0 0-1.813 1.186l-1.032 4.897-8.17-1.767 1.032-4.89a1.53 1.53 0 0 0-1.185-1.78l-7.986-1.689a1.53 1.53 0 0 0-1.808 1.186l-1.031 4.89-8.193-1.725 1.037-4.896a1.53 1.53 0 0 0-1.186-1.779l-7.985-1.684a1.518 1.518 0 0 0-1.808 1.186l-1.032 4.891-3.403-.717 2.07-9.788 55.993 11.821a1.53 1.53 0 1 0 .628-2.964l-55.97-11.916 1.056-4.998 14.477 3.06a1.53 1.53 0 0 0 1.778-1.186l6.07-28.741a1.535 1.535 0 0 0-1.185-1.814l-14.489-3.047 2.07-9.788 76.849 16.226-1.708 8.086a1.53 1.53 0 0 0 2.964.635l2.028-9.58a1.535 1.535 0 0 0-1.132-1.815zm-46.093 51.779l4.997 1.055-.717 3.397-4.998-1.055.718-3.397zm-19.16-4.05l4.997 1.056-.718 3.403-4.997-1.056.717-3.402zm-19.138-4.025l4.998 1.055-.723 3.397-4.992-1.055.717-3.397zm10.256-16.006l-12.977-2.745.718-3.397 12.977 2.739-.718 3.403zm5.437-25.76l-4.073 19.393-12.983-2.74 4.09-19.35 12.966 2.698z"/>
            <path d="M243.676 308.24l-22.356-4.743a6.432 6.432 0 0 0-7.612 4.962l-8.768 41.499a6.438 6.438 0 0 0 4.962 7.612l22.355 4.743a6.426 6.426 0 0 0 7.607-4.956l8.768-41.499a6.432 6.432 0 0 0-4.956-7.618zm-6.8 48.494a3.367 3.367 0 0 1-3.99 2.603l-22.356-4.743a3.38 3.38 0 0 1-2.603-3.996l.362-1.695 28.972 6.136-.385 1.695zm.99-4.683l-28.949-6.113 6.788-32.143 28.949 6.124-6.788 32.132zm7.416-35.132l-28.948-6.112.362-1.701a3.373 3.373 0 0 1 3.99-2.597l22.355 4.743a3.367 3.367 0 0 1 2.603 3.99l-.362 1.7v-.023z"/>
            <path d="M233.917 322.883l-9.58-2.027a4.793 4.793 0 0 0-1.98 9.378l9.568 1.998a4.79 4.79 0 0 0 1.992-9.349zm-10.931 4.363a1.737 1.737 0 1 1 2.057-1.34 1.737 1.737 0 0 1-2.057 1.317v.023zm9.58 2.022l-5.211-1.103c.325-.496.554-1.05.676-1.63a4.677 4.677 0 0 0 .041-1.779l5.211 1.103a1.737 1.737 0 0 1-.717 3.397v.012zM231.22 335.635l-9.58-2.028a4.793 4.793 0 0 0-1.98 9.38l9.58 2.02a4.79 4.79 0 0 0 1.98-9.372zm-5.715 5.46l-5.217-1.097a1.739 1.739 0 0 1 .717-3.403l5.217 1.103a4.69 4.69 0 0 0-.681 1.63 4.796 4.796 0 0 0-.036 1.767zm4.363.925a1.737 1.737 0 1 1 .711-3.4 1.737 1.737 0 0 1-.71 3.4zM216.21 272.415l-35.132-7.416a1.53 1.53 0 0 0-1.808 1.185l-6.07 28.74a1.53 1.53 0 0 0 1.185 1.78l35.131 7.416a1.518 1.518 0 0 0 1.808-1.186l6.071-28.747a1.53 1.53 0 0 0-1.186-1.772zm-7.565 28.456l-32.138-6.782.717-3.403 32.138 6.788-.717 3.397zm1.346-6.414l-32.138-6.788 4.09-19.368 32.144 6.788-4.096 19.368z"/>
        </g>
        <path fill="#4A4A4A" fill-rule="nonzero" d="M17.111 262.562l-2.276 2.276a1.073 1.073 0 1 0 1.518 1.518l2.276-2.277a1.073 1.073 0 0 0-1.518-1.517zM28.891 245.061a1.073 1.073 0 1 0 1.518 1.518l.314-.315v9.213c0 .593.48 1.073 1.073 1.073h7.511c.593 0 1.073-.48 1.073-1.073v-5.365h2.14v5.365c0 .593.48 1.073 1.073 1.073h7.512c.592 0 1.073-.48 1.073-1.073v-9.213l.314.315a1.073 1.073 0 1 0 1.518-1.518l-2.147-2.146-9.657-9.651a1.061 1.061 0 0 0-1.512 0l-9.657 9.65-2.146 2.147zm3.978 9.343v-10.286l8.584-8.584 8.585 8.584v10.286h-5.366v-5.365c0-.593-.48-1.073-1.073-1.073h-4.286a1.067 1.067 0 0 0-1.073 1.073v5.365H32.87z"/>
        <path fill="#4A4A4A" fill-rule="nonzero" d="M19.993 245.82a21.46 21.46 0 1 0 21.46-21.455c-11.846.01-21.447 9.609-21.46 21.455zm2.146 0a19.315 19.315 0 1 1 19.314 19.309c-10.66-.01-19.301-8.648-19.314-19.31zM4.401 275.284a5.364 5.364 0 1 0 7.582 7.588L24.7 270.156a1.073 1.073 0 1 0-1.518-1.518l-12.71 12.716a3.22 3.22 0 1 1-4.553-4.553l6.758-6.758 2.265 2.283a1.075 1.075 0 1 0 1.523-1.518l-3.03-3.041a1.073 1.073 0 0 0-1.517 0l-7.517 7.517z"/>
        <path fill="#4A4A4A" fill-rule="nonzero" d="M41.453 271.567c14.22 0 25.747-11.528 25.747-25.747 0-14.22-11.527-25.747-25.747-25.747S15.706 231.6 15.706 245.82c.017 14.213 11.534 25.73 25.747 25.747zm-23.6-25.747a23.607 23.607 0 1 1 23.6 23.6c-13.03-.012-23.59-10.57-23.606-23.6h.005z"/>
        <g fill="#4A4A4A" fill-rule="nonzero" opacity=".6">
            <path d="M177.867 466.875a1.956 1.956 0 0 0-2.656.759l-2.193 3.942-1.263-.705 1.684-3.024a1.95 1.95 0 0 0-.332-2.336l1.049-1.89a3.26 3.26 0 0 0-.172-3.44l1.595-2.863a4.879 4.879 0 0 0-1.885-6.621 4.873 4.873 0 0 0-6.616 1.885l-1.595 2.863a3.26 3.26 0 0 0-3.018 1.666l-1.049 1.891a1.95 1.95 0 0 0-2.17.949l-13.149 23.618a1.956 1.956 0 0 0 .332 2.372l-1.731 3.118-2.964 5.335-13.114 23.554a2.027 2.027 0 0 0-.26.759l-1.702 13.167a1.95 1.95 0 0 0 .984 1.95c.712.38 1.584.285 2.2-.237l9.918-8.495c.172-.151.319-.33.432-.528l4.565-8.199a1.956 1.956 0 0 0-3.414-1.903l-3.617 6.521-4.861-2.71 11.264-20.209 4.861 2.71-4.096 7.386a1.956 1.956 0 0 0 3.414 1.903l9.812-17.625a1.95 1.95 0 0 0 2.17-.948l9.568-17.193 1.257.706-15.556 27.934a1.956 1.956 0 0 0 3.414 1.903l19.653-35.291a1.956 1.956 0 0 0-.759-2.674zm-42.75 57.096l-3.948 3.38.653-5.218 3.296 1.838zm35.387-69.486a.96.96 0 0 1 1.304-.374.949.949 0 0 1 .451.593.93.93 0 0 1-.083.723l-1.429 2.567-1.672-.93 1.43-2.567v-.012zm-4.926 5.092l4.86 2.71-.699 1.256-4.86-2.703.699-1.263zm-14.661 37.77l-4.861-2.71 1.102-1.98 4.862 2.704-1.103 1.986zm-1.856-8.104l.76-1.37 4.86 2.71-.758 1.369-4.862-2.71zm18.378-18.645a.338.338 0 0 1-.047.077l-.036.083-9.533 17.11-7.363-4.103 11.264-20.21 7.363 4.103-1.648 2.94zM108.34 535.43a1.95 1.95 0 0 0-2.657.754l-2.857 5.175-69.214-38.534 46.372-83.335a1.956 1.956 0 0 0-3.415-1.903l-47.32 85.03a1.95 1.95 0 0 0 .753 2.656l72.628 40.437a1.95 1.95 0 0 0 2.656-.752l3.812-6.848a1.956 1.956 0 0 0-.759-2.68zM167.13 429.858l-72.622-40.437a1.95 1.95 0 0 0-2.667.765l-11.72 21.063a1.953 1.953 0 0 0 3.414 1.897l10.778-19.362 69.213 38.535-54.315 97.55a1.956 1.956 0 0 0 3.415 1.904l55.264-99.259a1.95 1.95 0 0 0-.76-2.656z"/>
            <path d="M149.014 434.536l-48.939-27.27a1.95 1.95 0 0 0-2.656.758l-4.31 7.707a1.956 1.956 0 0 0 .76 2.656l48.938 27.27a1.95 1.95 0 0 0 2.656-.753l4.31-7.742a1.956 1.956 0 0 0-.76-2.626zm-6.017 6.788L97.479 415.98l2.406-4.328 45.518 25.368-2.406 4.304zM126.225 438.994l-33.448-18.627a1.956 1.956 0 0 0-1.903 3.415l33.454 18.627a1.953 1.953 0 0 0 1.897-3.415zM141.728 447.62l-8.893-4.95a1.956 1.956 0 1 0-1.903 3.414l8.893 4.944a1.95 1.95 0 0 0 1.897-3.408h.006zM138.675 453.08l-33.436-18.627a1.956 1.956 0 0 0-1.903 3.415l33.454 18.626a1.953 1.953 0 0 0 1.897-3.414h-.012zM98.64 430.777l-8.892-4.944a1.956 1.956 0 1 0-1.903 3.415l8.893 4.944a1.956 1.956 0 0 0 1.903-3.415zM117.042 470.432l-19.765-11.003a1.953 1.953 0 1 0-1.897 3.415l19.76 11.003a1.956 1.956 0 1 0 1.902-3.415zM126.19 475.554l-3.883-2.158a1.956 1.956 0 0 0-1.903 3.415l3.883 2.158a1.956 1.956 0 1 0 1.903-3.415zM123.148 480.99l-19.759-11.003a1.956 1.956 0 1 0-1.903 3.415l19.76 11.003a1.956 1.956 0 1 0 1.902-3.415zM98.119 467.053l-3.907-2.17a1.953 1.953 0 1 0-1.897 3.415l3.883 2.158a1.953 1.953 0 1 0 1.897-3.415l.024.012zM107.254 488.033L87.477 477.03a1.953 1.953 0 1 0-1.897 3.415l19.76 11.003a1.956 1.956 0 0 0 1.903-3.415h.011zM116.39 493.132l-3.883-2.164a1.956 1.956 0 0 0-1.903 3.415l3.883 2.158a1.952 1.952 0 0 0 1.903-3.41zM113.349 498.592l-19.765-11.003a1.953 1.953 0 0 0-1.897 3.414l19.759 11.004a1.956 1.956 0 1 0 1.903-3.415zM88.32 484.66l-3.884-2.164a1.953 1.953 0 1 0-1.897 3.415l3.883 2.158a1.95 1.95 0 1 0 1.897-3.409zM97.443 505.635l-19.765-11.003a1.956 1.956 0 0 0-1.903 3.414L95.54 509.05a1.956 1.956 0 0 0 1.903-3.414zM106.59 510.733l-3.883-2.164a1.956 1.956 0 1 0-1.903 3.415l3.883 2.164a1.956 1.956 0 0 0 1.903-3.415zM103.55 516.193l-19.766-10.997a1.953 1.953 0 0 0-1.897 3.415l19.76 11.003a1.956 1.956 0 0 0 1.902-3.415v-.006zM78.52 502.261l-3.872-2.163a1.956 1.956 0 0 0-1.903 3.414l3.883 2.164a1.956 1.956 0 1 0 1.903-3.415h-.011zM140.856 464.723l-62.14-34.598a1.956 1.956 0 0 0-1.904 3.415l62.141 34.598a1.956 1.956 0 0 0 1.903-3.415zM93.702 453.678a1.95 1.95 0 0 0-2.413-1.34l-.913.256a1.927 1.927 0 0 0-.86-.973l-10.783-6a1.95 1.95 0 0 0-2.656.754l-6.005 10.801a1.962 1.962 0 0 0 .759 2.662l10.783 6a1.95 1.95 0 0 0 2.656-.753l4.417-7.927 3.67-1.043a1.956 1.956 0 0 0 1.345-2.437zm-19.261 3.676l4.102-7.369 7.114 3.954-4.15 1.186-.355-1.257a1.956 1.956 0 1 0-3.759 1.073l.895 3.136a1.95 1.95 0 0 0 2.413 1.346l2.692-.77-1.56 2.803-7.392-4.102zM83.903 471.286a1.95 1.95 0 0 0-2.413-1.346l-.913.279a1.903 1.903 0 0 0-.86-.973l-10.784-6.023a1.95 1.95 0 0 0-2.655.753l-6.006 10.784a1.962 1.962 0 0 0 .741 2.662l10.784 6.005a1.956 1.956 0 0 0 2.674-.759l4.41-7.926 3.676-1.043a1.956 1.956 0 0 0 1.346-2.413zm-19.268 3.675l4.085-7.375 7.114 3.96-4.15 1.186-.355-1.263a1.956 1.956 0 0 0-3.76 1.074l.896 3.136c.136.503.47.931.925 1.185a1.95 1.95 0 0 0 1.488.172l2.691-.77-1.565 2.804-7.369-4.109zM74.103 488.887a1.956 1.956 0 0 0-2.419-1.346l-.913.261a1.927 1.927 0 0 0-.865-.984l-10.772-5.994a1.95 1.95 0 0 0-2.656.753l-6.005 10.79a1.95 1.95 0 0 0 .758 2.656l10.784 6.023c.943.522 2.13.183 2.656-.759l4.41-7.926 3.676-1.043a1.956 1.956 0 0 0 1.346-2.431zm-19.267 3.67l4.102-7.37 7.114 3.96-4.15 1.187-.355-1.263a1.956 1.956 0 0 0-3.759 1.073l.854 3.136a1.956 1.956 0 0 0 2.419 1.346l2.691-.765-1.553 2.798-7.363-4.102z"/>
        </g>
        <path stroke="#4A4A4A" stroke-width="3" d="M419.027 366.577l8.24-1.25a1.37 1.37 0 0 1 1.281 2.205l-5.17 6.52a10.34 10.34 0 0 0-2.104 7.963l1.257 8.24a1.37 1.37 0 0 1-2.205 1.28l-6.522-5.163a10.327 10.327 0 0 0-7.98-2.08l-8.24 1.25a1.37 1.37 0 0 1-1.286-2.205l5.17-6.522a10.333 10.333 0 0 0 2.104-7.961l-1.257-8.276a1.37 1.37 0 0 1 2.206-1.28l6.52 5.163a10.333 10.333 0 0 0 7.986 2.116zM113.161 97.347l3.646.592a.593.593 0 0 1 .237 1.109l-3.07 2.051a4.577 4.577 0 0 0-1.98 3.065l-.593 3.64a.593.593 0 0 1-1.103.237l-2.045-3.07a4.577 4.577 0 0 0-3.065-1.987l-3.646-.592a.593.593 0 0 1-.237-1.109l3.076-2.045a4.577 4.577 0 0 0 1.98-3.065l.593-3.64a.593.593 0 0 1 1.103-.237l2.045 3.07a4.577 4.577 0 0 0 3.06 1.98zM54.62 593.264l2.526 2.697a.593.593 0 0 1-.486 1.02l-3.688-.243a4.559 4.559 0 0 0-3.432 1.22l-2.698 2.526a.593.593 0 0 1-1.02-.48l.244-3.687a4.559 4.559 0 0 0-1.222-3.433l-2.525-2.697a.593.593 0 0 1 .48-1.02l3.687.243a4.565 4.565 0 0 0 3.433-1.227l2.697-2.526a.593.593 0 0 1 1.02.487l-.243 3.687a4.565 4.565 0 0 0 1.227 3.433z"/>
        <circle cx="17.847" cy="341.735" r="7.31" stroke="#4A4A4A" stroke-width="3"/>
        <circle cx="306.652" cy="142.674" r="3.652" stroke="#4A4A4A" stroke-width="3"/>
        <circle cx="54.324" cy="386.826" r="4.594" stroke="#4A4A4A" stroke-width="3"/>
        <circle cx="80.982" cy="140.982" r="2.982" fill="#B7B7B7" fill-rule="nonzero"/>
        <circle cx="143.97" cy="386.97" r="5.97" fill="#ECECEC" fill-rule="nonzero"/>
        <circle cx="433.97" cy="612.97" r="5.97" fill="#ECECEC" fill-rule="nonzero"/>
        <circle cx="55.97" cy="126.97" r="5.97" fill="#ECECEC" fill-rule="nonzero"/>
        <circle cx="153.576" cy="229.209" r="2.982" fill="#B7B7B7" fill-rule="nonzero"/>
        <circle cx="95.982" cy="167.982" r="2.982" fill="#B7B7B7" fill-rule="nonzero"/>
        <circle cx="3.518" cy="372.533" r="2.982" fill="#B7B7B7" fill-rule="nonzero"/>
        <path fill="#4A4A4A" fill-rule="nonzero" d="M116.412 653.774l1.493-6.141-58.975-14.317.86-3.557-6.142-1.494-.866 3.557-4.914-1.186-1.488 6.142 4.914 1.185-14.649 60.333 65.123 15.805 6.243-25.717-11.495-13.096-9.746 3.83-6.913-7.873-9.746 3.83-6.907-7.873-13.825 5.43 8.057-33.198 6.415 1.559-.76 3.136-4.505-1.09-4.837 19.93 57.066 13.879 4.838-19.938-4.506-1.09.759-3.142 4.506 1.096zm-3.51-5.187l2.46.593-.498 2.051-2.46-.593.498-2.05zm-61.11-12.669l-2.869-.693.498-2.052 2.863.7-.492 2.045zm-4.808 37.663l-5.744 23.672-2.051-.498 16.006-65.935 2.051.498-10.262 42.263zm10.909 27.715l-7.506-1.814 3.741-15.414 7.511 1.82-3.746 15.408zm17.613 4.275l-7.511-1.82 3.942-16.244 7.511 1.82-3.942 16.244zm17.607 4.274l-7.505-1.82 3.746-15.414 7.506 1.82-3.747 15.414zm2.792-32.013l9.8 11.163-5.49 22.605-5.05-1.228 4.238-17.47-9.556-2.324.9-3.694 2.17 2.478 1.583-1.393-6.254-7.114 7.66-3.023zm-16.652-4.043l9.793 11.163-5.501 22.575-6.006-1.458 4.44-18.295-11.601-2.816-4.44 18.295-6.006-1.459 5.484-22.605 13.837-5.4zm-16.66-4.044l5.431 6.19-8.827 3.462.77 1.962 3.066-1.186-.896 3.7-9.556-2.324-4.245 17.477-5.05-1.228 5.489-22.604 13.819-5.449zm4.299-32.297l43.965 10.67-.498 2.046-43.96-10.671.493-2.045zm-.99 4.096l43.959 10.671-.765 3.136-43.959-10.67.765-3.137zm-7.968-4.102l.498-2.051 6.415 1.559-.498 2.045-6.415-1.553zm55.17 21.051l-3.842 15.835-52.988-12.888 3.842-15.835 52.987 12.888z"/>
        <path fill="#4A4A4A" fill-rule="nonzero" d="M94.183 682.292l1.582-1.389 4.263 4.856-1.582 1.39zM99.83 688.72l1.582-1.389 1.596 1.818-1.582 1.389zM51.086 676.498l2.252-.884.769 1.96-2.252.883zM55.295 674.843l6.015-2.36.77 1.959-6.016 2.36zM81.324 699.416l.497-2.045 2.045.496-.496 2.046zM82.32 695.32l.497-2.046 2.046.496-.497 2.046zM83.311 691.221l.497-2.046 2.045.497-.496 2.045zM65.57 686.92l.496-2.047 2.046.497-.496 2.045zM63.579 695.102l.496-2.046 2.046.497-.497 2.045zM64.574 691.017l.496-2.045 2.046.496-.497 2.046zM71.256 681.939l.497-2.046 11.332 2.75-.497 2.045zM69.91 649.862l-7.352-1.779-1.719 7.114 7.345 1.779a3.66 3.66 0 1 0 1.725-7.114zm-1.228 5.05l-5.3-1.286.73-3.005 5.3 1.286a1.547 1.547 0 0 1-.73 3.006z"/>
        <path fill="#4A4A4A" fill-rule="nonzero" d="M68.493 654.865l-7.144-1.737-1.613 6.634 2.052.498 1.108-4.577 5.099 1.24a1.779 1.779 0 0 1 1.292 2.122l-.7 2.863 2.052.498.693-2.863a3.86 3.86 0 0 0-2.84-4.678zM74.44 658.28l.496-2.045 8.74 2.12-.497 2.047z"/>
        <path fill="#4A4A4A" fill-rule="nonzero" d="M84.375 655.535l.498-2.045-9.764-2.372-2.852 11.745 9.764 2.365.498-2.045-7.713-1.874 1.856-7.647zM95.295 656.092l-1.963 8.099-4.642-9.776-2.389-.575-2.863 11.809 2.045.498 2.182-8.976 5.063 10.66 1.784.432 2.834-11.673zM98.263 659.002l.497-2.045 11.332 2.75-.497 2.045z"/>
        <path fill="#4A4A4A" fill-rule="nonzero" d="M100.606 669.616l2.551-10.514 2.046.497-2.551 10.514zM374.337 218.675a4.322 4.322 0 0 1-2.034 1.316l-45.055 13.636a4.387 4.387 0 0 1-5.46-2.923l-7.452-24.674 44.338-13.392a.243.243 0 0 0 .154-.125.255.255 0 0 0 0-.195.249.249 0 0 0-.124-.149.231.231 0 0 0-.196 0l-44.338 13.393-.984-3.26a4.393 4.393 0 0 1 2.922-5.461l45.056-13.635a4.399 4.399 0 0 1 3.337.338 4.345 4.345 0 0 1 2.123 2.59l3.403 11.17-44.344 13.392a.26.26 0 0 0-.172.32c.021.064.066.12.124.154a.29.29 0 0 0 .196 0l44.344-13.392 5.045 16.753a4.37 4.37 0 0 1-.883 4.144zm-2.674-.836a2.134 2.134 0 0 0 1.423-2.656l-4.387-14.583-42.186 12.74a2.505 2.505 0 0 1-1.447-4.796l42.186-12.74-2.733-9.041a2.146 2.146 0 0 0-2.656-1.423l-45.055 13.606c-.54.164-.993.537-1.257 1.037a2.087 2.087 0 0 0-.166 1.619l.332 1.108 42.186-12.746a2.508 2.508 0 0 1 1.452 4.802l-42.233 12.74 6.8 22.528a2.14 2.14 0 0 0 2.656 1.423l45.055-13.606.03-.012z"/>
        <path fill="#4A4A4A" fill-rule="nonzero" d="M341.404 215.005a1.381 1.381 0 0 0-1.72-.925l-14.713 4.446a1.381 1.381 0 0 0 .8 2.645l14.714-4.447a1.375 1.375 0 0 0 .919-1.719zM333.014 222.084l-6.03 1.82a1.375 1.375 0 0 0-.924 1.72c.22.73.989 1.143 1.719.924l6.035-1.82a1.381 1.381 0 1 0-.8-2.644zM338.773 220.084l-.794.237a1.375 1.375 0 0 0-.919 1.72c.22.73.99 1.143 1.72.925l.794-.238a1.381 1.381 0 1 0-.8-2.644zM366.647 207a1.352 1.352 0 0 0-.664-.812 1.37 1.37 0 0 0-1.056-.106l-7.944 2.377c-.73.22-1.143.989-.924 1.72l1.6 5.287c.22.73.99 1.144 1.72.925l7.932-2.371c.73-.22 1.143-.99.924-1.72l-1.588-5.3zm-6.735 6.368l-.794-2.644 5.288-1.601.794 2.644-5.288 1.6zM361.73 191.858c.322.173.7.211 1.05.107l.794-.243a1.381 1.381 0 0 0-.8-2.644l-.795.243a1.375 1.375 0 0 0-.919 1.72c.102.352.344.648.67.817zM320.773 211.084l-.788.237a1.381 1.381 0 1 0 .794 2.645l.794-.238a1.381 1.381 0 1 0-.8-2.644z"/>
    </g>
</svg>
