<svg xmlns="http://www.w3.org/2000/svg" width="67" height="60" viewBox="0 0 67 60">
    <path fill="#000" fill-rule="nonzero" stroke="#000" stroke-width=".01" d="M33.025 30.258h-2.858v-2.075a1.383 1.383 0 0 0-2.759 0v2.075H9.417v-2.075a1.38 1.38 0 0 0-2.759 0v2.075H3.775A2.758 2.758 0 0 0 1 33.025v23.483a2.758 2.758 0 0 0 2.758 2.759h29.25a2.758 2.758 0 0 0 2.759-2.759V33.025a2.758 2.758 0 0 0-2.742-2.767zM32.1 54.783a1.375 1.375 0 0 1-1.383 1.375H6.083A1.375 1.375 0 0 1 4.7 54.783V38.658c0-.764.62-1.383 1.383-1.383h24.634c.764 0 1.383.62 1.383 1.383v16.125zM12.933 41.8v1.533c0 .764-.619 1.384-1.383 1.384h-1.525c-.764 0-1.383-.62-1.383-1.384v-1.525c0-.764.619-1.383 1.383-1.383h1.55c.764 0 1.383.62 1.383 1.383l-.025-.008zm0 8.292v1.575c0 .764-.619 1.383-1.383 1.383h-1.525c-.764 0-1.383-.62-1.383-1.383v-1.575c0-.764.619-1.384 1.383-1.384h1.55c.764 0 1.383.62 1.383 1.384h-.025zm7.609-8.292v1.533a1.383 1.383 0 0 1-1.392 1.384h-1.533a1.375 1.375 0 0 1-1.375-1.384v-1.525a1.375 1.375 0 0 1 1.375-1.383h1.558a1.383 1.383 0 0 1 1.392 1.383l-.025-.008zm0 8.292v1.575a1.383 1.383 0 0 1-1.392 1.383h-1.533a1.375 1.375 0 0 1-1.375-1.383v-1.575a1.375 1.375 0 0 1 1.375-1.384h1.558a1.383 1.383 0 0 1 1.392 1.384h-.025zm7.591-8.292v1.533a1.375 1.375 0 0 1-1.375 1.384h-1.533a1.383 1.383 0 0 1-1.383-1.384v-1.525c0-.764.619-1.383 1.383-1.383h1.558a1.375 1.375 0 0 1 1.375 1.383l-.025-.008zm0 8.292v1.575a1.375 1.375 0 0 1-1.375 1.383h-1.533a1.383 1.383 0 0 1-1.383-1.383v-1.575c0-.764.619-1.384 1.383-1.384h1.558a1.375 1.375 0 0 1 1.375 1.384h-.025zm15.759-15.925a9.5 9.5 0 0 0 0-.975c-.042-.275.075-.359.35-.434a5.908 5.908 0 0 0 3.333-1.816 4.058 4.058 0 0 0-.583-6.259 8.958 8.958 0 0 0-1.334-.725c-.583-.233-1.191-.408-1.733-.6v-5.025h.175c.09.039.182.072.275.1a2.742 2.742 0 0 1 2.008 2.192 1.15 1.15 0 0 0 1.4 1.042 1.25 1.25 0 0 0 .992-1.442 4.825 4.825 0 0 0-2.933-3.733c-.625-.275-1.284-.45-1.95-.667V14.6a1.25 1.25 0 0 0-2.5 0v1.233a2.5 2.5 0 0 1-.292.075c-.78.256-1.539.577-2.267.959a4.225 4.225 0 0 0-2.308 3.483 3.925 3.925 0 0 0 2.367 4.042c.816.38 1.65.72 2.5 1.016V30.3a2.8 2.8 0 0 1-2.5-2.25 1.192 1.192 0 0 0-1.434-.975 1.208 1.208 0 0 0-.975 1.442 4.467 4.467 0 0 0 2.409 3.425c.814.388 1.649.733 2.5 1.033v1.192a1.217 1.217 0 0 0 1.275 1.216 1.242 1.242 0 0 0 1.225-1.216zm0-8.267a4.075 4.075 0 0 1 1.875.933c.62.53.74 1.445.275 2.117a3.525 3.525 0 0 1-2.15 1.4v-4.467.017zm-2.5-3.075a4.275 4.275 0 0 1-1.975-1.017 1.667 1.667 0 0 1-.117-2.166 3.492 3.492 0 0 1 2.092-1.234v4.417zM66 24.342c-.014 13.044-10.59 23.612-23.633 23.616v-3.333c11.202 0 20.283-9.081 20.283-20.283 0-11.203-9.081-20.284-20.283-20.284-11.203 0-20.284 9.081-20.284 20.284H18.75C18.75 11.294 29.327.717 42.375.717S66 11.294 66 24.342z"/>
</svg>
