<svg xmlns="http://www.w3.org/2000/svg" width="27" height="60" viewBox="0 0 27 60">
    <path fill="#000" fill-rule="nonzero" d="M1.379 59.673l-.289-2.544c-.269-2.368 1.99-10.477 6.716-24.103l-5.351-.55a2.417 2.417 0 0 1-1.911-1.29c-.392-.74-.434-1.657-.115-2.52L9.892 3.062c.529-1.434 1.971-2.517 3.354-2.517l9.111.22c.837.02 1.56.44 1.982 1.154.424.709.497 1.627.199 2.51l-5.106 15.175 5.368.554c.879.09 1.566.59 1.886 1.37.319.78.212 1.695-.294 2.513a1259.5 1259.5 0 0 1-10.771 17.016C5.25 57.111 3.957 57.967 3.336 58.377l-1.957 1.296zm2.116-30.5l8.563.881-1.44 4.157c-2.84 8.186-4.452 13.44-5.366 16.792 1.707-2.44 4.227-6.19 7.947-11.95a1242.204 1242.204 0 0 0 9.926-15.658l-4.232-.444-3.693-.785 1.441-3.803L21.428 4.14l-8.213-.198c-.135 0-.486.259-.554.431l-9.166 24.8z"/>
</svg>
