<svg xmlns="http://www.w3.org/2000/svg" width="194" height="194" viewBox="0 0 194 194">
    <g fill="none" fill-rule="nonzero">
        <path fill="#4A4A4A" stroke="#767676" d="M1 180.2h192V193H1zM11.8 159.4v12.8h170.8v-12.8h-15.2V85.8h15.2V73H11.8v12.8H27v73.6H11.8zm96-73.6H145v73.6h-37.2V85.8zm-59.2 0h37.2v73.6H48.6V85.8zM97 1L1 48.6V65h192V48.6L97 1zm0 52.8c-11.6 0-20.8-9.2-20.8-20.8 0-11.6 9.2-20.8 20.8-20.8 11.6 0 20.8 9.2 20.8 20.8 0 11.6-9.2 20.8-20.8 20.8z"/>
        <path fill="#FF3D56" d="M98.6 30.2v-7.6c2 .4 4 1.2 5.6 2.4l2.4-3.6c-2.4-1.6-5.2-2.8-8.4-2.8v-2h-2.4v2c-2.4 0-4.8.8-6.4 2.4-1.6 1.6-2.4 3.2-2.4 5.6 0 2.4.8 4 2 5.2 2 1.2 4 2 7.2 2.8v7.6c-2.4-.4-4.8-1.6-6.8-3.6l-2.8 3.6c2.8 2.4 6 4 9.6 4.4v2.8h2.4v-2.8c2.8 0 4.8-.8 6.4-2.4 1.6-1.6 2.4-3.2 2.4-5.6 0-2.4-.8-4-2-5.2-1.2-1.2-3.6-2.4-6.8-3.2zm-2.4-.4L93 28.2c-.4-.4-.8-1.2-.8-2s.4-1.6 1.2-2.4c.8-.4 1.6-.8 2.8-1.2v7.2zm5.6 11.6c-.8.8-1.6.8-3.2 1.2v-7.2c1.6.4 2.8.8 3.2 1.6.4.4.8 1.2.8 2.4.4.4 0 1.2-.8 2z"/>
    </g>
</svg>
