<svg xmlns="http://www.w3.org/2000/svg" width="56" height="60" viewBox="0 0 56 60">
    <g fill="#010202" fill-rule="nonzero">
        <path d="M54.96 43.718c-4.883-2.385-8.43-9.594-8.465-9.667-.014-.027-.032-.05-.048-.076-.119-.255-.232-.51-.365-.765-2.678-5.12-7.538-9.047-13.35-10.796-1.133-.724-11.956-7.716-14.964-12.846-.856-1.46-1.849-2.293-2.951-2.478a2.7 2.7 0 0 0-1.868.37 3.52 3.52 0 0 0-.15-.1 1 1 0 0 0-1.251.165c-1.66 1.758-3.1 4.68-3.797 6.23C6.36 11.99 4.934 11 3.5 10.83c-1.582-.182-2.532.68-2.636.78a1 1 0 0 0-.252 1.052c1.126 3.227 4.022 8.531 4.607 9.589a228.744 228.744 0 0 1-.906 2.831 4.403 4.403 0 0 0 .44 3.698c1.764 2.841 4.715 6.947 5.338 7.809.571 2.557 1.268 5.277 2.117 7.685.486 1.381 1.661 2.095 2.698 2.724.534.325 1.038.63 1.345.971.004.005.01.008.015.013.403.542.965.952 1.622 1.157 2.87.895 6.129 1.617 9.683 2.145 3.387.504 6.442 1.752 8.835 3.608a17.152 17.152 0 0 1 4.006 4.38.999.999 0 0 0 1.38.31 1 1 0 0 0 .31-1.38 19.137 19.137 0 0 0-4.47-4.89 18.294 18.294 0 0 0-2.032-1.362c.385-.067.716-.136.96-.192a1 1 0 0 0-.45-1.95c-.753.175-3.354.698-5.255.144l-.036-.006c-.955-.271-1.94-.489-2.954-.64-3.453-.513-6.61-1.212-9.382-2.076a1.248 1.248 0 0 1-.814-.836c-.757-2.482-2.55-8.796-2.86-13.786a.755.755 0 0 1 .303-.638c1.286-.994 4.539-3.447 6.955-4.738a.503.503 0 0 1 .269-.055c1.103.056 4.547.294 6.94 1.154-.649.935-2.349 2.347-6.577 1.83a1.01 1.01 0 0 0-1.04.598c-.506 1.176-1.462 3.045-2.006 3.522-.375.327-.45.883-.178 1.3.015.023 1.46 2.273.795 4.134a1 1 0 1 0 1.883.673c.093-.259.16-.52.206-.78.465-.157 1.442-.29 2.984.424.117.514.26 1.51-.091 2.48a1 1 0 0 0 1.88.682c.44-1.212.373-2.411.237-3.217 1.516-.974 7.272-4.236 13.63-2.246a1 1 0 0 0 .598-1.908 16.15 16.15 0 0 0-5.698-.702c-2.926-.842-4.455-3.18-4.485-3.225a1 1 0 0 0-1.694 1.063c.053.085.944 1.478 2.692 2.687-2.925.734-5.138 2.004-6.101 2.629-1.71-.819-3.044-.872-3.972-.707a8.84 8.84 0 0 0-.809-2.406c.655-.866 1.29-2.134 1.664-2.94 7.231.588 8.357-3.983 8.402-4.185a.999.999 0 0 0-.525-1.114c-.894-.45-1.99-.784-3.11-1.035-2.54-2.68-5.146-3.47-5.256-3.501a1.016 1.016 0 0 0-.43-.03c-.764.115-1.515.255-2.252.41-1.203-1.425-1.578-2.413-1.58-2.417a1.002 1.002 0 0 0-.52-.579c-2.156-1.015-3.07-2.386-3.4-3.033 1.056-1.907 1.404-3.736 1.016-5.443a6.246 6.246 0 0 0-.999-2.22c.291.068.833.36 1.503 1.503 3.405 5.806 15.228 13.278 15.73 13.594.007.005.015.006.023.01a.99.99 0 0 0 .226.103c5.36 1.574 9.838 5.165 12.289 9.851 1.448 2.77 1.937 5.55 1.308 7.439-.383 1.151-1.848 3.327-4.312 4.602a1 1 0 1 0 .92 1.776c2.803-1.45 4.707-3.996 5.29-5.747.225-.676.336-1.424.358-2.214 1.596 2.092 3.72 4.306 6.209 5.522a.996.996 0 0 0 1.337-.46 1 1 0 0 0-.46-1.337zM2.808 12.828c.133-.022.286-.03.458-.01.64.075 1.97.606 3.721 3.291a85.637 85.637 0 0 1-.95 3.45c-.967-1.826-2.385-4.606-3.23-6.73zm3.644 14.898a2.406 2.406 0 0 1-.24-2.02c.85-2.597 2.36-7.356 2.981-10.249.221-.534 1.581-3.744 3.203-5.845.437.447.972 1.16 1.192 2.127.314 1.38-.081 2.942-1.175 4.643a.997.997 0 0 0-.153.436c-.005.045-.482 4.487-1.669 6.608a1 1 0 0 0-.008.961l.597 1.113c-.232.094-.454.186-.653.27a3.22 3.22 0 0 0-1.901 3.576c.093.468.192.985.3 1.54l.155.806c-.916-1.327-1.89-2.774-2.629-3.966zm15.876-3.353c.312.118.981.408 1.804.931a39.563 39.563 0 0 0-1.695-.124 2.478 2.478 0 0 0-1.314.289c-2.458 1.314-5.588 3.646-7.236 4.92a2.75 2.75 0 0 0-1.076 2.345c.253 4.051 1.425 8.879 2.299 12.024-.473-.332-.856-.69-1.017-1.147-1.495-4.244-2.524-9.575-3.204-13.103-.108-.56-.208-1.079-.301-1.55a1.198 1.198 0 0 1 .717-1.346c2.138-.902 6.383-2.508 11.023-3.239zm-5.606-2.963c.184.393.539 1.046 1.146 1.863a53.833 53.833 0 0 0-4.806 1.504l-.47-.875c.638-1.368 1.061-3.18 1.32-4.603.645.707 1.55 1.466 2.81 2.111zM14.366 5.279a1 1 0 0 0 1.272-.62l1.142-3.307A1 1 0 1 0 14.889.7l-1.142 3.307a1 1 0 0 0 .619 1.272zM10.03 5.77a1 1 0 0 0 1.87-.707L10.352.979a1 1 0 1 0-1.87.709l1.547 4.083zM3.072 5.054l4.167 3.083a.998.998 0 0 0 1.398-.209 1 1 0 0 0-.209-1.399L4.261 3.446a1.001 1.001 0 0 0-1.19 1.608z"/>
    </g>
</svg>
