<svg xmlns="http://www.w3.org/2000/svg" width="14" height="41" viewBox="0 0 14 41">
    <path fill="#000" fill-rule="nonzero" d="M8.241 39.6c.83-.649 1.239-2.744 1.534-3.71.513-1.754.894-3.545 1.058-5.368.313-3.083.064-6.18-.484-9.218C9.113 15.02 6.01 9.352 2.282 4.191c.045 2.503.05 5.05.008 7.558-.05.694-1.91 1.482-1.882 2C.168 10.002.142 6.203.248 2.44.233 2.182 1.951.364 2.128.441c4.094 1.47 8.32 2.976 11.706 5.78 0 0-.73.901-.816.906-2.739-1.152-5.482-2.39-8.21-3.37 4.559 6.24 7.631 13.766 7.652 21.583.04 4.879-.75 12.047-4.99 15.207-.168.095.521-.762.77-.948z"/>
</svg>
