<svg xmlns="http://www.w3.org/2000/svg" width="83" height="87" viewBox="0 0 83 87">
    <defs>
        <filter id="a" width="288.9%" height="277.1%" x="-94.4%" y="-67.7%" filterUnits="objectBoundingBox">
            <feMorphology in="SourceAlpha" operator="dilate" radius="2.5" result="shadowSpreadOuter1"/>
            <feOffset dy="10" in="shadowSpreadOuter1" result="shadowOffsetOuter1"/>
            <feGaussianBlur in="shadowOffsetOuter1" result="shadowBlurOuter1" stdDeviation="10"/>
            <feColorMatrix in="shadowBlurOuter1" result="shadowMatrixOuter1" values="0 0 0 0 1 0 0 0 0 0.239215686 0 0 0 0 0.337254902 0 0 0 0.3 0"/>
            <feMerge>
                <feMergeNode in="shadowMatrixOuter1"/>
                <feMergeNode in="SourceGraphic"/>
            </feMerge>
        </filter>
    </defs>
    <path fill="#FF3D56" fill-rule="nonzero" d="M16.359 10.03H28.84l1.141-1.65c.932-1.423 1.96-2.786 2.848-4.238.421-.69 1.212-1.82.9-2.693-.222-.624-.79-.836-1.4-.945-.44-.078-2.693-.655-3.602-.466-.807.167-1.553.555-2.327.828-1.09.384-2.297.706-3.493.64-1.033-.058-2.207-.192-3.182-.548-.807-.296-1.587-.732-2.441-.88-.738-.129-3.425.248-3.966.343-3.805.663-1.038 3.596 1.899 7.959l1.14 1.65zM43.86 33.155c-3.2-7.47-8.994-15.615-15.065-19.545H16.201C10.133 17.541 4.34 25.688 1.14 33.156-2.068 40.643 1.78 48 9.112 48h26.776c7.332 0 11.18-7.357 7.972-14.844zm-20.19 6.782v3.032h-2.383v-2.856c-1.83-.058-3.66-.588-4.707-1.295l.785-2.767c1.133.678 2.76 1.295 4.533 1.295 1.83 0 3.08-.912 3.08-2.325 0-1.325-1.017-2.179-3.168-2.973-3.051-1.119-5.027-2.532-5.027-5.27 0-2.531 1.743-4.474 4.678-5.004v-2.884h2.383v2.737c1.83.06 3.08.5 4.01.972l-.784 2.707c-.698-.324-1.977-1-3.952-1-2.034 0-2.76 1.06-2.76 2.06 0 1.207 1.046 1.884 3.515 2.885 3.255 1.236 4.708 2.826 4.708 5.446 0 2.503-1.714 4.71-4.91 5.24z" filter="url(#a)" transform="translate(19 9)"/>
</svg>
