<svg xmlns="http://www.w3.org/2000/svg" width="14" height="41" viewBox="0 0 14 41">
    <path fill="#000" fill-rule="nonzero" d="M5.759 39.6c-.83-.649-1.239-2.744-1.534-3.71-.513-1.754-.894-3.545-1.058-5.368-.313-3.083-.064-6.18.484-9.218C4.887 15.02 7.99 9.352 11.718 4.191a221.052 221.052 0 0 0-.008 7.558c.05.694 1.91 1.482 1.882 2 .24-3.746.266-7.545.16-11.309.014-.258-1.704-2.076-1.881-1.999C7.777 1.911 3.55 3.417.165 6.221c0 0 .73.901.816.906 2.739-1.152 5.482-2.39 8.21-3.37C4.633 9.996 1.56 17.522 1.54 25.34c-.04 4.879.75 12.047 4.99 15.207.168.095-.521-.762-.77-.948z"/>
</svg>
